<?xml version="1.0" encoding="utf-8"?>
<!-- Generator: Adobe Illustrator 24.0.2, SVG Export Plug-In . SVG Version: 6.00 Build 0)  -->
<svg version="1.1" id="Layer_1" xmlns="http://www.w3.org/2000/svg" xmlns:xlink="http://www.w3.org/1999/xlink" x="0px" y="0px"
	 viewBox="0 0 307 254.9" style="enable-background:new 0 0 307 254.9;" xml:space="preserve">
<style type="text/css">
	.st0{fill:#F8EC33;}
	.st1{fill:none;stroke:#000000;stroke-width:0.75;stroke-miterlimit:10;}
</style>
<path class="st0" d="M243.3,168.1c23.8-42.3,19.4-76.8,3.3-104.5c1.5-10.3,5.9-12.8,1.5-19.1c-5.6-8.2-16.9-15-24.4-11.3
	c-4.3,2.1-7.8,3.1-12.4,4.1c-32.9-12-79.8-0.2-107.4,32.9C75,105.1,65.7,160.6,90.5,197c0.4,5,0.7,10.9,0.8,16.6
	c0.2,14.1,9.7,19.5,19.1,15.9c5.2-2,11.8-3.7,16.7-4.8C169.5,237.4,223.1,204.1,243.3,168.1z"/>
<path class="st1" d="M222.4,157.9c23.8-42.3,19.4-76.8,3.3-104.5c1.5-10.3,5.9-12.8,1.5-19.1c-5.6-8.2-16.9-15-24.4-11.3
	c-4.3,2.1-7.8,3.1-12.4,4.1c-32.9-12-79.8-0.2-107.4,32.9c-29,34.9-38.3,90.4-13.6,126.8c0.4,5,0.7,10.9,0.8,16.6
	c0.2,14.1,9.7,19.5,19.1,15.9c5.2-2,11.8-3.7,16.7-4.8C148.6,227.2,202.2,193.9,222.4,157.9z"/>
<g>
	<path d="M21.2,160.2c-0.2,0-0.4,0.2-0.8,0.2c-0.5,0-1.5-0.1-1.5-0.2c-0.3-0.4-1-1-1.3-1.6c-0.4-0.6-0.4-0.6-0.3-0.9
		c0.1-0.2,0.1-0.4,0-0.7c-0.3-0.4,0.1-1.1,0.1-1.6c0-0.3-0.1-0.3-0.3-0.3c-0.8,0.1-0.8,0.1-1.3-0.3c-0.5-0.6-0.4-0.8,0.1-1.3
		c0.4-0.2,0.6-0.5,0.6-0.5c-0.1-0.2-0.5-0.3-0.9-0.2c-0.7,0.3-0.5-0.3-0.9-0.7c-0.4-0.5-0.4-0.6,0-1c0.2-0.4,0.3-0.4,2.6-1
		c0.4-0.2,0.8-0.3,0.9-0.4s0.1-0.7,0.2-1.3c0.2-5.1,0.5-9.8,1.1-14.8c1.1-10.2,3-20.6,5.1-30.5c0.7-3.9,1-4.4,2-9.3
		c1.6-6.2,1.8-3.6,5-5.1c0.6-0.3,0.9-0.4,1.3-0.3c0.1,0.1,0.2,0,0.3,0c0.5-0.3,1.1-0.7,2.2-0.5c1.1,0.2,1.4,0.3,1.4,0.8
		c0.1,0.4,0.5,0.9,0.7,1.3c0.4,1.4,1.1-0.2,2.6,1.1c0.8,0.5,0.3,1.6,0.9,2.2c0.3,0.4,0.3,0.4,0.2,1.1c-0.1,3.5-1.1,6.9-1.9,10.3
		C36,116.6,34,131,32.9,141.7c-0.2,0.7-0.1,2.7-0.2,3.7c-0.2,1.3-0.2,1.2,2.9,0.8c6.5-1.1,20-0.9,26-0.4c1.7,0.1,1.8,0.1,1.9,0.8
		c0.1,0.6-0.1,0.8-0.4,0.9c-0.4,0.2-0.5,0.4-0.3,0.7c0.3,0.6,1.9,0,1.9,1c0.2,1-0.6,0.9-0.6,1.6c0.1,0.3,0,0.6-0.2,0.8
		c-0.1,0.3,0,0.5,0.5,0.5c0.6,0,0.7,0.2,1,1.6c0.2,1-0.4,0.1-0.1,2.4c0.1,1.4,0.1,1.4-0.2,1.6c-0.6,0.3-0.5,0.3-4.9,0
		c-4.9-0.3-6.1-0.3-11.3-0.3c-6.9-0.1-10.6,0.5-15.8,1.4c-3,0.5-8.7,1.8-10.4,2.5c-1.2,0.6-1.7,0.6-2.1,0.3
		C19.2,161.2,21.9,160.9,21.2,160.2z M18.2,152.4c1.2-0.3,1.5-0.9,0.6-0.6c-1.2,0.4-1.8,0.6-1.8,0.7S17.2,152.6,18.2,152.4z
		 M21.8,147.2c-0.2-1.6,0.3-6.9,0.4-8.9c0.1-0.5-0.7-0.8-0.3-0.9c0.1,0,0.1-0.1,0-0.1s-0.2-0.2,0-2.7c0-0.9,0.3-1,0.4-2
		c0.2-1.8,0.4-3.1,0.4-4.8c-0.1-0.6,0.2-0.9,0.3-1.4c0-0.1,0-0.4,0.1-0.6c0.4-1.2,0.4-3.5,0.6-4.4c0.1-1.3,0.7-0.3,0.7-1
		c0-2.6,0.6-4.8,0.9-7.4c0.2-1.8,0.2-1.4,0.6-3.4c0.6-1.9,0.9-3.4,1.1-4.2c0.4-1.2,0.5-1.9,0.3-2.1c0-0.2-0.1-0.6-0.1-1.1
		c0-1.1-0.2-0.9-0.5,0.6c-0.4,2-1,3.3-1.2,5.6c-0.8,4.1-1.6,7-2.3,11c-0.4,2.2-0.7,5.5-1,7.9c-0.6,2.2-0.6,3.8-0.9,7.2
		c-0.4,3.7-0.7,7.1-0.6,10.6c-0.1,0.7,0,2.3-0.2,2.9c-0.1,0.7,0.5,1.6,1.1,0.9C21.8,148.7,21.9,148.3,21.8,147.2z M21.6,140.1
		c0.1,0.3-0.2,0.3-0.3,0C21.3,139.9,21.6,139.9,21.6,140.1z M21.8,151.2c-0.3-0.3-0.4,0.2-0.2,0.2C21.7,151.4,21.8,151.3,21.8,151.2
		z M23.3,155c0.3-0.1,0.8-0.1,1.1-0.2c0.2-0.1,1.3-0.1,1.4-0.2c0.3-0.5-0.6,0-0.5-0.3c0.1-0.2,0.3,0,0.2-0.3c0-0.1,0.1-0.2,0.2-0.2
		c0.1,0,0.1-0.3-0.1-0.4c-0.8-0.3-0.9,0.6-1.3,0.3c-0.2-0.1-1,0-1.2,0.2c-0.1,0.1-0.3,0.1-0.5,0.1c-0.8-0.1-0.1,1,0.4,0.8
		c0.8-0.1-0.5,0.1-0.3,0.3c0,0.1,0,0.1,0.1,0.1C22.9,155.1,23.1,155,23.3,155z M23,144.4l0.2-5.2c0.4-2.5,0.4-4.8,0.6-6.1
		c0.8-4.6,1-7.1,1.8-11.8c0-0.5,0.5-1.9,0.1-1.8c-0.1,0-0.2,0.2-0.3,0.4c-0.7,4.4-1.6,8.7-2,13.6c-0.4,2.8-0.6,6-0.8,8.9
		c-0.3,3.2-0.2,3.5,0.1,3.1C22.9,145.6,23,145.2,23,144.4z M24,154.6c-0.1,0.1-0.6,0.2-0.6,0.1C23.5,154.6,24,154.5,24,154.6z
		 M24.4,147.3c-0.2,0,0-3,0.4-7.6c0.2-2.1,0.3-2.8,0.6-2.8c0.1,0,0.1-0.2,0-0.3c-0.1,0-0.1-0.1,0.1-0.2c0.2-0.3,0.2-0.8,0.2-1.3
		c0.3-1.6,0.7-5,0.9-6.3c0-0.5,0.1-1.4,0.4-0.8l-0.6,4.3c-0.1,2.2-0.4,3.5-0.5,3.5s-0.1,0.5,0,0.5c0.2,0.1,0.1,0.5-0.1,0.7
		c-0.1,0.3-0.2,1.3-0.1,1.3c0.1,0.1,0.1,0.1,0,0.2c-0.1,0.1-0.3,0.5-0.3,1c-0.1,0.5-0.1,1-0.2,1.1c-0.3,0.2-0.2,0.4,0,0.5
		c0.1,0.1,0,0.7-0.2,0.7s-0.2,0.6,0,0.7c0.1,0.1,0.1,0.6,0.2,0.7c0.1,0,0,0-0.2,0.1s-0.4,0.2-0.1,0.2c0.1,0,0.1,0.1,0,0.1
		c-0.4,0.2,0.4,0.4,0,0.4c-0.2,0-0.2,0.1,0,0.2c0.1,0,0.1,0.1-0.1,0.2s-0.2,0.4,0,0.4c0,0,0.2,0.1,0.2,0.2s-0.1,0.2-0.2,0.2
		s-0.2,0-0.2,0.1l0.1,0.1c0.2,0,0.3,0.4,0.1,0.4s-0.2,0.3-0.1,0.3c0.1,0,0.1,0.1,0.1,0.2c0.1,0.3,0.3,0.1,0.3,0.5
		c0,0.4,0.1,0.5,0.4,0.5c0.8,0.2,0.4-2.8,0.6-3.6c0.4-3.8,0.2-6.7,0.7-10.6c1.3-9.8,1.9-18,3.9-28.2c0.1-0.6,0.1-0.6-0.1-0.8
		c-0.2-0.2-0.2-0.2,0.3-2.9l2-8.2c0.3-1.1,0.4-1.2,0.1-1.3c-0.4-0.4-0.5,1-0.7,1c-1.3,2.1-2.9,11.4-3.4,14c-0.3,1.3-0.6,2.8-0.7,3.8
		c-0.1,0.4-0.2,0.6-0.3,0.4c-0.1,0,0-0.9,0.1-1.3c0-0.3-0.3-0.2-0.3,0.1c-0.4,2-0.5,3.3-0.6,5c0,0.2,0,0.2,0.1,0.1
		c0.5-0.3-0.4,4.7-0.6,5.7l-2,15.7l-1,10.6c-0.1,0.8,0,1.2,0.6,0.7C24.6,147.5,24.7,147.3,24.4,147.3z M26.1,117
		c-0.1,0-0.5,1.2,0,0.8C26.2,117.7,26.2,117,26.1,117z M26.1,115.8c-0.2,1.2,0.2,1,0.3,0.1C26.6,114.6,26.1,114.9,26.1,115.8z
		 M26.3,116.8c0-0.1-0.2-0.1-0.2,0C26.1,117,26.3,117,26.3,116.8z M27.2,127.2c0,0.1-0.3,0.1-0.3,0S27.2,127.1,27.2,127.2z
		 M28.8,138.8c0.1-0.2,0.1-0.8,0.2-1.1c0.1-3.6,0.6-4.1,0.9-7.2c0-1.2,0.3-1.3,0.4-2.6l0.2-1.8c0-1.2,0.4-2.1,0.5-3.2
		c0-1.4,1.4-8.8,1.6-11.6c0.2-0.6,0.1-0.7,0-0.7c-0.2,0-0.3,0.8-0.5,2.5c-0.1,0.7-0.2,1.1-0.4,1.3c-0.2,0.3-0.5,1.7-0.6,2.9
		c-0.4,4.1-1.1,7.9-1.8,11.9c-0.2,1.6-0.7,3.8-0.7,5.1c0.1,0.8,0,2.2-0.2,3.6c-0.1,0.6-0.1,2.4-0.4,3c-0.1-0.2-0.1,3,0.3,2.2
		C28.5,142.7,28.5,139.1,28.8,138.8z M29.4,95c0.4-1.2,1.9-5.7,0.6-4.6c-0.1,0.4-1,4.2-1,4.8v0.6C28.8,96.2,29.2,95.5,29.4,95z
		 M30.7,136.7c0-0.5-0.4-0.5-0.3,0C30.4,137.2,30.9,137.2,30.7,136.7z M30.8,135.8c0-0.3,0-0.7,0.1-0.9c0.1-0.2,0-0.2-0.1-0.2
		c-0.2,0-0.4,1.2-0.3,1.3C30.6,136.1,30.7,136,30.8,135.8z M30.8,92c-0.1,0.3,0.2,0.4,0.3,0.2v-0.3C31.1,91.6,30.8,91.8,30.8,92z
		 M31.5,128.9c0.4-1.7,0.9-6.2,1.2-7.2c0.1-0.1,0.3-1,0.4-2.6c0.5-3.7,3.5-16.7,2.9-19.1c-0.4-0.3-0.4,1.1-0.4,1.9
		c-0.2,1.6-0.5,3.8-0.9,5.1c-0.5,2.1-1.4,8.5-2,11.5c-0.4,3.4-1.6,8.6-1.7,12.1C31.3,130.9,31.5,129.3,31.5,128.9z M31.8,95.5
		c0.3-0.5,0.2,0.6-0.1,1.6c-0.1,0.4-0.2,1.3-0.4,1C31.3,97.9,31.7,95.6,31.8,95.5z M32.2,101.5c-0.2,0.4,0.1,0.5,0.2,0.2
		C32.4,101.4,32.3,101.3,32.2,101.5z M32.7,100.2c0.2-1.9,1.9-5.2,1.7-6.6c0-0.3,0.2-0.9-0.1-0.9c-0.1,0-0.2,0-0.2,0.1
		c-0.2,0.3-0.5-0.2-0.7,0.7c-0.1,0.4-1.1,4.7-0.5,3.5l0.2-0.4c0.1,0,0.2,0.3-0.1,1.4l-0.5,2.5C32.5,100.7,32.6,100.6,32.7,100.2z
		 M32.9,152.3c0-0.1-0.3,0-0.3,0.1S33,152.4,32.9,152.3z M42,155.2c0.1-0.2-0.2-0.2-1-0.1c-1.6,0.1-5.1,0.4-6.1,0.3
		c-1,0-2,0.2-2.1,0.4c-0.1,0.5,1.1,0.1,1.7,0.1C36.3,155.7,40.4,155.6,42,155.2z M34.4,95.9c0.1-0.3,0.1-0.6,0.1-0.6
		c-0.1-0.1-0.1,0-0.2,0.7C34.1,97,34.2,96.9,34.4,95.9z M39.8,150.9c4.1-0.6,11.9-0.1,14.8-0.5c-0.3-0.1-1-0.6-1.4-0.5
		c-1.1-0.1-1.4-0.1-3.9-0.1c-3.4,0.2-10.1,0.1-13.1,0.6c-1.4,0.1-2.3,0.3-1.7,0.5l3-0.2C39.3,150.3,38.3,151.1,39.8,150.9z
		 M35.1,96.9c0.4-1.1,0-1-0.2-0.1c-0.2,0.7-0.2,0.6-0.1,0.6S35,97.2,35.1,96.9z M37.2,94.2c0-0.1-0.2-0.1-0.2,0
		C37,94.4,37.2,94.4,37.2,94.2z M37.3,93.6c0.2-0.5-0.1-0.2-0.2,0.1C37.1,94.1,37.4,93.9,37.3,93.6z M55.9,152.6
		c0.3,0,0.5,0,0.6-0.1c0-0.2,0.5-0.1,0.5,0c0.1,0.2,0.5,0.2,0.5,0.1c0-0.1,0.3-0.2,0.3,0c0.1,0.1,1.6,0.2,1.6,0.1
		c0-0.1,0.1-0.1,0.1-0.1c0.1,0,0.2,0,0.2,0.1c-0.1,0.2,0.5,0.2,0.5,0c0-0.1-0.1-0.2-0.4-0.3c-0.7-0.1,0.4-0.7-0.9-0.7
		c-3.2-0.2-10.8-0.4-12.6-0.3c-2.8,0.3-6,0.7-8.6,0.7c-1-0.1-0.1,0.5,0.8,0.5c0.8,0.2,4,0.2,5.6,0c0.4-0.1,1.4-0.1,5.3,0
		c5.1,0.1,5,0.1,5.1-0.3c0.1-0.1,0.1,0,0.1,0.1c0,0.4,0,0.4,0.4,0.4C55.6,152.8,55.3,152.6,55.9,152.6z M37.9,91.8
		c0-0.2-0.2,0-0.2,0.1C37.6,92.1,37.9,91.9,37.9,91.8z M49.7,147.4h4.9c1.2,0.1,1.6,0.1,1.6-0.1c0-0.5-4.7-0.2-5.5-0.4
		c-3.1-0.1-9.1-0.3-11.3,0.1c0,0.1,0.5,0.2,1.9,0.1c1.6-0.1,1.6-0.1,1.9,0.2c0.2,0.2,0.2,0.2,1.6,0.2L49.7,147.4z M49.2,149.2
		c1,0,1.3-0.1,1.2-0.2c0-0.2-0.8-0.2-4.8-0.1c-2.9,0.1-3.5,0.1-3.4,0.3C42.3,149.4,48.5,149.2,49.2,149.2z M46.6,155
		c0.1-0.2-0.2-0.2-1.3-0.2c-3,0-4.4,0.6-0.8,0.4C45.5,155.2,46.6,155.1,46.6,155z M61.5,154.3c-3.9-0.5-8.5-0.6-11.7-0.6
		c-0.7,0-2.8-0.1-3.3,0.2c3.9,0.4,6.1,0.1,14.4,0.7c1.3,0,2.7,0.4,3.1,0.1C64.2,154.1,62.3,154.5,61.5,154.3z M55.3,150.6
		c0-0.3-0.9-0.1-0.2,0.1C55.3,150.7,55.3,150.9,55.3,150.6z M58.8,147.1c-0.4-0.1-0.6-0.1-0.5,0c0,0.1-0.4,0.1-0.5,0
		c-0.3-0.1-0.6,0.1-0.6,0.2s0.3,0.2,0.1,0.2c-0.1,0-0.2,0-0.2-0.2c-0.2-0.4-0.6,0-0.5,0.3c0.4,0.1,3,0.7,3.4,0.1
		C60.7,147.1,59.1,147.2,58.8,147.1z M58.5,152.1c0,0.2-0.3,0.2-0.3,0C58.1,151.9,58.4,151.9,58.5,152.1z M59.8,151.9
		c-0.2,0,0.2,0.3,0.2,0.1C59.9,151.9,59.8,151.9,59.8,151.9z M60.2,152c-0.1-0.3,0,0.5,0,0.3C60.3,152.2,60.3,152.1,60.2,152z"/>
	<path d="M85.2,152.6c0.2,1.4,0.5,2.2,0.7,2.4c0.8,1.6-1.7,2.3-5.7,2.7c-0.6,0-2.7,0.3-4.1-0.7c-0.8-0.6-2,1.6-3,0.2
		c-0.9-1.1-2.7-3.8-1.8-11.7l0.7-6.4c0.4-3.1,1-9.2,1.1-11.9c0.1-1.6,0.8-4.6,0.7-5.5c0.1-1.3,0.3-2.1,0.9-2.2
		c0.7-0.4,0.8-0.9,2-0.4c0.5,0.2,0.5,0.2,0.4,0.9c0,1.8,0.2,3.3-0.2,5.5c-0.2,1-0.3,3.1-0.2,3.3c0.2,0.2,0.3,0,0.3-0.5
		c0.2-2,0.6-3.7,0.6-5.6c0.1-0.9-0.1-3.4,0.5-3.7c0.2-0.1,0.3-0.3,0.3-0.4c0-0.3,0.4-0.8,0.6-0.8c0.1,0,0.3-0.1,0.5-0.3
		c0.6-0.6,0.8-1.1,1.9-0.4c0.3,0.1,0.7,0.4,0.9,0.5c0.8,0.6,0.5-1,1.7-1.2c0.8,0.1,0.8,1.2,0.9,1.9c0.2,0.4,0.3,0.1,0.2-0.4
		c-0.2-2.4,3-1.6,2.6,0.4c-0.1,0.7,0.1,2.6-0.1,3.4c-0.4,2-0.6,4.7-0.8,6.7c-0.2,2.3-0.4,4.1-0.8,6.4c-0.3,3.4-0.6,5.8-0.8,9.7
		l-0.2,5.1C85,151.1,85,151.8,85.2,152.6z M74.2,150.6c-0.1-2.2-0.1-2.3-0.2-2.3c-0.2,0-0.2,0.1-0.3,0.9c0,1.2,0.2,2.8,0.5,3
		l0.2-0.4L74.2,150.6z M82.2,112c-0.9-1-0.4-2.3-1.2-1.8c-0.8,0.4-1.4-0.7-2.5-2c-0.5-0.9-0.5-0.9-0.3-1.3c0-0.2,0.3-1,0.6-1.2
		c0.1-0.1,0.3-0.7-0.1-0.5c-0.3,0.1-0.4-0.1-0.2-0.3c0.2-0.2,0.2-0.3,0.2-0.3c-0.3-0.5-1.4,1.1-1.4,0.6c0-0.1-0.1-0.3-0.2-0.3
		c-0.3-0.2,0.3-1,0-1.1c-0.1-0.1-0.2,0-0.1,0.2c-0.1,0.4-0.7,0.8-1,0.7c-0.6-0.2-1.8-1.7-1.1-2.3c0.4-0.8,1.3-2,3.7-4.6
		c2.1-2.4,4.8-4.6,6.4-5.6c0.4,0,1,0.1,1.2,0.7c0.4,0.5,0,1.2,0.4,1.3c0.5,0.1,1-0.4,1.6-0.1c0.6,0.1,1,1.6,1.4,1.8s1.4,1.9,1.4,2.4
		c0.2,0.7,0.5,1.1,0.6,1.7c0.1,0.2,0.2,0.6,0.4,0.7c0.2,0.3,0.2,0.3,0,1.3c-0.4,0.8-0.4,0.9-1,1.8c-1.3,1.3-4.9,5-5.5,5.9
		c-1,1.4-1.3,1.7-1.8,2.4c-0.2,0.3-0.4,0.5-0.6,0.5C82.8,112.7,82.8,112.7,82.2,112z M76.8,135c0.3-1.8,0.4-3.2,0.4-4.2
		c0-1.1-0.5-1.4-0.8-0.5c-0.2,2.3,0,4.3-0.3,6.8c-0.2,1.6-0.3,1.9,0,1.9C76.2,139.3,76.3,137.4,76.8,135z M77.1,148.9l-0.1-5
		l0.5-5.4c0.3-3.1,0.1-3.6-0.1-3.6s-0.6,4.9-1,8.4c-0.2,1.1-0.1,2.3-0.2,2.7c-0.1,0.1,0.2,0.6,0.1,0.7c-0.1,0-0.1,0.5,0,0.5
		c0.2,0,0.1,0.4-0.1,0.5c-0.2,0.4,0.2,0.9,0.1,1.6c0.1,0.4-0.1,2.2-0.1,2.4c0.2,1.1,0.6,1.3,0.7,2.2c0,0.4,0.6,0.5,0.7,0.2
		C77.3,152.6,77.2,152.1,77.1,148.9z M79.2,149.3c-0.2-3.1-0.2-3.1-0.1-5.2l1-6.9c0.1-0.8,0.3-2.4,0.5-3.3c0.2-1,0.3-2.1,0.3-2.4
		c0.2-0.6,0.9-8.1,1.2-9.7c0.2-1.1,0.1-1.2-0.3-1.9c-0.3-0.3-0.4-0.3-0.5-0.2c-0.1,0.2-0.3,1.2-0.4,2.5c-0.1,0.3-0.1,0.8-0.2,1.1
		c-0.1,0.3-0.1,1.1-0.2,1.8l-0.6,6.3c0,0.4-0.2,1.1-0.2,1.6l-0.4,2.5c-0.5,2.8-1.4,8.3-1.4,8.9c0,0.4-0.1,0.6-0.2,0.6
		c-0.1,0-0.1-0.1,0-0.4c-0.1-0.3-0.1-0.4-0.2-0.4s-0.2,0.1-0.1,0.4c-0.2,2.1-0.2,2.2,0,2.1c0.1,0,0.1-0.1,0.1-0.2
		c0-0.2,0.1-0.3,0.1-0.3c0.2,0,0.5,1,0.3,1c-0.1,0.1-0.1,0.3,0,0.3c0.2,0,0.4,0.6,0.6,2.7c0.3,1.4,0.4,1.8,0.6,2
		c0.1,0.1,0.2,0.2,0.3,0.2C79.3,152.4,79.3,151.3,79.2,149.3z M78.4,134.4c0-0.2-0.2-0.2-0.2,0C78.2,134.5,78.4,134.5,78.4,134.4z
		 M79.6,103.5c-0.3-0.1-0.4,0.6-0.1,0.2C79.6,103.6,79.7,103.5,79.6,103.5z M81.4,105.2c-0.2,0-0.5,0.2-1,0.7
		c-0.3,0.3-1.7,1.3-0.7,1.2C80,107,81.5,105.2,81.4,105.2z M80.2,148.5c-0.1-1.4,0.5-6.7,0.5-9.2c0-3.9,0.6-4,0.4-4
		c-0.3,0-0.3,0.1-0.7,3.2c-1,8.5-0.9,11-0.6,11C80.1,149.5,80.1,149.3,80.2,148.5z M81.5,134.1c0.2-0.7-0.2-0.6,0.2-1.1
		c0.3-0.5,0.3-2.9,0-3c-0.2,0-0.3,1.6-0.5,2.8l-0.2,1.6C80.8,134.7,81.5,134.5,81.5,134.1z M82.2,153.6c-0.3-0.5-0.6-1.6-0.5-2.8
		c0.2-1.6-0.1-2.2-0.3-2.2s-0.3,1.2-0.2,2.7c0.1,1.6,0.6,2.5,0.8,2.5C82.2,153.8,82.2,153.7,82.2,153.6z M82.8,140.9l0.2-2.1
		c0.5-4.6,0.5-5.1,0.3-5.1c-0.1-0.4-0.7,3.5-1.2,7.3c-0.4,3.7-0.7,6.8-0.1,4.6C82.3,143.8,82.6,142.9,82.8,140.9z M83.1,100.6
		c1-1,1.2-1.2,1.1-1.2c-0.1-0.2-1.8,1.2-1.9,1.7C82.2,101.3,82.3,101.2,83.1,100.6z M83.5,133.3c0-0.2-0.3-0.2-0.3,0
		S83.5,133.5,83.5,133.3z M83.8,131.2c0.1-0.9,0.4-2.1,0.5-2.7c-0.1-0.2,0.3-0.7,0.3-0.9s0.6-0.2,0.2-0.5c-0.3-0.2-0.3-0.5-0.2-0.9
		c0.1-1,0.1-3-0.3-0.9c-0.3,1.9-0.9,5.2-1,6.5C83.3,132.8,83.6,132.4,83.8,131.2z M86.3,100.4c-0.1-0.3-4.8,4.3-1.9,2.1
		C85.4,101.6,86.9,100.4,86.3,100.4z M84.5,98.8c-0.6,0.3-0.2,0.5,0.1,0.2C85,98.6,84.9,98.6,84.5,98.8z M85.6,120.9
		c0-0.3-0.3-0.3-0.3,0.1C85.2,121.5,85.7,121.4,85.6,120.9z M86.1,97.8c-0.1,0-0.5,0.2-0.5,0.3C85.6,98.3,86.1,97.8,86.1,97.8z
		 M86.8,97.1c0.2-0.7-0.4-0.1-0.5,0.3C86,98,86.8,97.4,86.8,97.1z M90.5,98c-0.1-0.6-0.4-0.9-0.7-0.6c-0.3,0.1-0.3,1.2-0.5,1.6
		c-0.3,0.3-0.1,0.5,0.2,0.3C90,98.8,90.7,99.1,90.5,98z"/>
	<path d="M93.8,158.1c-0.5-0.3-0.5-0.4-0.4-1.8c-0.1-1.4,0.1-2.6,0.4-4.6c0.5-3.2,0.9-5.5,0.8-6.4c0.1-0.6,0.2-1.3,0.3-1.6
		c0.2-0.3,0.4-2.4,0.4-3.3c0.1-0.3,0.2-1,0.3-1.9c0.4-1.3,0.6-2.8,0.7-4.2c0.2-0.8,0.4-3.5,0.8-5.4l0.5-3.2c0.1-0.2,0.1-0.6,0.1-0.7
		l0.2-2.1c0.1-1.3,0.5-2.3,0.7-2.3c0.1,0,0.2-0.1,0.3-0.3c0.1-0.2,0.7-0.6,1.2-0.9c1.1-0.6,1.6-0.8,2-0.4c0.2,0.2,0.4,0.3,0.2,0.7
		v1.2l-0.2,2c-0.1,0.7-0.2,1.6-0.2,2.1c-0.2,1.8-0.1,2.2-0.7,5l-0.8,5c-0.2,2.2-0.2,2.2-0.6,2.2c-0.2,0-0.3,0.1-0.3,0.2
		c0,0.2,0.1,0.2,0.2,0.2s0.3,0.1,0.3,0.2c0,0.3-0.1,1.6-0.2,1.6c-0.1,0.2-0.3,0.2-0.2-0.1c0-0.1,0-0.2-0.1-0.2s-0.2,0.2-0.2,0.3
		c-0.1,0.2,0,0.2,0.2,0.2c0.3,0,0.3,0,0,2.1c-0.3,1.6-0.3,2.1-0.2,2.1c0.3-0.2,0.5-0.9,0.7-2c0.1-0.7,0.1-1.6,0.2-2.2l0.7-5.1
		c0.2-0.8,0.3-1.9,0.3-2.1c0-0.3,0.2-0.8,0.3-1.3c0-0.5,0.1-1,0.2-1.2l0.4-2.5c0.1-0.3,0.2-0.5,0.3-0.6c0.2,0,0.2,0,0.1-0.1
		c-0.2-0.1-0.2-0.1-0.2-0.2c0.1-0.1,0.1-0.2,0.1-0.3s0-0.1,0.1-0.1v-0.3c0-0.2-0.1-0.5,0-0.7l0.4-2.3c0-0.1,0-0.2,0.1-0.3
		c0-0.4,0.2-1.9,0.1-2.6c0-0.6,0.2-1.1,0.5-1.7c0.1-0.1,0.5-0.3,1.1-0.4c1.6-0.3,2-0.4,2.3-0.6c0.3-0.1,0.6-0.3,1.1-0.2
		c0.9,0,1.1,0.1,1.6,0.5c0.3,0.3,0.4,0.4,0.5,1.4c0.1,0.8,0.3,1.1,0.1,2.1c-0.3,1-0.3,1-0.5,2.7c-0.2,1.7-0.2,1.8,0,1.9
		c0.1,0.1,0.2-0.1,0.5-0.4c0.6-0.8,2.6-3.3,3-3.5l1.1-1c0.8-0.7,2.3-1.7,3.7-2.4c0.8-0.3,0.9-0.3,2-0.4c0.8,0.1,1,0.1,1.9,0.4
		l1.6,0.5c0.7,0,2.1,0.6,2.8,0.8c0.2,0.2,0.6,0.4,0.9,0.5c0.4,0.4,0.7,0.7,0.9,1.2c0.1,0.2,0.3,0.5,0.4,0.8c0.4,0.7,0.5,2.6,0.4,3.7
		c-0.1,0.8-0.5,3.7-0.7,4.6c-0.2,0.7-0.6,4-0.7,4.6l-0.3,3.5c-0.2,0.5-0.2,0.8-0.1,0.9c0.1,0.2,0.5,0.1,1.1-1.1
		c1.9-3.8,3.6-8.1,4.8-9.7c0.3-0.5,0.8-1.3,1-1.9c1-2.1,0.8-2.3,1.2-2.8c0.3-0.3,0.7-0.9,1.1-1.3c0.5-0.7,0.9-1.2,1.4-1.3
		c0.5-0.3,0.5-0.3,1.8-0.3c0.9,0,1.6-0.1,2.2,0c0.4,0.2,1.1,0.2,1.6,0.3c0.4,0.2,1.1,0.4,1.4,0.4c0.5,0.3,0.8,0.3,1.6,0.3
		c0.9-0.1,1-0.1,1.6,0.2c0.7,0.2,1.2,0.8,1.6,1.8c0.6,1,0,3.7,0.3,5.8c0.2,1.6,0,4.1-0.1,4.2c0,0.1-0.1,0.6,0.1,1.3
		c0,0.4-0.1,1.4,0,2c-0.1,0.4-0.1,0.9-0.1,1s0,1,0.1,2c0,3,0.2,4,0.5,8c0,0.9,0.4,2.4,0.9,3.6c0.5,1.1,0.6,2,0.3,2.9
		c-0.2,1-0.4,0.6-1,1.1c-0.7,0.9-3.1,0.6-4.8,0.6c-1.1,0-2.9,1.6-4.2,1c-1.1-1.2-2.1-1.8-2.3-3.8c-0.4-4.1-0.8-5.6-1.1-8.4
		c-0.3-2.5,0-4.6-0.5-4.6c-0.6,0-0.4,0.6-0.8,1.4c-1.8,4.2-3.4,8.1-4.4,9.6c-1,1.8-2.1,3.2-2.4,3.4c-1.1,1-2.2,1.8-3,2.1
		c-0.8,0.2-3.1,0.5-3.8,0.4l-1.4-0.1c-0.5,0.1-1,0.1-1.1,0c-0.1-0.2-0.4-0.1-0.7,0.1c-0.2,0.1-0.3,0.1-1.6,0
		c-1.6-0.1-2.4-0.3-2.6-0.7l-0.7-0.4c-0.2-0.2-0.3-0.6-0.7-2.3c-0.3-0.8-0.5-3.5-0.2-6.7l0.2-2.5c0.1-0.2,0.1-0.7,0.2-1.4
		c0.1-0.6,0.2-2.2,0.4-3c0-1,0.2-2,0.3-2.3c0-0.6,0.5-3.1,0.8-4.3c0.4-1.2,0.3-1.4-0.3-1.1c-0.3,0.2-0.9,0.7-1.6,2.1
		c-0.2,0.4-0.7,1-0.8,1.4c-0.3,0.4-0.8,1-1.1,1.6c-0.2,0.5-0.6,1.1-0.8,1.3c-1.3,2.1-5.6,11.1-5.9,12.7c-0.2,1.2-1.4,3-2.7,4
		c-0.8,0.7-2.2,1.3-3.2,1.3c-0.3,0-1,0.2-1.4,0.3c-3.5,1-3.4,0.9-4,0.6C94.4,158.5,93.9,158.2,93.8,158.1z M98.3,128
		c0.1-0.2,0.2-0.6,0.3-0.9c0.3-1.2,0.8-4,0.7-4.2c-0.2-0.3-0.5-0.2-0.4,0.1l-0.4,2.5c-0.1,0.3-0.2,0.9-0.2,1.4l-0.3,1.6
		c-0.3,3.1-0.4,3.8,0.1,1.6C98.1,129.1,98.2,128.3,98.3,128z M99.1,149.3c0-0.3,0-0.5-0.1-0.6s-0.1-0.1-0.1,0.1
		c-0.1,0.3-0.2,0.4-0.2,0.4c-0.1,0-0.1-0.1-0.1-0.2c0.1-0.2,0.1-0.3,0.1-0.4s0.1-0.1,0.2-0.2c0.1-0.1,0.2-0.2,0.2-0.3
		s0.1-0.4,0.2-0.6c0.2-0.5,0.4-2.4,0.2-2.4c-0.3,0-0.6,0.9-0.6,1.9c-0.2,1.2-0.3,1.6-0.4,1.6c-0.2,0.3-0.1,0.7,0,0.7h0.2
		c0,0,0,0.2-0.1,0.5c0,0.2-0.1,0.5-0.1,0.6C98.5,150.6,99.1,149.7,99.1,149.3z M99.8,138.1c-0.1-0.1-0.1-0.2-0.2-0.2
		c-0.1,0.1-0.2,0.3-0.2,0.4c0,0.2,0,0.2,0.1,0.2C99.7,138.5,99.8,138.4,99.8,138.1z M102.3,130.1c0.2-0.4,0.2-0.7,0.1-0.7
		c-0.1,0-0.2,0.3-0.2,0.5c-0.1,0.3-0.2,0.5-0.2,0.6s0,0.1,0.1,0.1S102.3,130.4,102.3,130.1z M102.9,139.6c0.2-0.5,0.1-0.8,0-0.8
		c-0.1-0.1-0.2,0-0.1,0.2c0,0.2-0.1,0.4-0.2,0.7c-0.1,0.2-0.1,0.5,0.1,0.4C102.8,140.1,102.9,139.9,102.9,139.6z M103.9,134.9
		c0.1-1.3,0.3-2,0.5-3.5c0.2-0.7,0.2-1.4,0.3-1.6c0-0.4,0.2-1,0.2-1.6c0.4-1.8,0.9-5.4,0.9-5.4c-0.1-0.1-0.2-0.1-0.3,0
		c-0.1,0-0.2,0.2-0.2,0.8c-0.1,0.3-0.1,0.8-0.1,0.9c-0.1,0.1-0.1,0.4-0.2,0.6c0,0.3-0.1,0.6-0.1,0.6c-0.1,0.1-0.1,0.2-0.1,0.4
		c0,0.2-0.5,4.6-0.6,4.6l-0.2,1.2l-0.4,2.1c-0.3,1.3-0.3,1.6-0.1,1.6l0.3-0.2C103.6,135.5,103.8,135.2,103.9,134.9z M104.5,138.4
		c0.1-0.3,0.1-0.9,0-0.9s-0.4,0.8-0.4,1C104.1,138.8,104.3,138.6,104.5,138.4z M104.8,136.1c0.3-0.8,0.3-1.1,0.1-1.1
		c-0.2,0.1-0.6,1.6-0.4,2.3c0,0.2,0,0.2,0.1,0.1C104.7,137.1,104.7,136.6,104.8,136.1z M105.4,132.1c0.1-0.4,0.1-1,0.2-1.3
		c-0.1-0.3,0-0.7,0.1-0.9c0-0.2,0-0.3-0.1-0.3c-0.2,0-0.2,0.4-0.5,3.2c0,0.2-0.1,0.4,0,0.4C105.2,133.3,105.4,133,105.4,132.1z
		 M105.8,128.7c-0.1,0-0.2,0.1-0.2,0.2c0,0.3,0.2,0.3,0.2,0.1C105.9,128.7,105.9,128.7,105.8,128.7z M106.3,126c0-0.1,0-0.1-0.1-0.1
		c-0.1,0.1-0.2,0.1-0.2,0.2l0.1,0.1C106.2,126.1,106.2,126,106.3,126z M106.6,124.5l0.2-2.8c0.3-1.1,0.2-1.6-0.1-1.4
		c-0.4,0-0.4,0.2-0.3,0.6c0.2,0.3,0.1,1.2,0,2.8c-0.1,1-0.1,1.2,0,1.2S106.6,124.8,106.6,124.5z M110,134.5l1.9-2.8l1-1.6
		c0.1-0.2,0.3-0.3,0.5-0.3c0.1,0,0.3-0.1,0.5-0.4c0.4-0.4,0.4-0.4,0.6-0.4c0.2,0.1,0.3,0.1,1-0.6c0.2-0.4,0.6-0.7,0.7-0.7
		s0.3-0.3,0.4-0.5c0.3-0.5,0.3-0.6,0.2-1.1c0-0.4,0-0.5,0.1-0.6c0.1-0.1,0.2-0.2,0.2-0.3s0.1-0.3,0.3-0.6c0.2-0.5,0.1-0.7-0.4-0.6
		c-0.2,0.3-1.3,1.7-1.6,2.1c-0.1,0.3-0.1,0.5-0.6,0.7c-0.7,0.4-1.4,1.1-2.3,2.6c-0.2,0.5-0.9,1.6-1.8,2.6c-1.4,2.4-2.4,4.3-2.1,4.2
		C108.9,136,109.4,135.3,110,134.5z M110.3,129.2c0.4-0.8,1.6-2.3,2.4-3.4c2.4-2.7,3.2-3.8,3.3-4.1c0.1-0.1,0.3-0.5,0.5-0.6l0.5-0.5
		c0-0.2-0.4-0.2-0.7,0.1c-0.7,0.4-2.9,2.9-3.7,4.1c-0.4,0.6-1.2,1.4-1.6,2.2c-1.3,1.5-1.3,1.5-1.6,2.5c-0.1,0.6-0.1,0.8,0,0.8
		C109.4,130.3,109.9,129.9,110.3,129.2z M111.1,129.4c0-0.1-0.1,0-0.3,0.3c-0.1,0.1-0.2,0.3-0.2,0.4l0.2-0.2
		C111,129.8,111.1,129.4,111.1,129.4z M111.8,137.7c0.6-0.8,1.6-2.7,1.6-2.8c-0.1,0-2.3,3.7-2.3,3.9
		C111.1,139,111.3,138.6,111.8,137.7z M114.1,125.6c0.5-0.7,1.3-1.8,2.1-2.5c1.1-1.2,1.4-1.7,1.2-1.7c-0.5,0-3.4,3.1-4.1,4.2
		l-0.3,0.7l-0.2,0.3C112.8,127,113.2,126.6,114.1,125.6z M116.3,153.2c0.1,0,0.1-0.2,0-0.5c0-0.2,0.1-0.7,0.1-1.1
		c0-0.9,0-2.9,0.1-4.3c-0.1-1.1,0-1.2,0.2-3.2c0.1-1.8,0.2-2.5,0.5-4.2c0.3-1.1,0.3-1.9,0.6-3.7c0.1-0.4,0.2-1,0.3-1.2
		c0-0.2-0.1-0.6,0-0.9c0.1-0.6,0.3-2.1,0.5-2.7c0.1-0.3,0.1-0.6,0-0.6c0-0.2-0.1-0.1-0.3,0.1c-0.3,0.4-0.3,0.4-0.8,2.8l-1.1,7.6
		c-0.7,6.2-1,9.3-0.8,11.6c0.1,1.3,0.1,1.4,0.3,1.6l0.2,0.2v-0.6C116.1,153.4,116.2,153.2,116.3,153.2z M116.1,131
		c0.1-0.2,0-0.2-0.2,0s-0.3,0.3-0.3,0.4C115.5,131.6,115.9,131.3,116.1,131z M117.5,153.2c0-0.1,0-0.2-0.1-0.2s-0.2,0.1-0.2,0.2
		s0.1,0.1,0.2,0.1C117.5,153.3,117.5,153.3,117.5,153.2z M117.8,155.8c0.1-0.1-0.1-0.4-0.3-0.4c-0.1,0-0.1,0.4,0,0.5
		C117.6,156,117.7,156,117.8,155.8z M118.9,153.1c-0.2-0.3-0.4-0.6-0.4-0.7c-0.1-0.3-0.1-0.4-0.2-0.4c-0.2,0-0.2,0.2,0.1,1.1
		c0,1.3,0.4,2,0.7,1.6C119.2,154.5,119.1,153.5,118.9,153.1z M119.1,139.9c-0.1,0-0.1,0-0.1,0.1c0,0,0,0.1,0.1,0.1l0.1-0.2
		C119.2,139.8,119.1,139.9,119.1,139.9z M120.1,149.6c0.1-0.3,0.1-2.4,0-3.3c0-0.2,0.1-0.6,0.2-0.8c0.2-0.3,0.2-1.8,0.1-1.8
		s-0.3,1.2-0.4,2c-0.1,1.4-0.2,2.2-0.3,2.6c0,0.4,0,1.3,0.1,1.4C120,149.9,120.1,149.8,120.1,149.6z M120.7,132
		c0-0.3,0.3-1.6,0.4-2.6c0.5-2.5,0.6-3.6,0.3-3.7c0-0.1-0.1-0.1-0.2-0.1c-0.1,0.2-0.6,2.1-0.7,3.3c0.1,0.4,0,1.3-0.2,1.9
		c-0.4,2.5-0.4,2.8-0.4,3c0,0.1,0,0.2,0.1,0.2l0.2-0.2C120.5,133.5,120.6,132.9,120.7,132z M120.3,119.2c0-0.3-0.2-0.3-0.3-0.1
		s0.3,0.9,0.3,0.5C120.3,119.6,120.4,119.4,120.3,119.2z M120.7,149.5c0.1-0.4,0.2-0.9,0.1-1.3c0.1-0.4,0.3-1.4,0.2-2.5l0.9-6.2
		c0.1-0.7,0.1-1.1,0-1.1c-0.2,0-0.3,0.3-0.5,1.9c-0.5,3.4-1,7-1,9.3c0,0.5,0,0.6,0.1,0.6S120.7,149.9,120.7,149.5z M120.8,141
		c0-0.2-0.3-0.2-0.4,0c0,0.3,0.2,0.4,0.3,0.3C120.7,141.2,120.8,141.1,120.8,141z M120.9,139.3c0.2-0.5,0.3-0.9,0.3-1.1
		c-0.1-0.2-0.1-0.4,0-0.4s0.1-0.2,0.1-0.3c0-0.2,0-0.5,0.1-0.5c0.1-0.1,0.2-0.5,0.1-0.9l0.4-1.4l0.3-1.3c0.1-0.4,0.2-0.8,0.3-0.9
		c0-0.4,0.9-5.1,0.9-6v-0.6c0.1,0,0.3-1.1,0.2-1.2c0-0.1-0.1-0.1-0.2-0.1c-0.1,0-0.3,0-0.4-0.1c-0.5-0.1-0.5,0.1-0.3,2
		c0,0.6,0,1.2-0.1,2.1l-0.2,1.6c0.1,0.2,0.1,0.9-0.1,1.6c-0.1,0.8-0.3,1.4-0.4,1.6c0,0.1-0.1,0.2-0.1,0.2c-0.1,0-0.1,0.1,0,0.2
		c0,0.1-0.1,0.2-0.1,0.3c-0.1,0.1-0.1,0.2-0.1,0.3l-0.2,0.8c-0.1,0.3-0.3,0.8-0.3,1.2c0,0.3-0.2,1.2-0.3,1.9c-0.3,1.6-0.4,2-0.2,2
		C120.6,140,120.8,139.7,120.9,139.3z M120.7,140.7c0.2-0.1,0.2-0.1,0-0.1c-0.1,0-0.1,0-0.1,0.1v0.1
		C120.8,140.8,120.7,140.7,120.7,140.7z M121.7,119.5c0-0.1-0.1-0.3-0.3-0.5c-0.4-0.5-0.7-0.5-0.5-0.2l0.1,0.5
		c0.1,0.3,0.1,0.3,0.4,0.3C121.6,119.6,121.7,119.6,121.7,119.5z M122.2,137.9c0.1-0.9,0.2-1.4,0-1.4c-0.1,0.1-0.4,1.1-0.4,1.6
		C121.9,138.4,122.2,138.3,122.2,137.9z M124.7,143.9c0-0.3,0.1-0.6,0.2-0.7c0.2-0.4,0.2-1.9,0.1-1.9c-0.2,0.1-0.4,0.6-0.4,1.1
		l-0.2,2.1c-0.1,0.3,0.3,0.3,0.4,0.1C124.9,144.5,124.9,144.2,124.7,143.9z M125.2,123.9c-0.1-0.4-0.2-0.5-0.3-0.5
		c-0.1,0-0.1,0.1,0,0.5c0,0.4,0,0.6,0.1,0.6S125.2,124.3,125.2,123.9z M126.6,151.9c0.4-0.6,1-2.1,1.3-2.7c0.1-0.3,0.3-0.6,0.3-0.7
		c0.3-0.3,0.6-1.3,0.6-1.6c0,0,0.2-0.4,0.3-0.9l1.8-3.9c0-0.1,0.1-0.5,0.4-1.1c0.2-0.6,0.4-1.1,0.3-1.2c0-0.1,0.1-0.3,0.2-0.4
		s0.2-0.4,0.2-0.5s0.1-0.2,0.2-0.2c0.1-0.1,0.1-0.2,0.1-0.3s0.2-0.5,0.3-0.8c0.3-0.3,0.5-0.7,0.5-0.8c0,0,0.1-0.4,0.3-0.6l0.3-0.5
		c0-0.1,0.3-0.6,0.7-1.3c0.6-1.1,0.7-1.3,0.6-1.4c-0.2-0.2,0-0.7,0.3-0.7c0.1,0,0.2-0.1,0.2-0.2s0-0.2,0.1-0.2s0.1-0.1,0-0.1
		c-0.2-0.1-0.2-0.1-0.1-0.1c0,0,0.1-0.1,0.1-0.2c0-0.4,0.2-0.7,0.4-0.6c0.2,0,0.4-0.1,0.7-0.6c0.3-0.3,0.5-0.6,0.6-0.6
		c0.2,0,0.3-0.2,0.5-0.4c0.1-0.2,0.4-0.6,0.6-1c0.3-0.4,0.3-0.5,0.2-1.1c0-0.3,0-0.6-0.1-0.7c0,0,0-0.3-0.1-0.7s-0.1-0.5-0.2-0.5
		s-0.7,0.9-1.2,1.9c-0.2,0.3-0.3,0.6-0.4,0.6l-0.2,0.7c-0.4,0.7-0.9,1.9-1.8,3.2c-1.2,2.2-2.9,5.8-3.1,6.6l-4.8,11.8
		c-0.1,0.7-0.3,1.2-0.6,1.8c-0.3,0.4-0.3,0.9-0.2,0.9S126.4,152.1,126.6,151.9z M128.3,155.6c0.2-0.1,0.2-0.4,0-0.4
		s-0.5,0.3-0.5,0.5C127.7,155.8,127.9,155.8,128.3,155.6z M128.4,150.3V150c0-0.1,0-0.1-0.1,0s0,0.2,0,0.3S128.3,150.4,128.4,150.3z
		 M129.3,153.8c0.3-0.4,0.8-1,0.9-1.3c0.2-0.2,0.4-0.7,0.6-1c0.7-0.8,2.7-5.1,2.8-5.4c0-0.1,0-0.4,0.1-0.7s0.3-0.6,0.3-0.7
		s0-0.3,0.1-0.3c0.1-0.2,0.2-0.8,0.1-0.8c-0.1,0-0.6,1.1-0.9,1.9c-0.3,0.9-0.5,1.4-0.7,1.6c0,0.1-0.3,0.6-0.4,0.9
		c-0.1,0.4-0.4,1-0.6,1.3c-0.2,0.3-0.4,1-0.6,1.3l-1.4,2.3c-0.6,0.5-1,1.1-0.8,1.6c0,0.2,0,0.3,0.1,0.3
		C128.8,154.7,129,154.1,129.3,153.8z M135.2,134.9c0.1-0.1,0-0.2,0-0.2c-0.1,0-0.1,0.2-0.1,0.2v0.1
		C135.1,135,135.2,135,135.2,134.9z M135.6,132h-0.2c-0.1,0-0.1,0.2,0,0.1C135.5,132.1,135.6,132.1,135.6,132z M135.9,133.6
		c0-0.1-0.1,0-0.2,0c0,0.1-0.1,0.2-0.1,0.3C135.6,134.1,135.9,133.7,135.9,133.6z M137.9,122.9c0.1-0.1,0.1-0.2,0.1-0.3
		c-0.2-0.1-0.6,0.1-0.6,0.3C137.5,123.1,137.9,123.1,137.9,122.9z M141.7,122.2c0.1,0,0-0.1,0-0.2c-0.1-0.1-0.5,0.1-0.4,0.3
		C141.4,122.4,141.6,122.4,141.7,122.2z M144.1,152.2l-0.2-0.7c-0.6-2.1-1.6-8-2-10.3c0-0.7-0.1-1.6-0.2-2c-0.1-0.7-0.1-0.7-0.1,0
		c0.1,0.5,0,0.7,0,0.5c-0.2-0.3-0.3,0.9-0.2,1.6c0.2,0.3,0.1,0.5,0.1,0.5c-0.3,0-0.1,1.6,0.5,3.2c0.2,0.5,0.3,0.9,0.3,1.1
		c0,0.1,0.5,4.6,0.9,5.1c0,0.1,0.2,0.3,0.3,0.6c0.1,0.2,0.2,0.4,0.3,0.4L144.1,152.2L144.1,152.2z M144.9,146.8
		c-0.3-1.6-0.7-3-0.8-3c-0.1,0-0.1-0.1-0.1-0.2s-0.1-0.1-0.2-0.1c-0.2,0-0.4-1.8-0.2-1.8c0.1,0,0.1,0,0-0.1c-0.1,0-0.1,0,0-0.1
		c0.1-0.2,0-0.6,0-1.9c-0.1-2-0.2-2.7,0-3.5c0.1-1.6,0.2-2,0-3.4c0.1-0.8,0.1-0.9-0.1-0.9c-0.4,0.1-1,1.6-1.1,2.4
		c-0.1,1.3,0.1,5.2,0.3,6.5c0.5,3.4,1.1,5.5,1.3,5.5c0.2-0.1,0.2-0.2,0.1-0.6c-0.1-0.3-0.1-0.3,0-0.4c0.1,0,0.3,0.2,0.4,0.9
		c0.1,1,0.2,1.1,0.3,1.1S144.9,147,144.9,146.8z M142.9,123.8c0.1-0.2,0.2-0.5,0.1-0.4c-0.1-0.2-0.2,0-0.2,0.2
		c0,0.1-0.1,0.2-0.1,0.2c-0.1,0-0.1,0-0.1,0.1C142.6,124.2,142.7,124.1,142.9,123.8z M143.9,122.6c0-0.3-0.2-0.4-0.4-0.2
		c-0.3,0.2-0.1,0.5,0.2,0.4C143.9,122.8,143.9,122.7,143.9,122.6z M145.1,147.4c-0.1-0.1-0.2-0.1-0.3-0.1s-0.1,0,0,0.1
		c0.1,0,0.1,0.2,0.2,0.1C145.1,147.5,145.1,147.4,145.1,147.4z M148.5,147.4c0-0.2-0.4-0.5-0.5-0.5c-0.3-0.5-0.5-1.1-0.8-2.2
		c-0.4-1-0.5-1.9-0.4-2.1c0.1-0.1,0-0.9-0.1-0.9c-0.2,0-0.2-0.2-0.3-1c0-1,0-1.1,0.2-1.1c0.1,0.1,0.1,0,0.1-0.4
		c-0.2-0.3-0.2-0.5-0.3-0.5c-0.1,0.1-0.1-0.2,0-0.5c0.1-0.1,0.1-0.3,0.1-0.5v-3v-3.5c-0.2-0.4-0.2-1.2-0.2-1.9
		c-0.1-1.1-0.1-1.3-0.2-1.3c-0.2,0-0.3,0.1-0.3,0.2c0.2,0.9,0,5.1-0.1,6.2c0.1,0.7,0,1.6,0,1.9s-0.1,0.5-0.2,0.6
		c-0.1,0.1-0.1-0.3,0-1.3c-0.2-0.7-0.2-2.1-0.2-2.8c0-0.7,0.1-1.6,0-1.9c0.2-0.7,0.1-1.8-0.1-1.8c0,0-0.1,0-0.2,0.2
		c-0.1,0.3-0.1,2,0,2.1c0,0,0.1,0.1,0.1,0.3v0.4c0.1,0.1,0.1,0.2,0,0.2s-0.2,0.6,0,0.8c0.1,0.2,0.1,0.3,0,0.4
		c-0.1,0-0.1,0.4-0.1,0.6c0.1,0.1,0,0.3,0,0.3c-0.1,0.1-0.2,2.7-0.1,4.4c0.2,3.9,0.5,6.1,0.9,6.5l0.6,0.6c0.1,0.3,0.3,0.6,0.4,0.8
		c0,0.1,0.2,0.4,0.3,0.5c0.2,0.4,0.3,0.4,0.1-0.1c0-0.4,0-0.4,0.4,0c0.3,0.2,0.5,0.4,0.6,0.5c0,0.1,0.1,0.1,0.2,0.1
		S148.5,147.7,148.5,147.4z M145.4,137c0,0,0.1,0.2,0.1,0.6v1.3c0.1,0.4,0,0.9,0,1c0,0.2-0.1,0.3-0.2,0.1
		C145.1,139.9,145.2,136.9,145.4,137z M146.6,151.8c0-0.8-0.1-0.9-0.5-1.8c-0.3-0.7-0.5-0.9-0.5-0.5l0.2,0.9
		c0.1,0.5,0.4,1.1,0.4,1.3C146.5,152.5,146.7,152.5,146.6,151.8z M149.4,137.8c0-0.1-0.2-0.1-0.3-0.1c-0.1-0.1-0.1,0-0.1,0.1
		c0,0.3,0,0.4,0.2,0.4C149.2,138.1,149.4,138,149.4,137.8z M150.4,151.9c-0.1-0.7-0.1-0.9-0.2-0.9c-0.1-0.1-0.1,2.1,0.2,1.8
		C150.5,152.7,150.5,152.6,150.4,151.9z"/>
	<path d="M173.4,157.8l-1.6-0.5c-2.1-0.6-2.7-1.6-4.6-2.5l-2-0.9c-0.9-0.3-1.8-0.5-3-1.3c-3-2.1-3.9-5.4-4-8.9c0-1,0.1-1.2,0.2-1.4
		c0.3-0.5,0.2-1.2,0.4-1.8c2.3-6.3,6.7-13,12.8-17.3c1.4-0.7,2.9-1.6,4.8-1.4c0.9,0,0.9,0,1.9-1.3c1.1-1.2,1.8-2,2.6-2.6
		c1.9-1.1,3.8-1.9,6.4-1.4c1.4,0.2,3.3,0.2,4.6,0.8c1,0.3,0.8,0.1,2.2,0.9c0.4,0.3,0.7,0.6,0.9,1c0.6,0.9,1.6,1.2,2.4,2.3
		c0.7,0.7,1.6,1.3,2.2,1.9c0.2,0.1,1.4,1.7,1.4,1.8s0.1,0.2,0.3,0.3c1.2,2,1.4,5.1,1.4,7.5c-0.5,4.6-1,5.8-3.3,10.1
		c-2.1,3.6-5.8,8.6-9.3,10.8c-3.4,3.1-9.6,5.2-13.5,4.6C175.7,158.1,174.2,158.1,173.4,157.8z M159.4,143.4
		c-0.1-0.5,0.2-0.3,0.2-0.9c0.1-0.7,0.4-0.5,0.4-1.3c0-0.4,0.1-0.6,0.2-0.7s0-0.6-0.3-0.5c-0.4,0.1-0.7,0.9-0.8,3.1
		c-0.1,0.7,0,0.7,0.2,0.7C159.4,143.7,159.5,143.7,159.4,143.4z M159.4,146.5c0.1,0.3,0.3,0.4,0.3,0.1
		C159.7,145.6,159,145.3,159.4,146.5z M162.6,143c0,0.1,0,0.1,0.1,0c0.3-0.3,0.2-0.5,0.4-1.2c0.1-0.7,0.2-0.8,0-0.9
		c-0.1-0.2-0.1-0.3,0-0.4c0.3-0.2,0.4-1.2,0.5-1.4c2.3-4.6,6.4-9.5,9.7-12.3c0.6-0.8,2-0.9,1.8-1.8c-0.4-0.9-3.4,2.3-4,2.8
		c-1.6,1.3-3.5,3.7-4.6,5.2c-0.3,0.4-0.8,1-2.1,3.1c-0.3,0.6-0.6,1-0.7,1c0,0-0.1,0-0.1,0.1l0.1,0.1c0.2,0-0.1,0.4-0.3,0.4
		c-0.3,0.1-0.4,0.3-0.3,0.4c0.2,0.1-0.5,0-0.1,0.2c0.2,0.1,0.2,0.1,0,0.1c-0.6,0,0.5,0.2-0.1,0.2c-0.4,0,0.3,0.2,0,0.2
		c-0.2,0.1,0.2,0.6-0.2,1c-0.4,0.3-0.2,0.4-0.5,0.7c-0.1,0.1-0.2,0.3-0.2,0.4c0,0.2-0.4,0.9-0.4,1.2c0,0.1-0.1,0.2-0.1,0.3
		c-0.3,0.3-0.5,2.5-0.3,3.2c0.2,1.3,0.7,1.9,0.7,1C161.9,145.3,162.1,142.3,162.6,143z M162.5,143.6c-0.1,0.3,0.4,0.3,0.4,0.1
		C162.8,143.2,162.4,143.1,162.5,143.6z M163.6,143c0.5-2,2.5-5.6,3.9-7.6c0.8-1.1,1-1.4,0.9-1.6c-0.6,0.2-2.4,3.2-3,4
		c-0.6,1.1-1.2,1.9-1.6,2.7c-0.1,0.5-0.6,2.3-0.6,2.8C163,144.4,163.5,143.4,163.6,143z M163.9,139.6c0,0,0.1-0.1,0.1-0.2
		c0.3-0.3,0.6-1.2,0.4-1.2c-0.3,0.2-0.6,1.2-0.8,1.8c-0.4,0.8-0.1,0.7,0.2,0.1C163.9,139.8,164,139.6,163.9,139.6z M165.4,145.3
		c0-0.1,0-0.2-0.1-0.2c-0.3-0.2-0.5,2.1-0.6,2.5c-0.2,0.4,0.3,1,0.3,0.3C165.1,147.2,165.4,146.1,165.4,145.3z M166.1,141.4v-0.3
		c-0.2,0-0.1-0.3-0.2-0.3c-0.6-0.3-1.4,4.9-0.6,3C165.5,143.1,165.6,142.2,166.1,141.4z M166.6,140.4c1-1.6,1.6-2.9,3.2-5.1
		c0.9-1.3,0.2-0.8-0.2-0.1c-0.1,0.3-1.4,2-1.6,2.5c0.1,0.2-0.1,0.4-0.2,0.4c-0.1-0.1,0-0.5,0.5-1.4c0.8-1.8-1.6,1.6-1.6,2.4
		c0,0.1,0,0.3-0.1,0.3s0,0.6-0.1,0.6s-0.2,0.4-0.2,0.6C166.4,140.8,166.5,140.7,166.6,140.4z M178.1,148.4c3.2-1.9,8-6.4,9.9-10.1
		c2.5-5.3,2.9-5.7,3.7-10c0.1-0.4,0.4-3.3,0-3.5c-0.9-1.4-2.7-0.5-3.8,0.3c-3.1,2.3-4.9,5.9-6.4,9.1c-0.8,2-1.1,2.5-2.3,1.1
		c-0.2-0.3-1.1-1.2-1-1.6c0-1-0.4-0.9-1.4,0.2c-3.3,3.5-7,9.7-7.1,12c-0.1,0.8-0.4,1.6-0.6,1.8c-0.1,0.5-0.1,2.1,0.3,2.5
		c0.5,0.8,1,1.1,2.3,0.8C174.3,150.2,175.2,150.3,178.1,148.4z M170.1,141.5c0-0.2,0-0.2-0.1-0.1c0,0.2-0.3,0.4-0.3,0.6
		c0,0.1-0.1,0.3-0.2,0.4c-0.4,0.6-0.1,0.7,0.1,0.1C169.6,142.4,170.1,141.8,170.1,141.5z M170.6,140.3c0.5-1.1-0.4,0.3-0.4,0.6
		C170.2,141.5,170.6,140.5,170.6,140.3z M171,133.8c0.2-0.4,0.9-1.1,1.6-2c0.5-0.4,0.7-0.8,0.5-0.8c-0.8,0-3,3.1-2.8,3.1
		C170.3,134.3,170.6,134.2,171,133.8z M174.8,128.3c0.4-0.4,0.4-0.4,0.2-0.7c-0.1-0.2-0.1-0.2-0.4-0.1c-0.2,0-5.4,4.9-3,3.1
		C172.4,130,174,129.1,174.8,128.3z M176.1,133.1c-0.7-0.6-6.3,7.6-2.3,2.5C174.3,134.9,175.6,133.6,176.1,133.1z M181.7,154.9
		c0.8-0.3,1.8-0.7,1.6-0.8c-0.2-0.1-2.5,0.7-2.5,0.9C180.9,155.1,180.9,155.1,181.7,154.9z M181.9,120.8c0-0.1-0.4,0.2-0.4,0.4
		C181.5,121.5,182,120.9,181.9,120.8z M182.9,149.5c0.3-0.3-0.1-0.2-0.3,0C182.2,149.8,182.4,149.8,182.9,149.5z M185.2,121.3
		c0.1,0,1.9-1,2.2-1.3c0.4-0.4,0.1-0.6-0.5-0.3c-0.8,0.5-0.6-0.1-0.1-0.3c0.4-0.2,0.4-0.5,0.1-0.5s-1.1,0.3-1.3,0.5
		c-0.7,0.5-2,0.9-2.5,1.6c-1,1-0.5,1.6,0.4,0.4C184.2,120.3,184.8,119.9,185.2,121.3z M187,123l1.9-1.4c0.5-0.4,0.4-0.6-0.3-0.6
		c-0.7,0.2-1.4,0.5-2.4,1.1c-1,0.7-1.6,2.2-0.8,2.2C185.4,124.3,186.3,123.8,187,123z M185.6,143.9c3.4-2.5,4.8-5.4,6.9-9.5
		c0.2-0.1,0-0.7-0.2-0.7c-0.2-0.1,0.6-0.2,0.5-0.6c0-0.2-0.1-0.3-0.1-0.3c-0.1,0-0.1-0.1,0-0.2c0.2-0.1,0.2-0.1,0-0.1
		c-0.6,0.1-0.5,0.9-0.9,1.4c-0.2,0.3-0.9,1.8-1.2,2.1c-0.2,0.1-0.3,0.4-0.3,0.6c-0.2,0.8-1.3,2.3-1.8,3.1l-1,1.6
		c-1.6,2-2,2.4-2.1,2.6C185.3,144.2,185.3,144.2,185.6,143.9z M186.3,146.5c0-0.3-0.2-0.3-0.2,0
		C186.1,146.6,186.3,146.6,186.3,146.5z M186.8,124c0.2-0.1,1-0.9,0.4-0.5c-0.4,0.3-0.8,0.6-0.8,0.7S186.4,124.3,186.8,124z
		 M188.3,144.8c1.2-1.1,1.6-1.8,2.5-2.9c1.6-1.8,1.6-2.3,2.3-3.3c0.3-0.2,0.3-0.2,0.3,0c0.4,0.2,1.2-2.7,1.4-3.1
		c0.6-1.1,0.9-3.8-0.2-0.8c-0.8,2.4-1.1,2.9-1.4,2.9c0,0-0.2,0.2-0.3,0.4c-0.2,0.4-0.7,1-0.9,1.3c-0.4,0.9-0.7,0.8-1.4,1.8
		c-1.2,2-2.6,3.3-3.8,5C186.7,146.4,187.2,145.9,188.3,144.8z M190.1,144c1.6-1.4,2.7-3.2,2.5-3.5c-0.1,0-0.5,0.2-0.5,0.3
		c0,0.3-2.1,3.1-2.8,3.9C188.2,145.8,189.4,144.9,190.1,144z M189.8,145.2c0.7-0.7-0.6-0.2-0.6,0.2
		C189.2,145.7,189.4,145.6,189.8,145.2z M190,121.7c0.2-0.4-0.6-0.2-0.7,0.1C189.3,121.9,189.9,121.9,190,121.7z M193.3,128.4
		c-0.4,0.3-0.3,3.1-0.5,3.3c-0.2,0.1-0.1,0.3,0.1,0.1C193.3,131.7,193.7,128.6,193.3,128.4z M193,132.1c0-0.1-0.3-0.1-0.3,0
		S193,132.2,193,132.1z M193.6,136.3c0.1-0.3,0.5-1.4,0.4-1.6c0,0,0-0.1,0.1-0.1c0.3,0,0.8-1.1,1.1-2.5l0.2-0.4
		c0.1,0,0.1-0.1,0.1-0.1c-0.1-0.2,0-0.9,0.2-0.9c0.1,0.2,0.1-3.1,0-3c-0.1,0-0.3-0.6-0.4-0.6s-0.2,0.5-0.2,1.8
		c-0.1,2.3-0.5,4.6-1,5.3c-0.3,0.4-0.6,1.4-0.8,2c-0.5,1-0.5,1.1,0,0.8C193.5,136.7,193.5,136.5,193.6,136.3z M194.7,146.7
		c1.4-1.3,1.8-2.4,0.6-1.2l-1.4,1.8c0,0-0.1,0.1-0.2,0.1c-0.2,0.1-0.3,0.4-0.1,0.4C193.7,147.7,194.1,147.3,194.7,146.7z M194.4,130
		c0-0.3-0.3-0.5-0.3,0C194.1,130.4,194.4,130.3,194.4,130z M197.2,134.8c0.3-0.6,0.4-1.3,0.3-1.3s-0.2,0.2-0.2,0.5
		c-0.1,0.3-0.2,0.5-0.3,0.5c0,0-3.1,7-1.1,3.6C196.8,136.6,196.8,136.1,197.2,134.8z M196.7,128.5c0.1-0.9-0.3-0.6-0.3,0.2
		C196.4,129.3,196.8,129.2,196.7,128.5z M196.9,137.6c0-0.2-0.2-0.2-0.2,0C196.7,137.7,196.9,137.7,196.9,137.6z M197.6,130
		c0-0.6-0.2-0.9-0.4-0.4c-0.1,0.3-0.4,3.8,0.1,2.9C197.4,132.1,197.6,130.6,197.6,130z M198.1,138.8c0.8-1.6,1.1-2.9,0.9-2.9
		c-0.1,0-0.2,0.2-0.2,0.5l-1.1,2.4C196.8,140.5,197.1,140.5,198.1,138.8z M197.2,128.7c0,0.4,0.4,0.7,0.4,0.1
		C197.6,128.4,197.2,128.1,197.2,128.7z M199.2,127.9c0,0.5,0.3,0.8,0.3,0.2C199.4,127.8,199.2,127.6,199.2,127.9z M200.8,133.4
		c0.4-1.1,0.5-2.6,0.4-2.6c-0.3,0-0.7,3.1-0.8,3.2c0,0.2,0,0.2,0.1,0.2S200.7,134,200.8,133.4z"/>
	<path d="M223,157.8l-1.5-0.5c-2.1-0.6-2.7-1.6-4.6-2.5l-2-0.9c-0.9-0.3-1.8-0.5-3-1.3c-3-2.1-3.9-5.4-4-8.9c0-1,0.1-1.2,0.2-1.4
		c0.3-0.5,0.2-1.2,0.4-1.8c2.3-6.3,6.7-13,12.8-17.3c1.5-0.7,2.9-1.6,4.8-1.4c0.9,0,0.9,0,1.9-1.3c1.1-1.2,1.8-2,2.6-2.6
		c1.9-1.1,3.8-1.9,6.4-1.4c1.5,0.2,3.3,0.2,4.5,0.8c1,0.3,0.8,0.1,2.2,0.9c0.4,0.3,0.7,0.6,0.9,1c0.6,0.9,1.5,1.2,2.4,2.3
		c0.7,0.7,1.6,1.3,2.2,1.9c0.2,0.1,1.5,1.7,1.5,1.8s0.1,0.2,0.3,0.3c1.2,2,1.5,5.1,1.5,7.5c-0.5,4.6-1,5.8-3.3,10.1
		c-2.1,3.6-5.8,8.6-9.3,10.8c-3.4,3.1-9.6,5.2-13.5,4.6C225.2,158.1,223.7,158.1,223,157.8z M208.9,143.4c-0.1-0.5,0.2-0.3,0.2-0.9
		c0.1-0.7,0.4-0.5,0.4-1.3c0-0.4,0.1-0.6,0.2-0.7s0-0.6-0.3-0.5c-0.4,0.1-0.7,0.9-0.8,3.1c-0.1,0.7,0,0.7,0.2,0.7
		C208.9,143.7,209,143.7,208.9,143.4z M208.9,146.5c0.1,0.3,0.3,0.4,0.3,0.1C209.2,145.6,208.5,145.3,208.9,146.5z M212.1,143
		c0,0.1,0,0.1,0.1,0c0.3-0.3,0.2-0.5,0.4-1.2c0.1-0.7,0.2-0.8,0-0.9c-0.1-0.2-0.1-0.3,0-0.4c0.3-0.2,0.4-1.2,0.5-1.4
		c2.3-4.6,6.4-9.5,9.7-12.3c0.6-0.8,2-0.9,1.8-1.8c-0.4-0.9-3.4,2.3-4,2.8c-1.5,1.3-3.5,3.7-4.5,5.2c-0.3,0.4-0.8,1-2.1,3.1
		c-0.3,0.6-0.6,1-0.7,1c0,0-0.1,0-0.1,0.1l0.1,0.1c0.2,0-0.1,0.4-0.3,0.4c-0.3,0.1-0.4,0.3-0.3,0.4c0.2,0.1-0.5,0-0.1,0.2
		c0.2,0.1,0.2,0.1,0,0.1c-0.6,0,0.5,0.2-0.1,0.2c-0.4,0,0.3,0.2,0,0.2c-0.2,0.1,0.2,0.6-0.2,1c-0.4,0.3-0.2,0.4-0.5,0.7
		c-0.1,0.1-0.2,0.3-0.2,0.4c0,0.2-0.4,0.9-0.4,1.2c0,0.1-0.1,0.2-0.1,0.3c-0.3,0.3-0.5,2.5-0.3,3.2c0.2,1.3,0.7,1.9,0.7,1
		C211.4,145.3,211.6,142.3,212.1,143z M212,143.6c-0.1,0.3,0.4,0.3,0.4,0.1C212.3,143.2,211.9,143.1,212,143.6z M213.1,143
		c0.5-2,2.5-5.6,3.9-7.6c0.8-1.1,1-1.4,0.9-1.6c-0.6,0.2-2.4,3.2-3,4c-0.6,1.1-1.2,1.9-1.6,2.7c-0.1,0.5-0.6,2.3-0.6,2.8
		C212.5,144.4,213,143.4,213.1,143z M213.5,139.6c0,0,0.1-0.1,0.1-0.2c0.3-0.3,0.6-1.2,0.4-1.2c-0.3,0.2-0.6,1.2-0.8,1.8
		c-0.4,0.8-0.1,0.7,0.2,0.1C213.5,139.8,213.6,139.6,213.5,139.6z M214.9,145.3c0-0.1,0-0.2-0.1-0.2c-0.3-0.2-0.5,2.1-0.6,2.5
		c-0.2,0.4,0.3,1,0.3,0.3C214.6,147.2,214.9,146.1,214.9,145.3z M215.6,141.4v-0.3c-0.2,0-0.1-0.3-0.2-0.3c-0.6-0.3-1.5,4.9-0.6,3
		C215,143.1,215.1,142.2,215.6,141.4z M216.1,140.4c1-1.6,1.6-2.9,3.2-5.1c0.9-1.3,0.2-0.8-0.2-0.1c-0.1,0.3-1.5,2-1.6,2.5
		c0.1,0.2-0.1,0.4-0.2,0.4c-0.1-0.1,0-0.5,0.5-1.4c0.8-1.8-1.5,1.6-1.5,2.4c0,0.1,0,0.3-0.1,0.3s0,0.6-0.1,0.6s-0.2,0.4-0.2,0.6
		C215.9,140.8,216,140.7,216.1,140.4z M227.6,148.4c3.2-1.9,8-6.4,9.9-10.1c2.5-5.3,2.9-5.7,3.7-10c0.1-0.4,0.4-3.3,0-3.5
		c-0.9-1.4-2.7-0.5-3.8,0.3c-3.1,2.3-4.9,5.9-6.4,9.1c-0.8,2-1.1,2.5-2.3,1.1c-0.2-0.3-1.1-1.2-1-1.6c0-1-0.4-0.9-1.5,0.2
		c-3.3,3.5-7,9.7-7.1,12c-0.1,0.8-0.4,1.6-0.6,1.8c-0.1,0.5-0.1,2.1,0.3,2.5c0.5,0.8,1,1.1,2.3,0.8
		C223.8,150.2,224.7,150.3,227.6,148.4z M219.7,141.5c0-0.2,0-0.2-0.1-0.1c0,0.2-0.3,0.4-0.3,0.6c0,0.1-0.1,0.3-0.2,0.4
		c-0.4,0.6-0.1,0.7,0.1,0.1C219.1,142.4,219.7,141.8,219.7,141.5z M220.2,140.3c0.5-1.1-0.4,0.3-0.4,0.6
		C219.8,141.5,220.2,140.5,220.2,140.3z M220.5,133.8c0.2-0.4,0.9-1.1,1.6-2c0.5-0.4,0.7-0.8,0.5-0.8c-0.8,0-3,3.1-2.8,3.1
		C219.9,134.3,220.2,134.2,220.5,133.8z M224.3,128.3c0.4-0.4,0.4-0.4,0.2-0.7c-0.1-0.2-0.1-0.2-0.4-0.1c-0.2,0-5.4,4.9-3,3.1
		C221.9,130,223.5,129.1,224.3,128.3z M225.7,133.1c-0.7-0.6-6.3,7.6-2.3,2.5C223.8,134.9,225.1,133.6,225.7,133.1z M231.2,154.9
		c0.8-0.3,1.8-0.7,1.6-0.8c-0.2-0.1-2.5,0.7-2.5,0.9C230.4,155.1,230.4,155.1,231.2,154.9z M231.5,120.8c0-0.1-0.4,0.2-0.4,0.4
		C231,121.5,231.5,120.9,231.5,120.8z M232.4,149.5c0.3-0.3-0.1-0.2-0.3,0C231.8,149.8,232,149.8,232.4,149.5z M234.8,121.3
		c0.1,0,1.9-1,2.2-1.3c0.4-0.4,0.1-0.6-0.5-0.3c-0.8,0.5-0.6-0.1-0.1-0.3c0.4-0.2,0.4-0.5,0.1-0.5s-1.1,0.3-1.3,0.5
		c-0.7,0.5-2,0.9-2.5,1.6c-1,1-0.5,1.6,0.4,0.4C233.7,120.3,234.4,119.9,234.8,121.3z M236.5,123l1.9-1.4c0.5-0.4,0.4-0.6-0.3-0.6
		c-0.7,0.2-1.5,0.5-2.4,1.1c-1,0.7-1.5,2.2-0.8,2.2C235,124.3,235.8,123.8,236.5,123z M235.2,143.9c3.4-2.5,4.8-5.4,6.9-9.5
		c0.2-0.1,0-0.7-0.2-0.7c-0.2-0.1,0.6-0.2,0.5-0.6c0-0.2-0.1-0.3-0.1-0.3c-0.1,0-0.1-0.1,0-0.2c0.2-0.1,0.2-0.1,0-0.1
		c-0.6,0.1-0.5,0.9-0.9,1.4c-0.2,0.3-0.9,1.8-1.2,2.1c-0.2,0.1-0.3,0.4-0.3,0.6c-0.2,0.8-1.3,2.3-1.8,3.1l-1,1.6
		c-1.6,2-2,2.4-2.1,2.6C234.9,144.2,234.9,144.2,235.2,143.9z M235.8,146.5c0-0.3-0.2-0.3-0.2,0
		C235.6,146.6,235.8,146.6,235.8,146.5z M236.3,124c0.2-0.1,1-0.9,0.4-0.5c-0.4,0.3-0.8,0.6-0.8,0.7S235.9,124.3,236.3,124z
		 M237.9,144.8c1.2-1.1,1.6-1.8,2.5-2.9c1.5-1.8,1.6-2.3,2.3-3.3c0.3-0.2,0.3-0.2,0.3,0c0.4,0.2,1.2-2.7,1.5-3.1
		c0.6-1.1,0.9-3.8-0.2-0.8c-0.8,2.4-1.1,2.9-1.5,2.9c0,0-0.2,0.2-0.3,0.4c-0.2,0.4-0.7,1-0.9,1.3c-0.4,0.9-0.7,0.8-1.5,1.8
		c-1.2,2-2.6,3.3-3.8,5C236.2,146.4,236.7,145.9,237.9,144.8z M239.6,144c1.5-1.4,2.7-3.2,2.5-3.5c-0.1,0-0.5,0.2-0.5,0.3
		c0,0.3-2.1,3.1-2.8,3.9C237.8,145.8,238.9,144.9,239.6,144z M239.3,145.2c0.7-0.7-0.6-0.2-0.6,0.2
		C238.7,145.7,238.9,145.6,239.3,145.2z M239.5,121.7c0.2-0.4-0.6-0.2-0.7,0.1C238.8,121.9,239.4,121.9,239.5,121.7z M242.8,128.4
		c-0.4,0.3-0.3,3.1-0.5,3.3c-0.2,0.1-0.1,0.3,0.1,0.1C242.8,131.7,243.2,128.6,242.8,128.4z M242.5,132.1c0-0.1-0.3-0.1-0.3,0
		S242.5,132.2,242.5,132.1z M243.1,136.3c0.1-0.3,0.5-1.4,0.4-1.6c0,0,0-0.1,0.1-0.1c0.3,0,0.8-1.1,1.1-2.5l0.2-0.4
		c0.1,0,0.1-0.1,0.1-0.1c-0.1-0.2,0-0.9,0.2-0.9c0.1,0.2,0.1-3.1,0-3c-0.1,0-0.3-0.6-0.4-0.6s-0.2,0.5-0.2,1.8
		c-0.1,2.3-0.5,4.6-1,5.3c-0.3,0.4-0.6,1.4-0.8,2c-0.5,1-0.5,1.1,0,0.8C243,136.7,243,136.5,243.1,136.3z M244.3,146.7
		c1.5-1.3,1.8-2.4,0.6-1.2l-1.5,1.8c0,0-0.1,0.1-0.2,0.1c-0.2,0.1-0.3,0.4-0.1,0.4C243.2,147.7,243.6,147.3,244.3,146.7z M244,130
		c0-0.3-0.3-0.5-0.3,0C243.6,130.4,244,130.3,244,130z M246.8,134.8c0.3-0.6,0.4-1.3,0.3-1.3s-0.2,0.2-0.2,0.5
		c-0.1,0.3-0.2,0.5-0.3,0.5c0,0-3.1,7-1.1,3.6C246.3,136.6,246.3,136.1,246.8,134.8z M246.2,128.5c0.1-0.9-0.3-0.6-0.3,0.2
		C245.9,129.3,246.3,129.2,246.2,128.5z M246.4,137.6c0-0.2-0.2-0.2-0.2,0C246.2,137.7,246.4,137.7,246.4,137.6z M247.2,130
		c0-0.6-0.2-0.9-0.4-0.4c-0.1,0.3-0.4,3.8,0.1,2.9C247,132.1,247.2,130.6,247.2,130z M247.6,138.8c0.8-1.6,1.1-2.9,0.9-2.9
		c-0.1,0-0.2,0.2-0.2,0.5l-1.1,2.4C246.3,140.5,246.6,140.5,247.6,138.8z M246.8,128.7c0,0.4,0.4,0.7,0.4,0.1
		C247.2,128.4,246.8,128.1,246.8,128.7z M248.7,127.9c0,0.5,0.3,0.8,0.3,0.2C248.9,127.8,248.7,127.6,248.7,127.9z M250.4,133.4
		c0.4-1.1,0.5-2.6,0.4-2.6c-0.3,0-0.7,3.1-0.8,3.2c0,0.2,0,0.2,0.1,0.2S250.3,134,250.4,133.4z"/>
	<path d="M279.9,151.1l-0.1-1.4c0-1.8-0.1-3.9,0.4-8c0.2-1.4,0.3-2.5,0.9-5.8l0.7-4.1c0.2-1.2,0.1-1.6-0.1-1.8
		c-0.4-0.4-0.6-0.2-2.4,2.2c-1,1.6-2.4,3.5-2.9,4.6l-1.1,2.4c-1.6,3.4-3.6,8-4.5,11.3l-0.7,2.6c-0.6,2.3-0.8,2.6-1.3,3.3
		c-0.2,0.4-0.8,0.9-1.1,1c-0.4,0.3-0.4,0.2-1.5,0.2h-1.5c-0.2-0.1-0.5,0-1,0.3c-0.5,0.3-0.9,0.5-1.5,0.7c-0.5,0.1-1.1,0.2-1.3,0.3
		c-0.6,0.3-0.8,0.3-1.3,0.1c-0.8-0.3-0.9-0.8-1.1-2.3c-0.1-0.6-0.2-1.2-0.3-1.3v-0.7c0.1-0.4,0.1-0.7,0.1-0.8s0-0.4,0.1-0.7l0.1-2
		c0.1-0.7,0.2-2.2,0.5-3.2l1.5-10.9c0.3-2.5,0.6-5.1,0.8-6c0.2-2.1,0.5-4,0.7-7c0.2-2.2,0.2-2.5,0.5-2.9c0.3-0.7,0.8-1.2,0.9-1.2
		s0.3-0.1,0.5-0.3c0.8-0.7,1.2-0.6,1.5,0.5c0.2,0.5,0.2,1,0,3.3c-0.2,3.6-0.3,4.2-0.6,7.2c-0.2,2.1-0.2,2.6,0,2.4
		c0.1-0.2,0.9-7.6,0.8-8.1c0-0.2,0.1-0.2,0.3-0.2h0.1l-0.7,6.4c-0.1,1.9-0.2,2.6,0,2.6c0,0,0.1-0.1,0.1-0.2c0.2-1,0.6-4,0.8-6.8
		l0.2-2.8c0.2-1.8,0.2-2,0-2c-0.1,0-0.2,0.2-0.2,0.2c0,0.1-0.1,0.1-0.1,0.1h-0.2c0-0.3,0.1-1.4,0.2-1.9c0.1-0.2,0.1-0.5,0.2-0.7
		c0-0.6,0.2-0.8,1.1-1.2c0.6-0.4,1.2-0.4,1.5,0c0.1,0.1,0.3,0.3,0.4,0.3c0.1,0.1,0.2,0.1,0.3-0.1c0.1-0.2,0.3-0.4,0.5-0.6
		c0.2-0.4,1.1-0.8,1.8-0.8h0.6c0.6,0,1.3,0.3,1.5,0.8c0.3,0.2,0.3,1,0.1,3.9c-0.1,1.9-0.1,2.4,0,2.5c0.2,0,0.4-0.2,1-0.8
		c1.2-1.2,2-2,3.6-3.3c2.5-1.9,3.1-2.2,5-2.3c1-0.2,1.3-0.2,2.4,0.1c0.7,0.2,1.5,0.3,1.6,0.3c0.2,0.1,0.6,0.1,0.7,0.1h1.2
		c2.1,0,2.5,0.1,3,0.4c0.6,0.2,0.8,0.5,1.3,1.3c0.7,1.6,1.2,3,1.5,4.8c0.2,1,0.2,1.6-0.2,5.4c-0.2,0.7-0.6,3.7-0.8,4.4
		c-0.1,0.4-0.2,1.1-0.2,1.8c-0.1,0.3,0,0.7-0.1,0.9c-0.1,0.6-0.8,5.7-0.8,6.3l-0.3,4.2c0,0.4,0.1,1.6,0.2,1.8l0.1,0.7v0.4
		c0,0.1,0.2,0.9,0.7,1.1c1.1,0.4,1.8,2.5-0.6,3.4c-1.8,0.7-5.8,2.4-7.8,2.4c-1.8,0.1-3.5-0.7-3.8-1
		C280.6,155.4,280.6,154.1,279.9,151.1z M260.3,155.1v-0.8c0.1-0.2,0.1-0.3-0.1-0.2c-0.1,0-0.4,0.7-0.2,1
		C260.1,155.2,260.3,155.2,260.3,155.1z M262.6,155.6c-0.1-0.5-0.2-0.8-0.3-0.9s-0.2-0.1-0.3,0.3c-0.1,0.5-0.1,0.8,0.2,1.1
		c0.1,0.1,0.2,0.3,0.2,0.4s0.1,0.1,0.1,0.1C262.6,156.6,262.6,156.3,262.6,155.6z M263.9,149.5c0.4-0.8,0.5-0.9,0.5-1.8
		c0.1-0.7-0.1-0.7-0.4,0c0,0.2-0.3,0.8-0.4,1.3l-0.2,0.9C263.4,150.4,263.6,150.2,263.9,149.5z M263.8,137.3c0-0.2-0.2-0.2-0.2,0.1
		c0,0.2,0,0.2,0.1,0.2S263.9,137.4,263.8,137.3z M263.9,136.1c0-0.1,0-0.1-0.1-0.1c0,0-0.1,0-0.1,0.1c0.1,0.2,0.1,0.2,0.2,0.2
		C263.9,136.3,264,136.1,263.9,136.1z M264,135.5c0.2-0.2,0.2-0.5,0-0.5c-0.1,0-0.2,0.2-0.2,0.5C263.8,135.8,264,135.8,264,135.5z
		 M264.3,134.5c0.1-0.6,0.1-0.8-0.1-0.8c-0.2,0-0.3,0.5-0.3,0.8C263.9,134.8,264.2,134.8,264.3,134.5z M264.4,133.5
		c-0.1,0-0.1-0.2-0.2-0.2l-0.2,0.2c0.2,0.1,0.2,0.1,0.3,0.1C264.3,133.6,264.4,133.6,264.4,133.5z M264.8,136c0,0-0.1-0.1-0.2-0.1
		c0,0-0.1,0.1,0,0.1c0,0.1,0,0.1,0.1,0.1C264.6,136.1,264.8,136.1,264.8,136z M264.9,135.2c0.1-0.8,0.1-1.2,0-1.2s-0.2,0.5-0.3,1.3
		c0,0.2,0,0.3,0.1,0.3S264.9,135.4,264.9,135.2z M265.4,124.4c-0.1-0.5,0-1,0.3-1c0.1-0.1,0.1,0,0.1,0.3c0,0.1-0.1,0.3,0,0.5
		c0,0.2-0.1,0.3-0.2,0.3C265.4,124.5,265.4,124.4,265.4,124.4z M265.6,122.8c-0.2-0.1,0-0.1,0.1-0.2c0.1,0,0.1,0.1,0.2,0.2
		c0,0.1-0.1,0.1-0.2,0.1C265.6,123,265.6,122.9,265.6,122.8z M267.3,133.2c0-0.1-0.1-0.2-0.1-0.2c-0.1,0.1-0.1,0.2-0.1,0.3
		c0,0.2,0,0.3,0.1,0.2C267.3,133.5,267.3,133.3,267.3,133.2z M267.6,131.4c0,0,0.1-0.2,0.1-0.4c0.1-0.5,0.2-0.6,0.4-0.6
		c0.3,0.1,0.3,0.3,0.6-2.5c0.1-1.3,0.2-2.7,0.3-3.1c0.1-0.8,0.1-1.4,0.1-2.4c0-0.8,0-0.9-0.1-0.8c-0.1,0-0.3-0.1-0.4-0.2
		c-0.2-0.2-0.3-0.2-0.3-0.1c-0.3,0.1-0.5,2.2-0.6,4l-0.5,5.5c-0.1,0.8,0,1.4,0.2,0.9C267.4,131.6,267.5,131.5,267.6,131.4z
		 M268.2,132.1c0,0,0-0.1-0.1-0.1s-0.2,0.2-0.1,0.3S268.2,132.3,268.2,132.1z M270.5,140c0,0-0.1-0.1-0.2,0v0.1c0,0,0,0.1,0.1,0.1
		C270.4,140.1,270.5,140.1,270.5,140z M271.8,144.3c0.3-0.8,1-2.2,1.2-2.8l0.4-1c0-0.1,0.2-0.5,0.4-0.9c0.3-0.3,0.4-0.8,0.4-0.9
		s0.1-0.3,0.2-0.5c0.2-0.4,0.2-0.4,0-0.4c-0.6,0-3.7,7.3-3.7,8.4c0,0.1,0.1,0.1,0.2,0.1C271,146.2,271.5,145.4,271.8,144.3z
		 M271.9,135c0-0.4,0-0.4-0.2-0.1c-0.1,0.1-0.1,0.2-0.1,0.3C271.8,135.4,271.9,135.3,271.9,135z M272.9,136.4
		c0.2-0.4,0.1-0.6-0.1-0.3c-0.2,0.3-0.2,0.5-0.1,0.5C272.8,136.6,272.9,136.5,272.9,136.4z M273.2,135.4c0.1-0.2,0.1-0.3,0.1-0.3
		c-0.1,0.1-0.4,0.4-0.3,0.5C273,135.8,273.1,135.6,273.2,135.4z M274.6,130.8c0.2-0.3,0.3-0.4,0.2-0.4c0-0.1-0.2,0.1-0.3,0.4
		C274.4,131,274.4,131,274.6,130.8z M276.6,127.4c2-2.1,2.3-2.6,2-2.6c-0.2,0-3.5,3.7-4,4.8C274.1,130.3,274.8,129.6,276.6,127.4z
		 M275.7,130.4l0.2-0.5c-0.1-0.1-0.9,1-0.9,1.1C275,131.2,275.5,131,275.7,130.4z M277.4,134.1c0.4-0.6,1.9-2.8,3.6-4.8
		c1.5-2.1,1.8-2.4,1.5-2.5c-0.1-0.1-3.3,3.4-3.5,4.1c-0.1,0.2-0.6,1-1.2,1.9c-0.4,0.8-0.8,1.4-0.8,1.6
		C277,134.6,277.1,134.4,277.4,134.1z M279.1,126.6c0.6-0.7,1-1.2,0.9-1.2s-0.6,0.3-0.9,0.7c-0.4,0.5-0.9,1-1.2,1.2
		c-0.3,0.4-0.4,0.6,0,0.6C278,127.9,278.5,127.4,279.1,126.6z M283.8,148.2c-0.2-0.7-0.2-1-0.3-0.9c-0.2,0-0.2,0.3-0.1,1
		c0.1,0.8,0.1,1,0.2,1C283.8,149.2,283.8,148.9,283.8,148.2z M284.7,153.3c-0.5-2.2-0.4-2.3-0.5-2.3c-0.2-0.1-0.3,0-0.2,0.9
		c0.2,1.4,0.5,3.1,0.8,3.1v-0.4C284.8,154.5,284.7,153.8,284.7,153.3z M284.6,143.4c-0.1,0-0.2,0.1-0.2,0.2c0.1,0,0,0.2,0,0.3
		s0,0.1,0.1,0.1l0.2-0.2C284.8,143.4,284.8,143.4,284.6,143.4z M285.3,140.8c0-0.2,0.1-1.2,0.3-2.2s0.4-2,0.4-2.3l0.3-1.1
		c0.2-0.3,0.3-0.8,0.3-1.1c0-0.2,0.1-0.5,0.2-0.8c0.1-0.5,0.6-3.2,0.7-4.3c0.1-0.4,0.2-1,0.2-1.6c0.2-0.7,0.1-2.1-0.1-3l-0.1-0.4
		c0-0.1-0.1-0.1-0.2-0.1c-0.3,0-0.3,0.2-0.4,0.8l-0.1,2.1v2c0,0.7,0,1.8-0.2,2.6l-0.1,1.2c-0.2,0.4-0.3,1.3-0.4,1.9l-0.9,4.8
		c-0.4,2.2-0.4,2.1-0.2,2C285.2,141.1,285.2,140.9,285.3,140.8z M285.6,146.7c0.1-0.5,0-1-0.1-1s-0.2,0.7-0.2,1
		C285.3,147.1,285.6,147.1,285.6,146.7z M285.7,143.7v-0.4c-0.1,0-0.2,0.3-0.2,0.5C285.5,144.2,285.7,144.1,285.7,143.7z
		 M286.2,151.6l-0.1-1.4c0-0.2,0-0.3-0.1-0.3c-0.2,0.1-0.3,0.2-0.2,0.8c0.1,1,0.3,2.3,0.4,2.6c0.1,0.2,0.1,0.4,0.2,0.4
		S286.7,153.5,286.2,151.6z M286.2,142.2c0-0.2-0.1-0.2-0.1-0.2c-0.2,0-0.3,0.2-0.2,0.4C286,142.7,286.2,142.5,286.2,142.2z
		 M286.7,148.6c-0.1-0.8,0.1-3.4,0.2-4.4l0.9-4.6c0.7-2.7,1.2-6,1.2-7.2c0.1-0.5,0-0.6-0.1-0.7c-0.3-0.1-0.5-0.1-0.5,0
		s0,0.2-0.1,0.3c0,0.2,0.1,0.2,0.2,0.2c0.3,0,0.3,0.1,0.2,0.6c-0.3,1.3-0.4,1.8-0.5,1.9c-0.2,0.1-0.6,1-0.6,1.3
		c0,0.4-0.2,1.6-0.4,2.2c-0.1,0.2-0.1,0.5-0.1,0.8c0.1,0.3,0.1,0.5,0,0.5c-0.2,0.1-0.2,0.1,0,0.2c0.1,0,0.1,0.1-0.1,0.1
		c-0.2,0.1-0.4,0.2-0.4,0.5c-0.3,0.6-0.3,0.7,0.1,0.6c0.2-0.1,0.2-0.1,0.2,0.5l-0.2,1.2c-0.5,1.9-0.7,5-0.5,6
		C286.4,149.4,286.7,149.4,286.7,148.6z M288.4,154.1c0.1,0,0.1-0.2,0.1-0.7c-0.6-2.6-0.6-3.3-0.7-5.4c0-2-0.1-2.4-0.2-2.4
		c-0.1,0-0.1,0.5-0.1,3.4c0.1,3.7,0.1,4.3,0.4,4.4c0,0.1,0,0.1-0.1,0.2c-0.2,0.1-0.1,0.6,0.7,0.9
		C288.3,154.4,288.3,154.3,288.4,154.1z M287.8,145.4l0.2-1.2c0.1-0.9,0-1-0.2-1.1c-0.1,0-0.1,0.1-0.1,0.2c0,0-0.1,0.5-0.1,1.1
		c-0.1,0.9-0.1,1.2,0.1,1.2C287.7,145.6,287.8,145.5,287.8,145.4z M288,142.3v-0.3c0.2-0.2,0.2-0.2,0-0.3c0,0-0.1,0-0.2,0.1
		c0,0.1,0,0.3-0.1,0.4c0,0.2,0,0.3,0.1,0.3S288,142.4,288,142.3z M288.4,132.6c0-0.1-0.1-0.1-0.1-0.1c-0.1,0-0.1,0-0.1,0.1
		s0,0.2,0.1,0.1C288.3,132.8,288.4,132.8,288.4,132.6z M288.4,132.2v-0.1c0,0-0.1,0.1-0.1,0.2C288.5,132.3,288.4,132.4,288.4,132.2z
		 M288.4,146.5c0,0-0.1,0.2-0.1,0.4c0,0.6,0.3,0.6,0.3,0.1C288.6,146.7,288.5,146.4,288.4,146.5z M288.7,148.7
		c0-0.1-0.1-0.1-0.1-0.1c-0.1,0-0.2,0.1-0.2,0.3c0,0,0.1,0.1,0.2,0.1S288.7,148.9,288.7,148.7z M288.9,131c0-0.2,0-0.5,0.1-0.7
		c0-0.3,0-0.3-0.1,0c-0.1,0.1-0.2,0.5-0.2,0.6c0.1,0.2,0,0.3-0.1,0.3c-0.1,0.1-0.1,0.1,0,0.1C288.8,131.3,288.9,131.2,288.9,131z
		 M288.7,145.7c0.1-0.1,0.2-0.5,0.2-0.9s0.1-0.7,0.2-0.7v-0.4c0.3-0.2,2.6-11.5,2.6-13.2v-0.8c0.1-0.2,0-0.3-0.1-0.3
		c-0.1,0.1-0.1,0.6-0.3,2l-0.5,3c-0.5,1.6-1.6,6.9-1.8,8.2l-0.4,3.3C288.6,146.1,288.6,146.1,288.7,145.7z M289.6,125.5
		c0-0.8-0.1-1.3-0.4-1.6c-0.1-0.2-0.2-0.2-0.2-0.2c-0.1,0.2,0.2,2.2,0.4,2.2C289.5,125.9,289.6,125.7,289.6,125.5z M289.5,127.4
		c0,0-0.1-0.1-0.3-0.1c-0.1,0-0.1,0.1-0.1,0.2s0.1,0.1,0.1,0.1C289.4,127.6,289.5,127.5,289.5,127.4z M289.6,147.9
		c0-0.4,0-0.6-0.1-0.5c-0.2,0-0.2,0.2-0.2,0.6c0,0.5,0,0.6,0.2,0.5C289.6,148.5,289.6,148.4,289.6,147.9z M289.6,149.3
		c0-0.3,0.1-0.4,0-0.4c-0.3,0.1-0.3,0.2-0.3,0.5s0,0.5,0.2,0.4C289.6,149.8,289.6,149.6,289.6,149.3z M290.6,143.6l0.8-4.4
		c1.1-5.5,1.6-9.5,1.5-9.6c-0.2-0.1-0.3,0.1-0.3,0.7l-1,5.8l-0.5,3.2c-0.1,0.5-0.3,1.4-0.3,1.9c-0.3,1.2-0.5,2.6-0.5,2.8
		C290.3,144.2,290.5,144.1,290.6,143.6z M291.2,124.6v-1.1c-0.1-0.1-0.1-0.3,0-0.4v-0.5c-0.2-0.7-0.3-0.9-0.6-0.9
		c-0.1,0-0.1,1.6,0.2,3C291,125.6,291.2,125.6,291.2,124.6z M292.4,124.5c0-0.3-0.1-0.6-0.1-0.8c-0.3-0.8-0.5,0-0.3,0.8
		C292,125.2,292.5,125.2,292.4,124.5z M293.7,127.6c0-0.1-0.1-0.2-0.3-0.3c0-0.1,0-0.3,0.2-0.4c0.1-0.3,0.1-0.7,0-2.4
		c-0.3-1.7-0.3-2-0.5-2.2c-0.1-0.1-0.2-0.4-0.3-0.4c0,0,0,1,0.1,2.2l0.2,3.1c0,1,0,1,0.2,0.8C293.6,127.9,293.7,127.7,293.7,127.6z"
		/>
</g>
</svg>
