<?xml version="1.0" encoding="utf-8"?>
<!-- Generator: Adobe Illustrator 24.0.2, SVG Export Plug-In . SVG Version: 6.00 Build 0)  -->
<svg version="1.1" id="Layer_1" xmlns="http://www.w3.org/2000/svg" xmlns:xlink="http://www.w3.org/1999/xlink" x="0px" y="0px"
	 viewBox="0 0 907.6 254.9" style="enable-background:new 0 0 907.6 254.9;" xml:space="preserve">
<style type="text/css">
	.st0{fill:url(#SVGID_1_);}
	.st1{fill:none;stroke:#000000;stroke-width:4;stroke-miterlimit:10;}
</style>
<linearGradient id="SVGID_1_" gradientUnits="userSpaceOnUse" x1="96.8199" y1="53.7861" x2="208.6694" y2="199.5551">
	<stop  offset="0" style="stop-color:#FFE333"/>
	<stop  offset="0.1842" style="stop-color:#FFE829"/>
	<stop  offset="1" style="stop-color:#FFFF00"/>
</linearGradient>
<path class="st0" d="M231.3,168.4c23.8-42.3,19.4-76.8,3.3-104.5c1.5-10.3,5.9-12.8,1.5-19.1c-5.6-8.2-16.9-15-24.4-11.3
	c-4.3,2.1-7.8,3.1-12.4,4.1c-32.9-12-79.8-0.2-107.4,32.9C63,105.4,53.7,160.9,78.5,197.3c0.4,5,0.7,10.9,0.8,16.6
	c0.2,14.1,9.7,19.5,19.1,15.9c5.2-2,11.8-3.7,16.7-4.8C157.5,237.7,211.1,204.4,231.3,168.4z"/>
<path class="st1" d="M217.4,160.1c23.8-42.3,19.4-76.8,3.3-104.5c1.5-10.3,5.9-12.8,1.5-19.1c-5.6-8.2-16.9-15-24.4-11.3
	c-4.3,2.1-7.8,3.1-12.4,4.1c-32.9-12-79.8-0.2-107.4,32.9C49,97.1,39.7,152.6,64.4,189c0.4,5,0.7,10.9,0.8,16.6
	c0.2,14.1,9.7,19.5,19.1,15.9c5.2-2,11.8-3.7,16.7-4.8C143.6,229.4,197.2,196.1,217.4,160.1z"/>
<g>
	<path d="M295,195.1c-0.4,0-0.8,0.4-1.7,0.4c-1.1,0-3.2-0.2-3.2-0.4c-0.6-0.8-2.1-2.1-2.7-3.4c-0.8-1.3-0.8-1.3-0.6-1.9
		c0.2-0.4,0.2-0.8,0-1.5c-0.6-0.8,0.2-2.3,0.2-3.4c0-0.6-0.2-0.6-0.6-0.6c-1.7,0.2-1.7,0.2-2.7-0.6c-1.1-1.3-0.8-1.7,0.2-2.7
		c0.8-0.4,1.3-1.1,1.3-1.1c-0.2-0.4-1.1-0.6-1.9-0.4c-1.5,0.6-1.1-0.6-1.9-1.5c-0.8-1.1-0.8-1.3,0-2.1c0.4-0.8,0.6-0.8,5.5-2.1
		c0.8-0.4,1.7-0.6,1.9-0.8s0.2-1.5,0.4-2.7c0.4-10.7,1.1-20.6,2.3-31.1c2.3-21.5,6.3-43.3,10.7-64.1c1.5-8.2,2.1-9.3,4.2-19.6
		c3.4-13,3.8-7.6,10.5-10.7c1.3-0.6,1.9-0.8,2.7-0.6c0.2,0.2,0.4,0,0.6,0c1.1-0.6,2.3-1.5,4.6-1.1c2.3,0.4,2.9,0.6,2.9,1.7
		c0.2,0.8,1.1,1.9,1.5,2.7c0.8,2.9,2.3-0.4,5.5,2.3c1.7,1.1,0.6,3.4,1.9,4.6c0.6,0.8,0.6,0.8,0.4,2.3c-0.2,7.4-2.3,14.5-4,21.7
		c-6.9,25-11.1,55.3-13.5,77.8c-0.4,1.5-0.2,5.7-0.4,7.8c-0.4,2.7-0.4,2.5,6.1,1.7c13.7-2.3,42.1-1.9,54.7-0.8
		c3.6,0.2,3.8,0.2,4,1.7c0.2,1.3-0.2,1.7-0.8,1.9c-0.8,0.4-1.1,0.8-0.6,1.5c0.6,1.3,4,0,4,2.1c0.4,2.1-1.3,1.9-1.3,3.4
		c0.2,0.6,0,1.3-0.4,1.7c-0.2,0.6,0,1.1,1.1,1.1c1.3,0,1.5,0.4,2.1,3.4c0.4,2.1-0.8,0.2-0.2,5c0.2,2.9,0.2,2.9-0.4,3.4
		c-1.3,0.6-1.1,0.6-10.3,0c-10.3-0.6-12.8-0.6-23.8-0.6c-14.5-0.2-22.3,1.1-33.2,2.9c-6.3,1.1-18.3,3.8-21.9,5.3
		c-2.5,1.3-3.6,1.3-4.4,0.6C290.8,197.2,296.5,196.5,295,195.1z M288.7,178.7c2.5-0.6,3.2-1.9,1.3-1.3c-2.5,0.8-3.8,1.3-3.8,1.5
		S286.6,179.1,288.7,178.7z M296.3,167.7c-0.4-3.4,0.6-14.5,0.8-18.7c0.2-1.1-1.5-1.7-0.6-1.9c0.2,0,0.2-0.2,0-0.2s-0.4-0.4,0-5.7
		c0-1.9,0.6-2.1,0.8-4.2c0.4-3.8,0.8-6.5,0.8-10.1c-0.2-1.3,0.4-1.9,0.6-2.9c0-0.2,0-0.8,0.2-1.3c0.8-2.5,0.8-7.4,1.3-9.3
		c0.2-2.7,1.5-0.6,1.5-2.1c0-5.5,1.3-10.1,1.9-15.6c0.4-3.8,0.4-2.9,1.3-7.2c1.3-4,1.9-7.2,2.3-8.8c0.8-2.5,1.1-4,0.6-4.4
		c0-0.4-0.2-1.3-0.2-2.3c0-2.3-0.4-1.9-1.1,1.3c-0.8,4.2-2.1,6.9-2.5,11.8c-1.7,8.6-3.4,14.7-4.8,23.1c-0.8,4.6-1.5,11.6-2.1,16.6
		c-1.3,4.6-1.3,8-1.9,15.1c-0.8,7.8-1.5,14.9-1.3,22.3c-0.2,1.5,0,4.8-0.4,6.1c-0.2,1.5,1.1,3.4,2.3,1.9
		C296.3,170.9,296.5,170,296.3,167.7z M295.9,152.8c0.2,0.6-0.4,0.6-0.6,0C295.2,152.4,295.9,152.4,295.9,152.8z M296.3,176.1
		c-0.6-0.6-0.8,0.4-0.4,0.4C296.1,176.6,296.3,176.4,296.3,176.1z M299.4,184.1c0.6-0.2,1.7-0.2,2.3-0.4c0.4-0.2,2.7-0.2,2.9-0.4
		c0.6-1.1-1.3,0-1.1-0.6c0.2-0.4,0.6,0,0.4-0.6c0-0.2,0.2-0.4,0.4-0.4s0.2-0.6-0.2-0.8c-1.7-0.6-1.9,1.3-2.7,0.6
		c-0.4-0.2-2.1,0-2.5,0.4c-0.2,0.2-0.6,0.2-1.1,0.2c-1.7-0.2-0.2,2.1,0.8,1.7c1.7-0.2-1.1,0.2-0.6,0.6c0,0.2,0,0.2,0.2,0.2
		C298.6,184.4,299,184.1,299.4,184.1z M298.8,161.8l0.4-10.9c0.8-5.3,0.8-10.1,1.3-12.8c1.7-9.7,2.1-14.9,3.8-24.8
		c0-1.1,1.1-4,0.2-3.8c-0.2,0-0.4,0.4-0.6,0.8c-1.5,9.3-3.4,18.3-4.2,28.6c-0.8,5.9-1.3,12.6-1.7,18.7c-0.6,6.7-0.4,7.4,0.2,6.5
		C298.6,164.4,298.8,163.5,298.8,161.8z M300.9,183.3c-0.2,0.2-1.3,0.4-1.3,0.2C299.8,183.3,300.9,183.1,300.9,183.3z M301.7,167.9
		c-0.4,0,0-6.3,0.8-16c0.4-4.4,0.6-5.9,1.3-5.9c0.2,0,0.2-0.4,0-0.6c-0.2,0-0.2-0.2,0.2-0.4c0.4-0.6,0.4-1.7,0.4-2.7
		c0.6-3.4,1.5-10.5,1.9-13.3c0-1.1,0.2-2.9,0.8-1.7l-1.3,9c-0.2,4.6-0.8,7.4-1.1,7.4c-0.2,0-0.2,1.1,0,1.1c0.4,0.2,0.2,1.1-0.2,1.5
		c-0.2,0.6-0.4,2.7-0.2,2.7c0.2,0.2,0.2,0.2,0,0.4c-0.2,0.2-0.6,1.1-0.6,2.1c-0.2,1.1-0.2,2.1-0.4,2.3c-0.6,0.4-0.4,0.8,0,1.1
		c0.2,0.2,0,1.5-0.4,1.5c-0.4,0-0.4,1.3,0,1.5c0.2,0.2,0.2,1.3,0.4,1.5c0.2,0,0,0-0.4,0.2c-0.4,0.2-0.8,0.4-0.2,0.4
		c0.2,0,0.2,0.2,0,0.2c-0.8,0.4,0.8,0.8,0,0.8c-0.4,0-0.4,0.2,0,0.4c0.2,0,0.2,0.2-0.2,0.4s-0.4,0.8,0,0.8c0,0,0.4,0.2,0.4,0.4
		s-0.2,0.4-0.4,0.4s-0.4,0-0.4,0.2l0.2,0.2c0.4,0,0.6,0.8,0.2,0.8s-0.4,0.6-0.2,0.6s0.2,0.2,0.2,0.4c0.2,0.6,0.6,0.2,0.6,1.1
		s0.2,1.1,0.8,1.1c1.7,0.4,0.8-5.9,1.3-7.6c0.8-8,0.4-14.1,1.5-22.3c2.7-20.6,4-37.9,8.2-59.3c0.2-1.3,0.2-1.3-0.2-1.7
		c-0.4-0.4-0.4-0.4,0.6-6.1l4.2-17.2c0.6-2.3,0.8-2.5,0.2-2.7c-0.8-0.8-1.1,2.1-1.5,2.1c-2.7,4.4-6.1,24-7.2,29.4
		c-0.6,2.7-1.3,5.9-1.5,8c-0.2,0.8-0.4,1.3-0.6,0.8c-0.2,0,0-1.9,0.2-2.7c0-0.6-0.6-0.4-0.6,0.2c-0.8,4.2-1.1,6.9-1.3,10.5
		c0,0.4,0,0.4,0.2,0.2c1.1-0.6-0.8,9.9-1.3,12l-4.2,33l-2.1,22.3c-0.2,1.7,0,2.5,1.3,1.5C302.2,168.4,302.4,167.9,301.7,167.9z
		 M305.3,104.2c-0.2,0-1.1,2.5,0,1.7C305.5,105.7,305.5,104.2,305.3,104.2z M305.3,101.7c-0.4,2.5,0.4,2.1,0.6,0.2
		C306.4,99.2,305.3,99.8,305.3,101.7z M305.7,103.8c0-0.2-0.4-0.2-0.4,0C305.3,104.2,305.7,104.2,305.7,103.8z M307.6,125.7
		c0,0.2-0.6,0.2-0.6,0C307,125.5,307.6,125.5,307.6,125.7z M311,150.1c0.2-0.4,0.2-1.7,0.4-2.3c0.2-7.6,1.3-8.6,1.9-15.1
		c0-2.5,0.6-2.7,0.8-5.5l0.4-3.8c0-2.5,0.8-4.4,1.1-6.7c0-2.9,2.9-18.5,3.4-24.4c0.4-1.3,0.2-1.5,0-1.5c-0.4,0-0.6,1.7-1.1,5.3
		c-0.2,1.5-0.4,2.3-0.8,2.7c-0.4,0.6-1.1,3.6-1.3,6.1c-0.8,8.6-2.3,16.6-3.8,25c-0.4,3.4-1.5,8-1.5,10.7c0.2,1.7,0,4.6-0.4,7.6
		c-0.2,1.3-0.2,5-0.8,6.3c-0.2-0.4-0.2,6.3,0.6,4.6C310.4,158.3,310.4,150.7,311,150.1z M312.3,57.9c0.8-2.5,4-12,1.3-9.7
		c-0.2,0.8-2.1,8.8-2.1,10.1v1.3C311,60.5,311.8,59,312.3,57.9z M315,145.7c0-1.1-0.8-1.1-0.6,0C314.4,146.7,315.4,146.7,315,145.7z
		 M315.2,143.8c0-0.6,0-1.5,0.2-1.9c0.2-0.4,0-0.4-0.2-0.4c-0.4,0-0.8,2.5-0.6,2.7C314.8,144.4,315,144.2,315.2,143.8z M315.2,51.6
		c-0.2,0.6,0.4,0.8,0.6,0.4v-0.6C315.8,50.8,315.2,51.2,315.2,51.6z M316.7,129.2c0.8-3.6,1.9-13,2.5-15.1c0.2-0.2,0.6-2.1,0.8-5.5
		c1.1-7.8,7.4-35.1,6.1-40.2c-0.8-0.6-0.8,2.3-0.8,4c-0.4,3.4-1.1,8-1.9,10.7c-1.1,4.4-2.9,17.9-4.2,24.2
		c-0.8,7.2-3.4,18.1-3.6,25.4C316.3,133.5,316.7,130.1,316.7,129.2z M317.3,59c0.6-1.1,0.4,1.3-0.2,3.4c-0.2,0.8-0.4,2.7-0.8,2.1
		C316.3,64,317.1,59.2,317.3,59z M318.1,71.6c-0.4,0.8,0.2,1.1,0.4,0.4C318.6,71.4,318.4,71.2,318.1,71.6z M319.2,68.9
		c0.4-4,4-10.9,3.6-13.9c0-0.6,0.4-1.9-0.2-1.9c-0.2,0-0.4,0-0.4,0.2c-0.4,0.6-1.1-0.4-1.5,1.5c-0.2,0.8-2.3,9.9-1.1,7.4l0.4-0.8
		c0.2,0,0.4,0.6-0.2,2.9l-1.1,5.3C318.8,69.9,319,69.7,319.2,68.9z M319.6,178.5c0-0.2-0.6,0-0.6,0.2
		C319,178.9,319.8,178.7,319.6,178.5z M338.8,184.6c0.2-0.4-0.4-0.4-2.1-0.2c-3.4,0.2-10.7,0.8-12.8,0.6c-2.1,0-4.2,0.4-4.4,0.8
		c-0.2,1.1,2.3,0.2,3.6,0.2C326.8,185.6,335.4,185.4,338.8,184.6z M322.8,59.8c0.2-0.6,0.2-1.3,0.2-1.3c-0.2-0.2-0.2,0-0.4,1.5
		C322.1,62.2,322.4,61.9,322.8,59.8z M334.1,175.5c8.6-1.3,25-0.2,31.1-1.1c-0.6-0.2-2.1-1.3-2.9-1.1c-2.3-0.2-2.9-0.2-8.2-0.2
		c-7.2,0.4-21.2,0.2-27.6,1.3c-2.9,0.2-4.8,0.6-3.6,1.1l6.3-0.4C333.1,174.3,331,175.9,334.1,175.5z M324.2,61.9
		c0.8-2.3,0-2.1-0.4-0.2c-0.4,1.5-0.4,1.3-0.2,1.3S324,62.6,324.2,61.9z M328.7,56.3c0-0.2-0.4-0.2-0.4,0
		C328.2,56.7,328.7,56.7,328.7,56.3z M328.9,55c0.4-1.1-0.2-0.4-0.4,0.2C328.5,56.1,329.1,55.6,328.9,55z M368,179.1
		c0.6,0,1.1,0,1.3-0.2c0-0.4,1.1-0.2,1.1,0c0.2,0.4,1.1,0.4,1.1,0.2c0-0.2,0.6-0.4,0.6,0c0.2,0.2,3.4,0.4,3.4,0.2
		c0-0.2,0.2-0.2,0.2-0.2c0.2,0,0.4,0,0.4,0.2c-0.2,0.4,1.1,0.4,1.1,0c0-0.2-0.2-0.4-0.8-0.6c-1.5-0.2,0.8-1.5-1.9-1.5
		c-6.7-0.4-22.7-0.8-26.5-0.6c-5.9,0.6-12.6,1.5-18.1,1.5c-2.1-0.2-0.2,1.1,1.7,1.1c1.7,0.4,8.4,0.4,11.8,0c0.8-0.2,2.9-0.2,11.1,0
		c10.7,0.2,10.5,0.2,10.7-0.6c0.2-0.2,0.2,0,0.2,0.2c0,0.8,0,0.8,0.8,0.8C367.4,179.5,366.7,179.1,368,179.1z M330.1,51.2
		c0-0.4-0.4,0-0.4,0.2C329.5,51.8,330.1,51.4,330.1,51.2z M355,168.2h10.3c2.5,0.2,3.4,0.2,3.4-0.2c0-1.1-9.9-0.4-11.6-0.8
		c-6.5-0.2-19.1-0.6-23.8,0.2c0,0.2,1.1,0.4,4,0.2c3.4-0.2,3.4-0.2,4,0.4c0.4,0.4,0.4,0.4,3.4,0.4L355,168.2z M353.9,171.9
		c2.1,0,2.7-0.2,2.5-0.4c0-0.4-1.7-0.4-10.1-0.2c-6.1,0.2-7.4,0.2-7.2,0.6C339.4,172.4,352.4,171.9,353.9,171.9z M348.4,184.1
		c0.2-0.4-0.4-0.4-2.7-0.4c-6.3,0-9.3,1.3-1.7,0.8C346.1,184.6,348.4,184.4,348.4,184.1z M379.8,182.7c-8.2-1.1-17.9-1.3-24.6-1.3
		c-1.5,0-5.9-0.2-6.9,0.4c8.2,0.8,12.8,0.2,30.3,1.5c2.7,0,5.7,0.8,6.5,0.2C385.4,182.2,381.5,183.1,379.8,182.7z M366.7,174.9
		c0-0.6-1.9-0.2-0.4,0.2C366.7,175.1,366.7,175.5,366.7,174.9z M374.1,167.5c-0.8-0.2-1.3-0.2-1.1,0c0,0.2-0.8,0.2-1.1,0
		c-0.6-0.2-1.3,0.2-1.3,0.4s0.6,0.4,0.2,0.4c-0.2,0-0.4,0-0.4-0.4c-0.4-0.8-1.3,0-1.1,0.6c0.8,0.2,6.3,1.5,7.2,0.2
		C378.1,167.5,374.7,167.7,374.1,167.5z M373.5,178c0,0.4-0.6,0.4-0.6,0C372.6,177.6,373.2,177.6,373.5,178z M376.2,177.6
		c-0.4,0,0.4,0.6,0.4,0.2C376.4,177.6,376.2,177.6,376.2,177.6z M377,177.8c-0.2-0.6,0,1.1,0,0.6C377.2,178.3,377.2,178,377,177.8z"
		/>
	<path d="M429.6,179.1c0.4,2.9,1.1,4.6,1.5,5c1.7,3.4-3.6,4.8-12,5.7c-1.3,0-5.7,0.6-8.6-1.5c-1.7-1.3-4.2,3.4-6.3,0.4
		c-1.9-2.3-5.7-8-3.8-24.6l1.5-13.5c0.8-6.5,2.1-19.3,2.3-25c0.2-3.4,1.7-9.7,1.5-11.6c0.2-2.7,0.6-4.4,1.9-4.6
		c1.5-0.8,1.7-1.9,4.2-0.8c1.1,0.4,1.1,0.4,0.8,1.9c0,3.8,0.4,6.9-0.4,11.6c-0.4,2.1-0.6,6.5-0.4,6.9c0.4,0.4,0.6,0,0.6-1.1
		c0.4-4.2,1.3-7.8,1.3-11.8c0.2-1.9-0.2-7.2,1.1-7.8c0.4-0.2,0.6-0.6,0.6-0.8c0-0.6,0.8-1.7,1.3-1.7c0.2,0,0.6-0.2,1.1-0.6
		c1.3-1.3,1.7-2.3,4-0.8c0.6,0.2,1.5,0.8,1.9,1.1c1.7,1.3,1.1-2.1,3.6-2.5c1.7,0.2,1.7,2.5,1.9,4c0.4,0.8,0.6,0.2,0.4-0.8
		c-0.4-5,6.3-3.4,5.5,0.8c-0.2,1.5,0.2,5.5-0.2,7.2c-0.8,4.2-1.3,9.9-1.7,14.1c-0.4,4.8-0.8,8.6-1.7,13.5
		c-0.6,7.2-1.3,12.2-1.7,20.4l-0.4,10.7C429.2,175.9,429.2,177.4,429.6,179.1z M406.5,174.9c-0.2-4.6-0.2-4.8-0.4-4.8
		c-0.4,0-0.4,0.2-0.6,1.9c0,2.5,0.4,5.9,1.1,6.3l0.4-0.8L406.5,174.9z M423.3,93.7c-1.9-2.1-0.8-4.8-2.5-3.8
		c-1.7,0.8-2.9-1.5-5.3-4.2c-1.1-1.9-1.1-1.9-0.6-2.7c0-0.4,0.6-2.1,1.3-2.5c0.2-0.2,0.6-1.5-0.2-1.1c-0.6,0.2-0.8-0.2-0.4-0.6
		c0.4-0.4,0.4-0.6,0.4-0.6c-0.6-1.1-2.9,2.3-2.9,1.3c0-0.2-0.2-0.6-0.4-0.6c-0.6-0.4,0.6-2.1,0-2.3c-0.2-0.2-0.4,0-0.2,0.4
		c-0.2,0.8-1.5,1.7-2.1,1.5c-1.3-0.4-3.8-3.6-2.3-4.8c0.8-1.7,2.7-4.2,7.8-9.7c4.4-5,10.1-9.7,13.5-11.8c0.8,0,2.1,0.2,2.5,1.5
		c0.8,1.1,0,2.5,0.8,2.7c1.1,0.2,2.1-0.8,3.4-0.2c1.3,0.2,2.1,3.4,2.9,3.8s2.9,4,2.9,5c0.4,1.5,1.1,2.3,1.3,3.6
		c0.2,0.4,0.4,1.3,0.8,1.5c0.4,0.6,0.4,0.6,0,2.7c-0.8,1.7-0.8,1.9-2.1,3.8c-2.7,2.7-10.3,10.5-11.6,12.4c-2.1,2.9-2.7,3.6-3.8,5
		c-0.4,0.6-0.8,1.1-1.3,1.1C424.6,95.2,424.6,95.2,423.3,93.7z M411.9,142.1c0.6-3.8,0.8-6.7,0.8-8.8c0-2.3-1.1-2.9-1.7-1.1
		c-0.4,4.8,0,9-0.6,14.3c-0.4,3.4-0.6,4,0,4C410.7,151.1,410.9,147.1,411.9,142.1z M412.6,171.3l-0.2-10.5l1.1-11.4
		c0.6-6.5,0.2-7.6-0.2-7.6c-0.4,0-1.3,10.3-2.1,17.7c-0.4,2.3-0.2,4.8-0.4,5.7c-0.2,0.2,0.4,1.3,0.2,1.5c-0.2,0-0.2,1.1,0,1.1
		c0.4,0,0.2,0.8-0.2,1.1c-0.4,0.8,0.4,1.9,0.2,3.4c0.2,0.8-0.2,4.6-0.2,5c0.4,2.3,1.3,2.7,1.5,4.6c0,0.8,1.3,1.1,1.5,0.4
		C413,179.1,412.8,178,412.6,171.3z M417,172.2c-0.4-6.5-0.4-6.5-0.2-10.9l2.1-14.5c0.2-1.7,0.6-5,1.1-6.9c0.4-2.1,0.6-4.4,0.6-5
		c0.4-1.3,1.9-17,2.5-20.4c0.4-2.3,0.2-2.5-0.6-4c-0.6-0.6-0.8-0.6-1.1-0.4c-0.2,0.4-0.6,2.5-0.8,5.3c-0.2,0.6-0.2,1.7-0.4,2.3
		c-0.2,0.6-0.2,2.3-0.4,3.8l-1.3,13.3c0,0.8-0.4,2.3-0.4,3.4l-0.8,5.3c-1.1,5.9-2.9,17.5-2.9,18.7c0,0.8-0.2,1.3-0.4,1.3
		s-0.2-0.2,0-0.8c-0.2-0.6-0.2-0.8-0.4-0.8c-0.2,0-0.4,0.2-0.2,0.8c-0.4,4.4-0.4,4.6,0,4.4c0.2,0,0.2-0.2,0.2-0.4
		c0-0.4,0.2-0.6,0.2-0.6c0.4,0,1.1,2.1,0.6,2.1c-0.2,0.2-0.2,0.6,0,0.6c0.4,0,0.8,1.3,1.3,5.7c0.6,2.9,0.8,3.8,1.3,4.2
		c0.2,0.2,0.4,0.4,0.6,0.4C417.2,178.7,417.2,176.4,417,172.2z M415.3,140.8c0-0.4-0.4-0.4-0.4,0C414.9,141,415.3,141,415.3,140.8z
		 M417.8,75.8c-0.6-0.2-0.8,1.3-0.2,0.4C417.8,76,418,75.8,417.8,75.8z M421.6,79.4c-0.4,0-1.1,0.4-2.1,1.5
		c-0.6,0.6-3.6,2.7-1.5,2.5C418.7,83.2,421.8,79.4,421.6,79.4z M419.1,170.5c-0.2-2.9,1.1-14.1,1.1-19.3c0-8.2,1.3-8.4,0.8-8.4
		c-0.6,0-0.6,0.2-1.5,6.7c-2.1,17.9-1.9,23.1-1.3,23.1S418.9,172.2,419.1,170.5z M421.8,140.2c0.4-1.5-0.4-1.3,0.4-2.3
		c0.6-1.1,0.6-6.1,0-6.3c-0.4,0-0.6,3.4-1.1,5.9l-0.4,3.4C420.4,141.4,421.8,141,421.8,140.2z M423.3,181.2
		c-0.6-1.1-1.3-3.4-1.1-5.9c0.4-3.4-0.2-4.6-0.6-4.6c-0.4,0-0.6,2.5-0.4,5.7c0.2,3.4,1.3,5.3,1.7,5.3
		C423.3,181.6,423.3,181.4,423.3,181.2z M424.6,154.5l0.4-4.4c1.1-9.7,1.1-10.7,0.6-10.7c-0.2-0.8-1.5,7.4-2.5,15.4
		c-0.8,7.8-1.5,14.3-0.2,9.7C423.5,160.6,424.1,158.7,424.6,154.5z M425.2,69.7c2.1-2.1,2.5-2.5,2.3-2.5c-0.2-0.4-3.8,2.5-4,3.6
		C423.3,71.2,423.5,71,425.2,69.7z M426,138.5c0-0.4-0.6-0.4-0.6,0C425.4,138.9,426,138.9,426,138.5z M426.7,134.1
		c0.2-1.9,0.8-4.4,1.1-5.7c-0.2-0.4,0.6-1.5,0.6-1.9c0-0.4,1.3-0.4,0.4-1.1c-0.6-0.4-0.6-1.1-0.4-1.9c0.2-2.1,0.2-6.3-0.6-1.9
		c-0.6,4-1.9,10.9-2.1,13.7C425.6,137.4,426.2,136.6,426.7,134.1z M431.9,69.3c-0.2-0.6-10.1,9-4,4.4
		C430,71.8,433.2,69.3,431.9,69.3z M428.1,65.9c-1.3,0.6-0.4,1.1,0.2,0.4C429.2,65.5,429,65.5,428.1,65.9z M430.5,112.4
		c0-0.6-0.6-0.6-0.6,0.2C429.6,113.7,430.7,113.5,430.5,112.4z M431.5,63.8c-0.2,0-1.1,0.4-1.1,0.6
		C430.5,64.9,431.5,63.8,431.5,63.8z M433,62.4c0.4-1.5-0.8-0.2-1.1,0.6C431.3,64.3,433,63,433,62.4z M440.8,64.3
		c-0.2-1.3-0.8-1.9-1.5-1.3c-0.6,0.2-0.6,2.5-1.1,3.4c-0.6,0.6-0.2,1.1,0.4,0.6C439.7,65.9,441.2,66.6,440.8,64.3z"/>
	<path d="M447.7,190.7c-1.1-0.6-1.1-0.8-0.8-3.8c-0.2-2.9,0.2-5.5,0.8-9.7c1.1-6.7,1.9-11.6,1.7-13.5c0.2-1.3,0.4-2.7,0.6-3.4
		c0.4-0.6,0.8-5,0.8-6.9c0.2-0.6,0.4-2.1,0.6-4c0.8-2.7,1.3-5.9,1.5-8.8c0.4-1.7,0.8-7.4,1.7-11.4l1.1-6.7c0.2-0.4,0.2-1.3,0.2-1.5
		l0.4-4.4c0.2-2.7,1.1-4.8,1.5-4.8c0.2,0,0.4-0.2,0.6-0.6c0.2-0.4,1.5-1.3,2.5-1.9c2.3-1.3,3.4-1.7,4.2-0.8c0.4,0.4,0.8,0.6,0.4,1.5
		v2.5l-0.4,4.2c-0.2,1.5-0.4,3.4-0.4,4.4c-0.4,3.8-0.2,4.6-1.5,10.5l-1.7,10.5c-0.4,4.6-0.4,4.6-1.3,4.6c-0.4,0-0.6,0.2-0.6,0.4
		c0,0.4,0.2,0.4,0.4,0.4c0.2,0,0.6,0.2,0.6,0.4c0,0.6-0.2,3.4-0.4,3.4c-0.2,0.4-0.6,0.4-0.4-0.2c0-0.2,0-0.4-0.2-0.4
		s-0.4,0.4-0.4,0.6c-0.2,0.4,0,0.4,0.4,0.4c0.6,0,0.6,0,0,4.4c-0.6,3.4-0.6,4.4-0.4,4.4c0.6-0.4,1.1-1.9,1.5-4.2
		c0.2-1.5,0.2-3.4,0.4-4.6l1.5-10.7c0.4-1.7,0.6-4,0.6-4.4c0-0.6,0.4-1.7,0.6-2.7c0-1.1,0.2-2.1,0.4-2.5l0.8-5.3
		c0.2-0.6,0.4-1.1,0.6-1.3c0.4,0,0.4,0,0.2-0.2c-0.4-0.2-0.4-0.2-0.4-0.4c0.2-0.2,0.2-0.4,0.2-0.6s0-0.2,0.2-0.2v-0.6
		c0-0.4-0.2-1.1,0-1.5l0.8-4.8c0-0.2,0-0.4,0.2-0.6c0-0.8,0.4-4,0.2-5.5c0-1.3,0.4-2.3,1.1-3.6c0.2-0.2,1.1-0.6,2.3-0.8
		c3.4-0.6,4.2-0.8,4.8-1.3c0.6-0.2,1.3-0.6,2.3-0.4c1.9,0,2.3,0.2,3.4,1.1c0.6,0.6,0.8,0.8,1.1,2.9c0.2,1.7,0.6,2.3,0.2,4.4
		c-0.6,2.1-0.6,2.1-1.1,5.7c-0.4,3.6-0.4,3.8,0,4c0.2,0.2,0.4-0.2,1.1-0.8c1.3-1.7,5.5-6.9,6.3-7.4l2.3-2.1c1.7-1.5,4.8-3.6,7.8-5
		c1.7-0.6,1.9-0.6,4.2-0.8c1.7,0.2,2.1,0.2,4,0.8l3.4,1.1c1.5,0,4.4,1.3,5.9,1.7c0.4,0.4,1.3,0.8,1.9,1.1c0.8,0.8,1.5,1.5,1.9,2.5
		c0.2,0.4,0.6,1.1,0.8,1.7c0.8,1.5,1.1,5.5,0.8,7.8c-0.2,1.7-1.1,7.8-1.5,9.7c-0.4,1.5-1.3,8.4-1.5,9.7l-0.6,7.4
		c-0.4,1.1-0.4,1.7-0.2,1.9c0.2,0.4,1.1,0.2,2.3-2.3c4-8,7.6-17,10.1-20.4c0.6-1.1,1.7-2.7,2.1-4c2.1-4.4,1.7-4.8,2.5-5.9
		c0.6-0.6,1.5-1.9,2.3-2.7c1.1-1.5,1.9-2.5,2.9-2.7c1.1-0.6,1.1-0.6,3.8-0.6c1.9,0,3.4-0.2,4.6,0c0.8,0.4,2.3,0.4,3.4,0.6
		c0.8,0.4,2.3,0.8,2.9,0.8c1.1,0.6,1.7,0.6,3.4,0.6c1.9-0.2,2.1-0.2,3.4,0.4c1.5,0.4,2.5,1.7,3.4,3.8c1.3,2.1,0,7.8,0.6,12.2
		c0.4,3.4,0,8.6-0.2,8.8c0,0.2-0.2,1.3,0.2,2.7c0,0.8-0.2,2.9,0,4.2c-0.2,0.8-0.2,1.9-0.2,2.1c0,0.2,0,2.1,0.2,4.2
		c0,6.3,0.4,8.4,1.1,16.8c0,1.9,0.8,5,1.9,7.6c1.1,2.3,1.3,4.2,0.6,6.1c-0.4,2.1-0.8,1.3-2.1,2.3c-1.5,1.9-6.5,1.3-10.1,1.3
		c-2.3,0-6.1,3.4-8.8,2.1c-2.3-2.5-4.4-3.8-4.8-8c-0.8-8.6-1.7-11.8-2.3-17.7c-0.6-5.3,0-9.7-1.1-9.7c-1.3,0-0.8,1.3-1.7,2.9
		c-3.8,8.8-7.2,17-9.3,20.2c-2.1,3.8-4.4,6.7-5,7.2c-2.3,2.1-4.6,3.8-6.3,4.4c-1.7,0.4-6.5,1.1-8,0.8l-2.9-0.2
		c-1.1,0.2-2.1,0.2-2.3,0c-0.2-0.4-0.8-0.2-1.5,0.2c-0.4,0.2-0.6,0.2-3.4,0c-3.4-0.2-5-0.6-5.5-1.5l-1.5-0.8
		c-0.4-0.4-0.6-1.3-1.5-4.8c-0.6-1.7-1.1-7.4-0.4-14.1l0.4-5.3c0.2-0.4,0.2-1.5,0.4-2.9c0.2-1.3,0.4-4.6,0.8-6.3
		c0-2.1,0.4-4.2,0.6-4.8c0-1.3,1.1-6.5,1.7-9c0.8-2.5,0.6-2.9-0.6-2.3c-0.6,0.4-1.9,1.5-3.4,4.4c-0.4,0.8-1.5,2.1-1.7,2.9
		c-0.6,0.8-1.7,2.1-2.3,3.4c-0.4,1.1-1.3,2.3-1.7,2.7c-2.7,4.4-11.8,23.3-12.4,26.7c-0.4,2.5-2.9,6.3-5.7,8.4
		c-1.7,1.5-4.6,2.7-6.7,2.7c-0.6,0-2.1,0.4-2.9,0.6c-7.4,2.1-7.2,1.9-8.4,1.3C449,191.5,447.9,190.9,447.7,190.7z M457.2,127.4
		c0.2-0.4,0.4-1.3,0.6-1.9c0.6-2.5,1.7-8.4,1.5-8.8c-0.4-0.6-1.1-0.4-0.8,0.2l-0.8,5.3c-0.2,0.6-0.4,1.9-0.4,2.9l-0.6,3.4
		c-0.6,6.5-0.8,8,0.2,3.4C456.7,129.7,457,128,457.2,127.4z M458.8,172.2c0-0.6,0-1.1-0.2-1.3c-0.2-0.2-0.2-0.2-0.2,0.2
		c-0.2,0.6-0.4,0.8-0.4,0.8c-0.2,0-0.2-0.2-0.2-0.4c0.2-0.4,0.2-0.6,0.2-0.8s0.2-0.2,0.4-0.4c0.2-0.2,0.4-0.4,0.4-0.6
		c0-0.2,0.2-0.8,0.4-1.3c0.4-1.1,0.8-5,0.4-5c-0.6,0-1.3,1.9-1.3,4c-0.4,2.5-0.6,3.4-0.8,3.4c-0.4,0.6-0.2,1.5,0,1.5h0.4
		c0,0,0,0.4-0.2,1.1c0,0.4-0.2,1.1-0.2,1.3C457.6,174.9,458.8,173,458.8,172.2z M460.3,148.6c-0.2-0.2-0.2-0.4-0.4-0.4
		c-0.2,0.2-0.4,0.6-0.4,0.8c0,0.4,0,0.4,0.2,0.4C460.1,149.4,460.3,149.2,460.3,148.6z M465.6,131.8c0.4-0.8,0.4-1.5,0.2-1.5
		s-0.4,0.6-0.4,1.1c-0.2,0.6-0.4,1.1-0.4,1.3s0,0.2,0.2,0.2C465.4,132.8,465.6,132.4,465.6,131.8z M466.8,151.8
		c0.4-1.1,0.2-1.7,0-1.7c-0.2-0.2-0.4,0-0.2,0.4c0,0.4-0.2,0.8-0.4,1.5c-0.2,0.4-0.2,1.1,0.2,0.8
		C466.6,152.8,466.8,152.4,466.8,151.8z M468.9,141.9c0.2-2.7,0.6-4.2,1.1-7.4c0.4-1.5,0.4-2.9,0.6-3.4c0-0.8,0.4-2.1,0.4-3.4
		c0.8-3.8,1.9-11.4,1.9-11.4c-0.2-0.2-0.4-0.2-0.6,0c-0.2,0-0.4,0.4-0.4,1.7c-0.2,0.6-0.2,1.7-0.2,1.9c-0.2,0.2-0.2,0.8-0.4,1.3
		c0,0.6-0.2,1.3-0.2,1.3c-0.2,0.2-0.2,0.4-0.2,0.8c0,0.4-1.1,9.7-1.3,9.7l-0.4,2.5l-0.8,4.4c-0.6,2.7-0.6,3.4-0.2,3.4l0.6-0.4
		C468.3,143.1,468.7,142.5,468.9,141.9z M470.2,149.2c0.2-0.6,0.2-1.9,0-1.9s-0.8,1.7-0.8,2.1C469.4,150.1,469.8,149.6,470.2,149.2z
		 M470.8,144.4c0.6-1.7,0.6-2.3,0.2-2.3c-0.4,0.2-1.3,3.4-0.8,4.8c0,0.4,0,0.4,0.2,0.2C470.6,146.5,470.6,145.4,470.8,144.4z
		 M472.1,136c0.2-0.8,0.2-2.1,0.4-2.7c-0.2-0.6,0-1.5,0.2-1.9c0-0.4,0-0.6-0.2-0.6c-0.4,0-0.4,0.8-1.1,6.7c0,0.4-0.2,0.8,0,0.8
		C471.7,138.5,472.1,137.9,472.1,136z M472.9,128.8c-0.2,0-0.4,0.2-0.4,0.4c0,0.6,0.4,0.6,0.4,0.2
		C473.2,128.8,473.2,128.8,472.9,128.8z M474,123.1c0-0.2,0-0.2-0.2-0.2c-0.2,0.2-0.4,0.2-0.4,0.4l0.2,0.2
		C473.8,123.4,473.8,123.1,474,123.1z M474.6,120l0.4-5.9c0.6-2.3,0.4-3.4-0.2-2.9c-0.8,0-0.8,0.4-0.6,1.3c0.4,0.6,0.2,2.5,0,5.9
		c-0.2,2.1-0.2,2.5,0,2.5C474.4,120.8,474.6,120.6,474.6,120z M481.8,141l4-5.9l2.1-3.4c0.2-0.4,0.6-0.6,1.1-0.6
		c0.2,0,0.6-0.2,1.1-0.8c0.8-0.8,0.8-0.8,1.3-0.8c0.4,0.2,0.6,0.2,2.1-1.3c0.4-0.8,1.3-1.5,1.5-1.5c0.2,0,0.6-0.6,0.8-1.1
		c0.6-1.1,0.6-1.3,0.4-2.3c0-0.8,0-1.1,0.2-1.3c0.2-0.2,0.4-0.4,0.4-0.6c0-0.2,0.2-0.6,0.6-1.3c0.4-1.1,0.2-1.5-0.8-1.3
		c-0.4,0.6-2.7,3.6-3.4,4.4c-0.2,0.6-0.2,1.1-1.3,1.5c-1.5,0.8-2.9,2.3-4.8,5.5c-0.4,1.1-1.9,3.4-3.8,5.5c-2.9,5-5,9-4.4,8.8
		C479.5,144.2,480.5,142.7,481.8,141z M482.4,129.9c0.8-1.7,3.4-4.8,5-7.2c5-5.7,6.7-8,6.9-8.6c0.2-0.2,0.6-1.1,1.1-1.3l1.1-1.1
		c0-0.4-0.8-0.4-1.5,0.2c-1.5,0.8-6.1,6.1-7.8,8.6c-0.8,1.3-2.5,2.9-3.4,4.6c-2.7,3.2-2.7,3.2-3.4,5.3c-0.2,1.3-0.2,1.7,0,1.7
		C480.5,132.2,481.6,131.4,482.4,129.9z M484.1,130.3c0-0.2-0.2,0-0.6,0.6c-0.2,0.2-0.4,0.6-0.4,0.8l0.4-0.4
		C483.9,131.1,484.1,130.3,484.1,130.3z M485.6,147.8c1.3-1.7,3.4-5.7,3.4-5.9c-0.2,0-4.8,7.8-4.8,8.2
		C484.1,150.5,484.5,149.6,485.6,147.8z M490.4,122.3c1.1-1.5,2.7-3.8,4.4-5.3c2.3-2.5,2.9-3.6,2.5-3.6c-1.1,0-7.2,6.5-8.6,8.8
		l-0.6,1.5l-0.4,0.6C487.7,125.3,488.5,124.4,490.4,122.3z M495,180.4c0.2,0,0.2-0.4,0-1.1c0-0.4,0.2-1.5,0.2-2.3c0-1.9,0-6.1,0.2-9
		c-0.2-2.3,0-2.5,0.4-6.7c0.2-3.8,0.4-5.3,1.1-8.8c0.6-2.3,0.6-4,1.3-7.8c0.2-0.8,0.4-2.1,0.6-2.5c0-0.4-0.2-1.3,0-1.9
		c0.2-1.3,0.6-4.4,1.1-5.7c0.2-0.6,0.2-1.3,0-1.3c0-0.4-0.2-0.2-0.6,0.2c-0.6,0.8-0.6,0.8-1.7,5.9l-2.3,16
		c-1.5,13-2.1,19.6-1.7,24.4c0.2,2.7,0.2,2.9,0.6,3.4l0.4,0.4v-1.3C494.6,180.8,494.8,180.4,495,180.4z M494.6,133.7
		c0.2-0.4,0-0.4-0.4,0c-0.4,0.4-0.6,0.6-0.6,0.8C493.3,134.9,494.2,134.3,494.6,133.7z M497.5,180.4c0-0.2,0-0.4-0.2-0.4
		s-0.4,0.2-0.4,0.4c0,0.2,0.2,0.2,0.4,0.2S497.5,180.6,497.5,180.4z M498.2,185.8c0.2-0.2-0.2-0.8-0.6-0.8c-0.2,0-0.2,0.8,0,1.1
		C497.8,186.2,498,186.2,498.2,185.8z M500.5,180.1c-0.4-0.6-0.8-1.3-0.8-1.5c-0.2-0.6-0.2-0.8-0.4-0.8c-0.4,0-0.4,0.4,0.2,2.3
		c0,2.7,0.8,4.2,1.5,3.4C501.1,183.1,500.9,181,500.5,180.1z M500.9,152.4c-0.2,0-0.2,0-0.2,0.2c0,0,0,0.2,0.2,0.2l0.2-0.4
		C501.1,152.2,500.9,152.4,500.9,152.4z M503,172.8c0.2-0.6,0.2-5,0-6.9c0-0.4,0.2-1.3,0.4-1.7c0.4-0.6,0.4-3.8,0.2-3.8
		c-0.2,0-0.6,2.5-0.8,4.2c-0.2,2.9-0.4,4.6-0.6,5.5c0,0.8,0,2.7,0.2,2.9C502.8,173.4,503,173.2,503,172.8z M504.3,135.8
		c0-0.6,0.6-3.4,0.8-5.5c1.1-5.3,1.3-7.6,0.6-7.8c0-0.2-0.2-0.2-0.4-0.2c-0.2,0.4-1.3,4.4-1.5,6.9c0.2,0.8,0,2.7-0.4,4
		c-0.8,5.3-0.8,5.9-0.8,6.3c0,0.2,0,0.4,0.2,0.4l0.4-0.4C503.9,138.9,504.1,137.7,504.3,135.8z M503.4,108.8c0-0.6-0.4-0.6-0.6-0.2
		c-0.2,0.4,0.6,1.9,0.6,1.1C503.4,109.7,503.6,109.3,503.4,108.8z M504.3,172.6c0.2-0.8,0.4-1.9,0.2-2.7c0.2-0.8,0.6-2.9,0.4-5.3
		l1.9-13c0.2-1.5,0.2-2.3,0-2.3c-0.4,0-0.6,0.6-1.1,4c-1.1,7.2-2.1,14.7-2.1,19.6c0,1.1,0,1.3,0.2,1.3
		C504.1,174,504.3,173.4,504.3,172.6z M504.5,154.7c0-0.4-0.6-0.4-0.8,0c0,0.6,0.4,0.8,0.6,0.6C504.3,155.1,504.5,154.9,504.5,154.7
		z M504.7,151.1c0.4-1.1,0.6-1.9,0.6-2.3c-0.2-0.4-0.2-0.8,0-0.8c0.2,0,0.2-0.4,0.2-0.6c0-0.4,0-1.1,0.2-1.1
		c0.2-0.2,0.4-1.1,0.2-1.9l0.8-2.9l0.6-2.7c0.2-0.8,0.4-1.7,0.6-1.9c0-0.8,1.9-10.7,1.9-12.6v-1.3c0.2,0,0.6-2.3,0.4-2.5
		c0-0.2-0.2-0.2-0.4-0.2c-0.2,0-0.6,0-0.8-0.2c-1.1-0.2-1.1,0.2-0.6,4.2c0,1.3,0,2.5-0.2,4.4l-0.4,3.4c0.2,0.4,0.2,1.9-0.2,3.4
		c-0.2,1.7-0.6,2.9-0.8,3.4c0,0.2-0.2,0.4-0.2,0.4c-0.2,0-0.2,0.2,0,0.4c0,0.2-0.2,0.4-0.2,0.6c-0.2,0.2-0.2,0.4-0.2,0.6l-0.4,1.7
		c-0.2,0.6-0.6,1.7-0.6,2.5c0,0.6-0.4,2.5-0.6,4c-0.6,3.4-0.8,4.2-0.4,4.2C504.1,152.6,504.5,152,504.7,151.1z M504.3,154.1
		c0.4-0.2,0.4-0.2,0-0.2c-0.2,0-0.2,0-0.2,0.2v0.2C504.5,154.3,504.3,154.1,504.3,154.1z M506.4,109.5c0-0.2-0.2-0.6-0.6-1.1
		c-0.8-1.1-1.5-1.1-1.1-0.4l0.2,1.1c0.2,0.6,0.2,0.6,0.8,0.6C506.2,109.7,506.4,109.7,506.4,109.5z M507.4,148.2
		c0.2-1.9,0.4-2.9,0-2.9c-0.2,0.2-0.8,2.3-0.8,3.4C506.8,149.2,507.4,149,507.4,148.2z M512.7,160.8c0-0.6,0.2-1.3,0.4-1.5
		c0.4-0.8,0.4-4,0.2-4c-0.4,0.2-0.8,1.3-0.8,2.3l-0.4,4.4c-0.2,0.6,0.6,0.6,0.8,0.2C513.1,162.1,513.1,161.4,512.7,160.8z
		 M513.7,118.7c-0.2-0.8-0.4-1.1-0.6-1.1s-0.2,0.2,0,1.1c0,0.8,0,1.3,0.2,1.3S513.7,119.6,513.7,118.7z M516.7,177.6
		c0.8-1.3,2.1-4.4,2.7-5.7c0.2-0.6,0.6-1.3,0.6-1.5c0.6-0.6,1.3-2.7,1.3-3.4c0,0,0.4-0.8,0.6-1.9l3.8-8.2c0-0.2,0.2-1.1,0.8-2.3
		c0.4-1.3,0.8-2.3,0.6-2.5c0-0.2,0.2-0.6,0.4-0.8c0.2-0.2,0.4-0.8,0.4-1.1s0.2-0.4,0.4-0.4c0.2-0.2,0.2-0.4,0.2-0.6
		c0-0.2,0.4-1.1,0.6-1.7c0.6-0.6,1.1-1.5,1.1-1.7c0,0,0.2-0.8,0.6-1.3l0.6-1.1c0-0.2,0.6-1.3,1.5-2.7c1.3-2.3,1.5-2.7,1.3-2.9
		c-0.4-0.4,0-1.5,0.6-1.5c0.2,0,0.4-0.2,0.4-0.4c0-0.2,0-0.4,0.2-0.4c0.2,0,0.2-0.2,0-0.2c-0.4-0.2-0.4-0.2-0.2-0.2
		c0,0,0.2-0.2,0.2-0.4c0-0.8,0.4-1.5,0.8-1.3c0.4,0,0.8-0.2,1.5-1.3c0.6-0.6,1.1-1.3,1.3-1.3c0.4,0,0.6-0.4,1.1-0.8
		c0.2-0.4,0.8-1.3,1.3-2.1c0.6-0.8,0.6-1.1,0.4-2.3c0-0.6,0-1.3-0.2-1.5c0,0,0-0.6-0.2-1.5c-0.2-0.8-0.2-1.1-0.4-1.1
		c-0.2,0-1.5,1.9-2.5,4c-0.4,0.6-0.6,1.3-0.8,1.3l-0.4,1.5c-0.8,1.5-1.9,4-3.8,6.7c-2.5,4.6-6.1,12.2-6.5,13.9l-10.1,24.8
		c-0.2,1.5-0.6,2.5-1.3,3.8c-0.6,0.8-0.6,1.9-0.4,1.9S516.3,178,516.7,177.6z M520.3,185.4c0.4-0.2,0.4-0.8,0-0.8
		c-0.4,0-1.1,0.6-1.1,1.1C519,185.8,519.4,185.8,520.3,185.4z M520.5,174.3v-0.6c0-0.2,0-0.2-0.2,0c-0.2,0.2,0,0.4,0,0.6
		C520.3,174.5,520.3,174.5,520.5,174.3z M522.4,181.6c0.6-0.8,1.7-2.1,1.9-2.7c0.4-0.4,0.8-1.5,1.3-2.1c1.5-1.7,5.7-10.7,5.9-11.4
		c0-0.2,0-0.8,0.2-1.5s0.6-1.3,0.6-1.5c0-0.2,0-0.6,0.2-0.6c0.2-0.4,0.4-1.7,0.2-1.7s-1.3,2.3-1.9,4c-0.6,1.9-1.1,2.9-1.5,3.4
		c0,0.2-0.6,1.3-0.8,1.9c-0.2,0.8-0.8,2.1-1.3,2.7c-0.4,0.6-0.8,2.1-1.3,2.7l-2.9,4.8c-1.3,1.1-2.1,2.3-1.7,3.4c0,0.4,0,0.6,0.2,0.6
		C521.3,183.5,521.7,182.2,522.4,181.6z M534.8,141.9c0.2-0.2,0-0.4,0-0.4c-0.2,0-0.2,0.4-0.2,0.4v0.2
		C534.6,142.1,534.8,142.1,534.8,141.9z M535.6,135.8h-0.4c-0.2,0-0.2,0.4,0,0.2C535.4,136,535.6,136,535.6,135.8z M536.2,139.1
		c0-0.2-0.2,0-0.4,0c0,0.2-0.2,0.4-0.2,0.6C535.6,140.2,536.2,139.3,536.2,139.1z M540.5,116.6c0.2-0.2,0.2-0.4,0.2-0.6
		c-0.4-0.2-1.3,0.2-1.3,0.6C539.6,117,540.5,117,540.5,116.6z M548.4,115.2c0.2,0,0-0.2,0-0.4c-0.2-0.2-1.1,0.2-0.8,0.6
		C547.8,115.6,548.2,115.6,548.4,115.2z M553.5,178.3l-0.4-1.5c-1.3-4.4-3.4-16.8-4.2-21.7c0-1.5-0.2-3.4-0.4-4.2
		c-0.2-1.5-0.2-1.5-0.2,0c0.2,1.1,0,1.5,0,1.1c-0.4-0.6-0.6,1.9-0.4,3.4c0.4,0.6,0.2,1.1,0.2,1.1c-0.6,0-0.2,3.4,1.1,6.7
		c0.4,1.1,0.6,1.9,0.6,2.3c0,0.2,1.1,9.7,1.9,10.7c0,0.2,0.4,0.6,0.6,1.3c0.2,0.4,0.4,0.8,0.6,0.8L553.5,178.3L553.5,178.3z
		 M555.2,166.9c-0.6-3.4-1.5-6.3-1.7-6.3c-0.2,0-0.2-0.2-0.2-0.4c0-0.2-0.2-0.2-0.4-0.2c-0.4,0-0.8-3.8-0.4-3.8c0.2,0,0.2,0,0-0.2
		c-0.2,0-0.2,0,0-0.2c0.2-0.4,0-1.3,0-4c-0.2-4.2-0.4-5.7,0-7.4c0.2-3.4,0.4-4.2,0-7.2c0.2-1.7,0.2-1.9-0.2-1.9
		c-0.8,0.2-2.1,3.4-2.3,5c-0.2,2.7,0.2,10.9,0.6,13.7c1.1,7.2,2.3,11.6,2.7,11.6c0.4-0.2,0.4-0.4,0.2-1.3c-0.2-0.6-0.2-0.6,0-0.8
		c0.2,0,0.6,0.4,0.8,1.9c0.2,2.1,0.4,2.3,0.6,2.3S555.2,167.3,555.2,166.9z M551,118.5c0.2-0.4,0.4-1.1,0.2-0.8
		c-0.2-0.4-0.4,0-0.4,0.4c0,0.2-0.2,0.4-0.2,0.4c-0.2,0-0.2,0-0.2,0.2C550.3,119.4,550.5,119.2,551,118.5z M553.1,116
		c0-0.6-0.4-0.8-0.8-0.4c-0.6,0.4-0.2,1.1,0.4,0.8C553.1,116.4,553.1,116.2,553.1,116z M555.6,168.2c-0.2-0.2-0.4-0.2-0.6-0.2
		s-0.2,0,0,0.2c0.2,0,0.2,0.4,0.4,0.2C555.6,168.4,555.6,168.2,555.6,168.2z M562.7,168.2c0-0.4-0.8-1.1-1.1-1.1
		c-0.6-1.1-1.1-2.3-1.7-4.6c-0.8-2.1-1.1-4-0.8-4.4c0.2-0.2,0-1.9-0.2-1.9c-0.4,0-0.4-0.4-0.6-2.1c0-2.1,0-2.3,0.4-2.3
		c0.2,0.2,0.2,0,0.2-0.8c-0.4-0.6-0.4-1.1-0.6-1.1c-0.2,0.2-0.2-0.4,0-1.1c0.2-0.2,0.2-0.6,0.2-1.1v-6.3v-7.4
		c-0.4-0.8-0.4-2.5-0.4-4c-0.2-2.3-0.2-2.7-0.4-2.7c-0.4,0-0.6,0.2-0.6,0.4c0.4,1.9,0,10.7-0.2,13c0.2,1.5,0,3.4,0,4
		s-0.2,1.1-0.4,1.3c-0.2,0.2-0.2-0.6,0-2.7c-0.4-1.5-0.4-4.4-0.4-5.9c0-1.5,0.2-3.4,0-4c0.4-1.5,0.2-3.8-0.2-3.8c0,0-0.2,0-0.4,0.4
		c-0.2,0.6-0.2,4.2,0,4.4c0,0,0.2,0.2,0.2,0.6v0.8c0.2,0.2,0.2,0.4,0,0.4s-0.4,1.3,0,1.7c0.2,0.4,0.2,0.6,0,0.8
		c-0.2,0-0.2,0.8-0.2,1.3c0.2,0.2,0,0.6,0,0.6c-0.2,0.2-0.4,5.7-0.2,9.3c0.4,8.2,1.1,12.8,1.9,13.7l1.3,1.3c0.2,0.6,0.6,1.3,0.8,1.7
		c0,0.2,0.4,0.8,0.6,1.1c0.4,0.8,0.6,0.8,0.2-0.2c0-0.8,0-0.8,0.8,0c0.6,0.4,1.1,0.8,1.3,1.1c0,0.2,0.2,0.2,0.4,0.2
		C562.7,168.8,562.7,168.8,562.7,168.2z M556.2,146.3c0,0,0.2,0.4,0.2,1.3v2.7c0.2,0.8,0,1.9,0,2.1c0,0.4-0.2,0.6-0.4,0.2
		C555.6,152.4,555.8,146.1,556.2,146.3z M558.8,177.4c0-1.7-0.2-1.9-1.1-3.8c-0.6-1.5-1.1-1.9-1.1-1.1l0.4,1.9
		c0.2,1.1,0.8,2.3,0.8,2.7C558.5,178.9,559,178.9,558.8,177.4z M564.6,148c0-0.2-0.4-0.2-0.6-0.2c-0.2-0.2-0.2,0-0.2,0.2
		c0,0.6,0,0.8,0.4,0.8C564.2,148.6,564.6,148.4,564.6,148z M566.7,177.6c-0.2-1.5-0.2-1.9-0.4-1.9c-0.2-0.2-0.2,4.4,0.4,3.8
		C567,179.3,567,179.1,566.7,177.6z"/>
	<path d="M615.1,190l-3.4-1.1c-4.4-1.3-5.7-3.4-9.7-5.3l-4.2-1.9c-1.9-0.6-3.8-1.1-6.3-2.7c-6.3-4.4-8.2-11.4-8.4-18.7
		c0-2.1,0.2-2.5,0.4-2.9c0.6-1.1,0.4-2.5,0.8-3.8c4.8-13.3,14.1-27.3,26.9-36.4c2.9-1.5,6.1-3.4,10.1-2.9c1.9,0,1.9,0,4-2.7
		c2.3-2.5,3.8-4.2,5.5-5.5c4-2.3,8-4,13.5-2.9c2.9,0.4,6.9,0.4,9.7,1.7c2.1,0.6,1.7,0.2,4.6,1.9c0.8,0.6,1.5,1.3,1.9,2.1
		c1.3,1.9,3.4,2.5,5,4.8c1.5,1.5,3.4,2.7,4.6,4c0.4,0.2,2.9,3.6,2.9,3.8c0,0.2,0.2,0.4,0.6,0.6c2.5,4.2,2.9,10.7,2.9,15.8
		c-1.1,9.7-2.1,12.2-6.9,21.2c-4.4,7.6-12.2,18.1-19.6,22.7c-7.2,6.5-20.2,10.9-28.4,9.7C620,190.7,616.8,190.7,615.1,190z
		 M585.7,159.7c-0.2-1.1,0.4-0.6,0.4-1.9c0.2-1.5,0.8-1.1,0.8-2.7c0-0.8,0.2-1.3,0.4-1.5c0.2-0.2,0-1.3-0.6-1.1
		c-0.8,0.2-1.5,1.9-1.7,6.5c-0.2,1.5,0,1.5,0.4,1.5C585.7,160.4,585.9,160.4,585.7,159.7z M585.7,166.3c0.2,0.6,0.6,0.8,0.6,0.2
		C586.3,164.4,584.8,163.7,585.7,166.3z M592.4,158.9c0,0.2,0,0.2,0.2,0c0.6-0.6,0.4-1.1,0.8-2.5c0.2-1.5,0.4-1.7,0-1.9
		c-0.2-0.4-0.2-0.6,0-0.8c0.6-0.4,0.8-2.5,1.1-2.9c4.8-9.7,13.5-20,20.4-25.9c1.3-1.7,4.2-1.9,3.8-3.8c-0.8-1.9-7.2,4.8-8.4,5.9
		c-3.4,2.7-7.4,7.8-9.7,10.9c-0.6,0.8-1.7,2.1-4.4,6.5c-0.6,1.3-1.3,2.1-1.5,2.1c0,0-0.2,0-0.2,0.2l0.2,0.2c0.4,0-0.2,0.8-0.6,0.8
		c-0.6,0.2-0.8,0.6-0.6,0.8c0.4,0.2-1.1,0-0.2,0.4c0.4,0.2,0.4,0.2,0,0.2c-1.3,0,1.1,0.4-0.2,0.4c-0.8,0,0.6,0.4,0,0.4
		c-0.4,0.2,0.4,1.3-0.4,2.1c-0.8,0.6-0.4,0.8-1.1,1.5c-0.2,0.2-0.4,0.6-0.4,0.8c0,0.4-0.8,1.9-0.8,2.5c0,0.2-0.2,0.4-0.2,0.6
		c-0.6,0.6-1.1,5.3-0.6,6.7c0.4,2.7,1.5,4,1.5,2.1C590.9,163.7,591.4,157.4,592.4,158.9z M592.2,160.2c-0.2,0.6,0.8,0.6,0.8,0.2
		C592.8,159.3,592,159.1,592.2,160.2z M594.5,158.9c1.1-4.2,5.3-11.8,8.2-16c1.7-2.3,2.1-2.9,1.9-3.4c-1.3,0.4-5,6.7-6.3,8.4
		c-1.3,2.3-2.5,4-3.4,5.7c-0.2,1.1-1.3,4.8-1.3,5.9C593.2,161.8,594.3,159.7,594.5,158.9z M595.1,151.8c0,0,0.2-0.2,0.2-0.4
		c0.6-0.6,1.3-2.5,0.8-2.5c-0.6,0.4-1.3,2.5-1.7,3.8c-0.8,1.7-0.2,1.5,0.4,0.2C595.1,152.2,595.3,151.8,595.1,151.8z M598.3,163.7
		c0-0.2,0-0.4-0.2-0.4c-0.6-0.4-1.1,4.4-1.3,5.3c-0.4,0.8,0.6,2.1,0.6,0.6C597.7,167.7,598.3,165.4,598.3,163.7z M599.8,155.5v-0.6
		c-0.4,0-0.2-0.6-0.4-0.6c-1.3-0.6-2.9,10.3-1.3,6.3C598.5,159.1,598.7,157.2,599.8,155.5z M600.8,153.4c2.1-3.4,3.4-6.1,6.7-10.7
		c1.9-2.7,0.4-1.7-0.4-0.2c-0.2,0.6-2.9,4.2-3.4,5.3c0.2,0.4-0.2,0.8-0.4,0.8c-0.2-0.2,0-1.1,1.1-2.9c1.7-3.8-3.4,3.4-3.4,5
		c0,0.2,0,0.6-0.2,0.6s0,1.3-0.2,1.3s-0.4,0.8-0.4,1.3C600.4,154.3,600.6,154.1,600.8,153.4z M625,170.3c6.7-4,16.8-13.5,20.8-21.2
		c5.3-11.1,6.1-12,7.8-21c0.2-0.8,0.8-6.9,0-7.4c-1.9-2.9-5.7-1.1-8,0.6c-6.5,4.8-10.3,12.4-13.5,19.1c-1.7,4.2-2.3,5.3-4.8,2.3
		c-0.4-0.6-2.3-2.5-2.1-3.4c0-2.1-0.8-1.9-2.9,0.4c-6.9,7.4-14.7,20.4-14.9,25.2c-0.2,1.7-0.8,3.4-1.3,3.8c-0.2,1.1-0.2,4.4,0.6,5.3
		c1.1,1.7,2.1,2.3,4.8,1.7C617,174,618.9,174.3,625,170.3z M608.2,155.7c0-0.4,0-0.4-0.2-0.2c0,0.4-0.6,0.8-0.6,1.3
		c0,0.2-0.2,0.6-0.4,0.8c-0.8,1.3-0.2,1.5,0.2,0.2C607.1,157.6,608.2,156.4,608.2,155.7z M609.2,153.2c1.1-2.3-0.8,0.6-0.8,1.3
		C608.4,155.7,609.2,153.6,609.2,153.2z M610.1,139.6c0.4-0.8,1.9-2.3,3.4-4.2c1.1-0.8,1.5-1.7,1.1-1.7c-1.7,0-6.3,6.5-5.9,6.5
		C608.6,140.6,609.2,140.4,610.1,139.6z M618.1,128c0.8-0.8,0.8-0.8,0.4-1.5c-0.2-0.4-0.2-0.4-0.8-0.2c-0.4,0-11.4,10.3-6.3,6.5
		C613,131.6,616.4,129.7,618.1,128z M620.8,138.1c-1.5-1.3-13.3,16-4.8,5.3C617,141.9,619.7,139.1,620.8,138.1z M632.6,183.9
		c1.7-0.6,3.8-1.5,3.4-1.7c-0.4-0.2-5.3,1.5-5.3,1.9C630.9,184.4,630.9,184.4,632.6,183.9z M633,112.2c0-0.2-0.8,0.4-0.8,0.8
		C632.2,113.7,633.2,112.4,633,112.2z M635.1,172.6c0.6-0.6-0.2-0.4-0.6,0C633.6,173.2,634,173.2,635.1,172.6z M639.9,113.3
		c0.2,0,4-2.1,4.6-2.7c0.8-0.8,0.2-1.3-1.1-0.6c-1.7,1.1-1.3-0.2-0.2-0.6c0.8-0.4,0.8-1.1,0.2-1.1c-0.6,0-2.3,0.6-2.7,1.1
		c-1.5,1.1-4.2,1.9-5.3,3.4c-2.1,2.1-1.1,3.4,0.8,0.8C637.8,111.2,639.1,110.3,639.9,113.3z M643.7,116.8l4-2.9
		c1.1-0.8,0.8-1.3-0.6-1.3c-1.5,0.4-2.9,1.1-5,2.3c-2.1,1.5-3.4,4.6-1.7,4.6C640.4,119.6,642.2,118.5,643.7,116.8z M640.8,160.8
		c7.2-5.3,10.1-11.4,14.5-20c0.4-0.2,0-1.5-0.4-1.5c-0.4-0.2,1.3-0.4,1.1-1.3c0-0.4-0.2-0.6-0.2-0.6c-0.2,0-0.2-0.2,0-0.4
		c0.4-0.2,0.4-0.2,0-0.2c-1.3,0.2-1.1,1.9-1.9,2.9c-0.4,0.6-1.9,3.8-2.5,4.4c-0.4,0.2-0.6,0.8-0.6,1.3c-0.4,1.7-2.7,4.8-3.8,6.5
		l-2.1,3.4c-3.4,4.2-4.2,5-4.4,5.5C640.1,161.4,640.1,161.4,640.8,160.8z M642.2,166.3c0-0.6-0.4-0.6-0.4,0
		C641.8,166.5,642.2,166.5,642.2,166.3z M643.3,118.9c0.4-0.2,2.1-1.9,0.8-1.1c-0.8,0.6-1.7,1.3-1.7,1.5
		C642.5,119.6,642.5,119.6,643.3,118.9z M646.5,162.7c2.5-2.3,3.4-3.8,5.3-6.1c3.4-3.8,3.4-4.8,4.8-6.9c0.6-0.4,0.6-0.4,0.6,0
		c0.8,0.4,2.5-5.7,2.9-6.5c1.3-2.3,1.9-8-0.4-1.7c-1.7,5-2.3,6.1-2.9,6.1c0,0-0.4,0.4-0.6,0.8c-0.4,0.8-1.5,2.1-1.9,2.7
		c-0.8,1.9-1.5,1.7-2.9,3.8c-2.5,4.2-5.5,6.9-8,10.5C643.1,166.1,644.1,165,646.5,162.7z M650.2,161c3.4-2.9,5.7-6.7,5.3-7.4
		c-0.2,0-1.1,0.4-1.1,0.6c0,0.6-4.4,6.5-5.9,8.2C646.2,164.8,648.8,162.9,650.2,161z M649.6,163.5c1.5-1.5-1.3-0.4-1.3,0.4
		C648.3,164.6,648.8,164.4,649.6,163.5z M650,114.1c0.4-0.8-1.3-0.4-1.5,0.2C648.6,114.5,649.8,114.5,650,114.1z M657,128.2
		c-0.8,0.6-0.6,6.5-1.1,6.9c-0.4,0.2-0.2,0.6,0.2,0.2C657,135.1,657.8,128.6,657,128.2z M656.3,136c0-0.2-0.6-0.2-0.6,0
		C655.7,136.2,656.3,136.2,656.3,136z M657.6,144.8c0.2-0.6,1.1-2.9,0.8-3.4c0,0,0-0.2,0.2-0.2c0.6,0,1.7-2.3,2.3-5.3l0.4-0.8
		c0.2,0,0.2-0.2,0.2-0.2c-0.2-0.4,0-1.9,0.4-1.9c0.2,0.4,0.2-6.5,0-6.3c-0.2,0-0.6-1.3-0.8-1.3c-0.2,0-0.4,1.1-0.4,3.8
		c-0.2,4.8-1.1,9.7-2.1,11.1c-0.6,0.8-1.3,2.9-1.7,4.2c-1.1,2.1-1.1,2.3,0,1.7C657.4,145.7,657.4,145.2,657.6,144.8z M659.9,166.7
		c2.9-2.7,3.8-5,1.3-2.5l-2.9,3.8c0,0-0.2,0.2-0.4,0.2c-0.4,0.2-0.6,0.8-0.2,0.8C657.8,168.8,658.7,167.9,659.9,166.7z M659.3,131.6
		c0-0.6-0.6-1.1-0.6,0C658.7,132.4,659.3,132.2,659.3,131.6z M665.2,141.7c0.6-1.3,0.8-2.7,0.6-2.7c-0.2,0-0.4,0.4-0.4,1.1
		c-0.2,0.6-0.4,1.1-0.6,1.1c0,0-6.5,14.7-2.3,7.6C664.3,145.4,664.3,144.4,665.2,141.7z M664.1,128.4c0.2-1.9-0.6-1.3-0.6,0.4
		C663.5,130.1,664.3,129.9,664.1,128.4z M664.5,147.5c0-0.4-0.4-0.4-0.4,0C664.1,147.8,664.5,147.8,664.5,147.5z M666,131.6
		c0-1.3-0.4-1.9-0.8-0.8c-0.2,0.6-0.8,8,0.2,6.1C665.6,136,666,132.8,666,131.6z M667.1,150.1c1.7-3.4,2.3-6.1,1.9-6.1
		c-0.2,0-0.4,0.4-0.4,1.1l-2.3,5C664.3,153.6,665,153.6,667.1,150.1z M665.2,128.8c0,0.8,0.8,1.5,0.8,0.2
		C666,128.2,665.2,127.6,665.2,128.8z M669.4,127.1c0,1.1,0.6,1.7,0.6,0.4C669.8,126.9,669.4,126.5,669.4,127.1z M672.7,138.7
		c0.8-2.3,1.1-5.5,0.8-5.5c-0.6,0-1.5,6.5-1.7,6.7c0,0.4,0,0.4,0.2,0.4S672.5,140,672.7,138.7z"/>
	<path d="M719.4,190l-3.2-1.1c-4.4-1.3-5.7-3.4-9.7-5.3l-4.2-1.9c-1.9-0.6-3.8-1.1-6.3-2.7c-6.3-4.4-8.2-11.4-8.4-18.7
		c0-2.1,0.2-2.5,0.4-2.9c0.6-1.1,0.4-2.5,0.8-3.8c4.8-13.3,14.1-27.3,26.9-36.4c3.2-1.5,6.1-3.4,10.1-2.9c1.9,0,1.9,0,4-2.7
		c2.3-2.5,3.8-4.2,5.5-5.5c4-2.3,8-4,13.5-2.9c3.2,0.4,6.9,0.4,9.5,1.7c2.1,0.6,1.7,0.2,4.6,1.9c0.8,0.6,1.5,1.3,1.9,2.1
		c1.3,1.9,3.2,2.5,5,4.8c1.5,1.5,3.4,2.7,4.6,4c0.4,0.2,3.2,3.6,3.2,3.8c0,0.2,0.2,0.4,0.6,0.6c2.5,4.2,3.2,10.7,3.2,15.8
		c-1.1,9.7-2.1,12.2-6.9,21.2c-4.4,7.6-12.2,18.1-19.6,22.7c-7.2,6.5-20.2,10.9-28.4,9.7C724.1,190.7,720.9,190.7,719.4,190z
		 M689.8,159.7c-0.2-1.1,0.4-0.6,0.4-1.9c0.2-1.5,0.8-1.1,0.8-2.7c0-0.8,0.2-1.3,0.4-1.5c0.2-0.2,0-1.3-0.6-1.1
		c-0.8,0.2-1.5,1.9-1.7,6.5c-0.2,1.5,0,1.5,0.4,1.5C689.8,160.4,690,160.4,689.8,159.7z M689.8,166.3c0.2,0.6,0.6,0.8,0.6,0.2
		C690.4,164.4,688.9,163.7,689.8,166.3z M696.5,158.9c0,0.2,0,0.2,0.2,0c0.6-0.6,0.4-1.1,0.8-2.5c0.2-1.5,0.4-1.7,0-1.9
		c-0.2-0.4-0.2-0.6,0-0.8c0.6-0.4,0.8-2.5,1.1-2.9c4.8-9.7,13.5-20,20.4-25.9c1.3-1.7,4.2-1.9,3.8-3.8c-0.8-1.9-7.2,4.8-8.4,5.9
		c-3.2,2.7-7.4,7.8-9.5,10.9c-0.6,0.8-1.7,2.1-4.4,6.5c-0.6,1.3-1.3,2.1-1.5,2.1c0,0-0.2,0-0.2,0.2l0.2,0.2c0.4,0-0.2,0.8-0.6,0.8
		c-0.6,0.2-0.8,0.6-0.6,0.8c0.4,0.2-1.1,0-0.2,0.4c0.4,0.2,0.4,0.2,0,0.2c-1.3,0,1.1,0.4-0.2,0.4c-0.8,0,0.6,0.4,0,0.4
		c-0.4,0.2,0.4,1.3-0.4,2.1c-0.8,0.6-0.4,0.8-1.1,1.5c-0.2,0.2-0.4,0.6-0.4,0.8c0,0.4-0.8,1.9-0.8,2.5c0,0.2-0.2,0.4-0.2,0.6
		c-0.6,0.6-1.1,5.3-0.6,6.7c0.4,2.7,1.5,4,1.5,2.1C695,163.7,695.5,157.4,696.5,158.9z M696.3,160.2c-0.2,0.6,0.8,0.6,0.8,0.2
		C696.9,159.3,696.1,159.1,696.3,160.2z M698.6,158.9c1.1-4.2,5.3-11.8,8.2-16c1.7-2.3,2.1-2.9,1.9-3.4c-1.3,0.4-5,6.7-6.3,8.4
		c-1.3,2.3-2.5,4-3.4,5.7c-0.2,1.1-1.3,4.8-1.3,5.9C697.4,161.8,698.4,159.7,698.6,158.9z M699.5,151.8c0,0,0.2-0.2,0.2-0.4
		c0.6-0.6,1.3-2.5,0.8-2.5c-0.6,0.4-1.3,2.5-1.7,3.8c-0.8,1.7-0.2,1.5,0.4,0.2C699.5,152.2,699.7,151.8,699.5,151.8z M702.4,163.7
		c0-0.2,0-0.4-0.2-0.4c-0.6-0.4-1.1,4.4-1.3,5.3c-0.4,0.8,0.6,2.1,0.6,0.6C701.8,167.7,702.4,165.4,702.4,163.7z M703.9,155.5v-0.6
		c-0.4,0-0.2-0.6-0.4-0.6c-1.3-0.6-3.2,10.3-1.3,6.3C702.6,159.1,702.8,157.2,703.9,155.5z M704.9,153.4c2.1-3.4,3.4-6.1,6.7-10.7
		c1.9-2.7,0.4-1.7-0.4-0.2c-0.2,0.6-3.2,4.2-3.4,5.3c0.2,0.4-0.2,0.8-0.4,0.8c-0.2-0.2,0-1.1,1.1-2.9c1.7-3.8-3.2,3.4-3.2,5
		c0,0.2,0,0.6-0.2,0.6c-0.2,0,0,1.3-0.2,1.3c-0.2,0-0.4,0.8-0.4,1.3C704.5,154.3,704.7,154.1,704.9,153.4z M729.1,170.3
		c6.7-4,16.8-13.5,20.8-21.2c5.3-11.1,6.1-12,7.8-21c0.2-0.8,0.8-6.9,0-7.4c-1.9-2.9-5.7-1.1-8,0.6c-6.5,4.8-10.3,12.4-13.5,19.1
		c-1.7,4.2-2.3,5.3-4.8,2.3c-0.4-0.6-2.3-2.5-2.1-3.4c0-2.1-0.8-1.9-3.2,0.4c-6.9,7.4-14.7,20.4-14.9,25.2c-0.2,1.7-0.8,3.4-1.3,3.8
		c-0.2,1.1-0.2,4.4,0.6,5.3c1.1,1.7,2.1,2.3,4.8,1.7C721.1,174,723,174.3,729.1,170.3z M712.5,155.7c0-0.4,0-0.4-0.2-0.2
		c0,0.4-0.6,0.8-0.6,1.3c0,0.2-0.2,0.6-0.4,0.8c-0.8,1.3-0.2,1.5,0.2,0.2C711.2,157.6,712.5,156.4,712.5,155.7z M713.5,153.2
		c1.1-2.3-0.8,0.6-0.8,1.3C712.7,155.7,713.5,153.6,713.5,153.2z M714.2,139.6c0.4-0.8,1.9-2.3,3.4-4.2c1.1-0.8,1.5-1.7,1.1-1.7
		c-1.7,0-6.3,6.5-5.9,6.5C712.9,140.6,713.5,140.4,714.2,139.6z M722.2,128c0.8-0.8,0.8-0.8,0.4-1.5c-0.2-0.4-0.2-0.4-0.8-0.2
		c-0.4,0-11.4,10.3-6.3,6.5C717.1,131.6,720.5,129.7,722.2,128z M725.1,138.1c-1.5-1.3-13.3,16-4.8,5.3
		C721.1,141.9,723.9,139.1,725.1,138.1z M736.7,183.9c1.7-0.6,3.8-1.5,3.4-1.7c-0.4-0.2-5.3,1.5-5.3,1.9
		C735,184.4,735,184.4,736.7,183.9z M737.3,112.2c0-0.2-0.8,0.4-0.8,0.8C736.3,113.7,737.3,112.4,737.3,112.2z M739.2,172.6
		c0.6-0.6-0.2-0.4-0.6,0C737.9,173.2,738.4,173.2,739.2,172.6z M744.3,113.3c0.2,0,4-2.1,4.6-2.7c0.8-0.8,0.2-1.3-1.1-0.6
		c-1.7,1.1-1.3-0.2-0.2-0.6c0.8-0.4,0.8-1.1,0.2-1.1s-2.3,0.6-2.7,1.1c-1.5,1.1-4.2,1.9-5.3,3.4c-2.1,2.1-1.1,3.4,0.8,0.8
		C741.9,111.2,743.4,110.3,744.3,113.3z M747.8,116.8l4-2.9c1.1-0.8,0.8-1.3-0.6-1.3c-1.5,0.4-3.2,1.1-5,2.3
		c-2.1,1.5-3.2,4.6-1.7,4.6C744.7,119.6,746.4,118.5,747.8,116.8z M745.1,160.8c7.2-5.3,10.1-11.4,14.5-20c0.4-0.2,0-1.5-0.4-1.5
		c-0.4-0.2,1.3-0.4,1.1-1.3c0-0.4-0.2-0.6-0.2-0.6c-0.2,0-0.2-0.2,0-0.4c0.4-0.2,0.4-0.2,0-0.2c-1.3,0.2-1.1,1.9-1.9,2.9
		c-0.4,0.6-1.9,3.8-2.5,4.4c-0.4,0.2-0.6,0.8-0.6,1.3c-0.4,1.7-2.7,4.8-3.8,6.5l-2.1,3.4c-3.4,4.2-4.2,5-4.4,5.5
		C744.5,161.4,744.5,161.4,745.1,160.8z M746.4,166.3c0-0.6-0.4-0.6-0.4,0C745.9,166.5,746.4,166.5,746.4,166.3z M747.4,118.9
		c0.4-0.2,2.1-1.9,0.8-1.1c-0.8,0.6-1.7,1.3-1.7,1.5C746.6,119.6,746.6,119.6,747.4,118.9z M750.8,162.7c2.5-2.3,3.4-3.8,5.3-6.1
		c3.2-3.8,3.4-4.8,4.8-6.9c0.6-0.4,0.6-0.4,0.6,0c0.8,0.4,2.5-5.7,3.2-6.5c1.3-2.3,1.9-8-0.4-1.7c-1.7,5-2.3,6.1-3.2,6.1
		c0,0-0.4,0.4-0.6,0.8c-0.4,0.8-1.5,2.1-1.9,2.7c-0.8,1.9-1.5,1.7-3.2,3.8c-2.5,4.2-5.5,6.9-8,10.5
		C747.2,166.1,748.2,165,750.8,162.7z M754.3,161c3.2-2.9,5.7-6.7,5.3-7.4c-0.2,0-1.1,0.4-1.1,0.6c0,0.6-4.4,6.5-5.9,8.2
		C750.6,164.8,752.9,162.9,754.3,161z M753.7,163.5c1.5-1.5-1.3-0.4-1.3,0.4C752.5,164.6,752.9,164.4,753.7,163.5z M754.1,114.1
		c0.4-0.8-1.3-0.4-1.5,0.2C752.7,114.5,753.9,114.5,754.1,114.1z M761.1,128.2c-0.8,0.6-0.6,6.5-1.1,6.9c-0.4,0.2-0.2,0.6,0.2,0.2
		C761.1,135.1,761.9,128.6,761.1,128.2z M760.4,136c0-0.2-0.6-0.2-0.6,0C759.8,136.2,760.4,136.2,760.4,136z M761.7,144.8
		c0.2-0.6,1.1-2.9,0.8-3.4c0,0,0-0.2,0.2-0.2c0.6,0,1.7-2.3,2.3-5.3l0.4-0.8c0.2,0,0.2-0.2,0.2-0.2c-0.2-0.4,0-1.9,0.4-1.9
		c0.2,0.4,0.2-6.5,0-6.3c-0.2,0-0.6-1.3-0.8-1.3c-0.2,0-0.4,1.1-0.4,3.8c-0.2,4.8-1.1,9.7-2.1,11.1c-0.6,0.8-1.3,2.9-1.7,4.2
		c-1.1,2.1-1.1,2.3,0,1.7C761.5,145.7,761.5,145.2,761.7,144.8z M764.2,166.7c3.2-2.7,3.8-5,1.3-2.5l-3.2,3.8c0,0-0.2,0.2-0.4,0.2
		c-0.4,0.2-0.6,0.8-0.2,0.8C761.9,168.8,762.8,167.9,764.2,166.7z M763.6,131.6c0-0.6-0.6-1.1-0.6,0
		C762.8,132.4,763.6,132.2,763.6,131.6z M769.5,141.7c0.6-1.3,0.8-2.7,0.6-2.7c-0.2,0-0.4,0.4-0.4,1.1c-0.2,0.6-0.4,1.1-0.6,1.1
		c0,0-6.5,14.7-2.3,7.6C768.4,145.4,768.4,144.4,769.5,141.7z M768.2,128.4c0.2-1.9-0.6-1.3-0.6,0.4
		C767.6,130.1,768.4,129.9,768.2,128.4z M768.7,147.5c0-0.4-0.4-0.4-0.4,0C768.2,147.8,768.7,147.8,768.7,147.5z M770.3,131.6
		c0-1.3-0.4-1.9-0.8-0.8c-0.2,0.6-0.8,8,0.2,6.1C769.9,136,770.3,132.8,770.3,131.6z M771.2,150.1c1.7-3.4,2.3-6.1,1.9-6.1
		c-0.2,0-0.4,0.4-0.4,1.1l-2.3,5C768.4,153.6,769.1,153.6,771.2,150.1z M769.5,128.8c0,0.8,0.8,1.5,0.8,0.2
		C770.3,128.2,769.5,127.6,769.5,128.8z M773.5,127.1c0,1.1,0.6,1.7,0.6,0.4C773.9,126.9,773.5,126.5,773.5,127.1z M777.1,138.7
		c0.8-2.3,1.1-5.5,0.8-5.5c-0.6,0-1.5,6.5-1.7,6.7c0,0.4,0,0.4,0.2,0.4S776.9,140,777.1,138.7z"/>
	<path d="M839.1,175.9l-0.2-2.9c0-3.8-0.2-8.2,0.8-16.8c0.4-2.9,0.6-5.3,1.9-12.2l1.5-8.6c0.4-2.5,0.2-3.4-0.2-3.8
		c-0.8-0.8-1.3-0.4-5,4.6c-2.1,3.4-5,7.4-6.1,9.7l-2.3,5c-3.4,7.2-7.6,16.8-9.5,23.8l-1.5,5.5c-1.3,4.8-1.7,5.5-2.7,6.9
		c-0.4,0.8-1.7,1.9-2.3,2.1c-0.8,0.6-0.8,0.4-3.2,0.4h-3.2c-0.4-0.2-1.1,0-2.1,0.6c-1.1,0.6-1.9,1.1-3.2,1.5
		c-1.1,0.2-2.3,0.4-2.7,0.6c-1.3,0.6-1.7,0.6-2.7,0.2c-1.7-0.6-1.9-1.7-2.3-4.8c-0.2-1.3-0.4-2.5-0.6-2.7v-1.5
		c0.2-0.8,0.2-1.5,0.2-1.7c0-0.2,0-0.8,0.2-1.5l0.2-4.2c0.2-1.5,0.4-4.6,1.1-6.7l3.2-22.9c0.6-5.3,1.3-10.7,1.7-12.6
		c0.4-4.4,1.1-8.4,1.5-14.7c0.4-4.6,0.4-5.3,1.1-6.1c0.6-1.5,1.7-2.5,1.9-2.5c0.2,0,0.6-0.2,1.1-0.6c1.7-1.5,2.5-1.3,3.2,1.1
		c0.4,1.1,0.4,2.1,0,6.9c-0.4,7.6-0.6,8.8-1.3,15.1c-0.4,4.4-0.4,5.5,0,5c0.2-0.4,1.9-16,1.7-17c0-0.4,0.2-0.4,0.6-0.4h0.2
		l-1.5,13.5c-0.2,4-0.4,5.5,0,5.5c0,0,0.2-0.2,0.2-0.4c0.4-2.1,1.3-8.4,1.7-14.3l0.4-5.9c0.4-3.8,0.4-4.2,0-4.2
		c-0.2,0-0.4,0.4-0.4,0.4c0,0.2-0.2,0.2-0.2,0.2h-0.4c0-0.6,0.2-2.9,0.4-4c0.2-0.4,0.2-1.1,0.4-1.5c0-1.3,0.4-1.7,2.3-2.5
		c1.3-0.8,2.5-0.8,3.2,0c0.2,0.2,0.6,0.6,0.8,0.6c0.2,0.2,0.4,0.2,0.6-0.2c0.2-0.4,0.6-0.8,1.1-1.3c0.4-0.8,2.3-1.7,3.8-1.7h1.3
		c1.3,0,2.7,0.6,3.2,1.7c0.6,0.4,0.6,2.1,0.2,8.2c-0.2,4-0.2,5,0,5.3c0.4,0,0.8-0.4,2.1-1.7c2.5-2.5,4.2-4.2,7.6-6.9
		c5.3-4,6.5-4.6,10.5-4.8c2.1-0.4,2.7-0.4,5,0.2c1.5,0.4,3.2,0.6,3.4,0.6c0.4,0.2,1.3,0.2,1.5,0.2h2.5c4.4,0,5.3,0.2,6.3,0.8
		c1.3,0.4,1.7,1.1,2.7,2.7c1.5,3.4,2.5,6.3,3.2,10.1c0.4,2.1,0.4,3.4-0.4,11.4c-0.4,1.5-1.3,7.8-1.7,9.3c-0.2,0.8-0.4,2.3-0.4,3.8
		c-0.2,0.6,0,1.5-0.2,1.9c-0.2,1.3-1.7,12-1.7,13.3l-0.6,8.8c0,0.8,0.2,3.4,0.4,3.8l0.2,1.5v0.8c0,0.2,0.4,1.9,1.5,2.3
		c2.3,0.8,3.8,5.3-1.3,7.2c-3.8,1.5-12.2,5-16.4,5c-3.8,0.2-7.4-1.5-8-2.1C840.6,185,840.6,182.2,839.1,175.9z M797.9,184.4v-1.7
		c0.2-0.4,0.2-0.6-0.2-0.4c-0.2,0-0.8,1.5-0.4,2.1C797.5,184.6,797.9,184.6,797.9,184.4z M802.7,185.4c-0.2-1.1-0.4-1.7-0.6-1.9
		c-0.2-0.2-0.4-0.2-0.6,0.6c-0.2,1.1-0.2,1.7,0.4,2.3c0.2,0.2,0.4,0.6,0.4,0.8c0,0.2,0.2,0.2,0.2,0.2
		C802.7,187.5,802.7,186.9,802.7,185.4z M805.5,172.6c0.8-1.7,1.1-1.9,1.1-3.8c0.2-1.5-0.2-1.5-0.8,0c0,0.4-0.6,1.7-0.8,2.7
		l-0.4,1.9C804.4,174.5,804.8,174,805.5,172.6z M805.2,146.9c0-0.4-0.4-0.4-0.4,0.2c0,0.4,0,0.4,0.2,0.4S805.5,147.1,805.2,146.9z
		 M805.5,144.4c0-0.2,0-0.2-0.2-0.2c0,0-0.2,0-0.2,0.2c0.2,0.4,0.2,0.4,0.4,0.4C805.5,144.8,805.7,144.4,805.5,144.4z M805.7,143.1
		c0.4-0.4,0.4-1.1,0-1.1c-0.2,0-0.4,0.4-0.4,1.1C805.2,143.8,805.7,143.8,805.7,143.1z M806.3,141c0.2-1.3,0.2-1.7-0.2-1.7
		s-0.6,1.1-0.6,1.7S806.1,141.7,806.3,141z M806.5,138.9c-0.2,0-0.2-0.4-0.4-0.4l-0.4,0.4c0.4,0.2,0.4,0.2,0.6,0.2
		C806.3,139.1,806.5,139.1,806.5,138.9z M807.3,144.2c0,0-0.2-0.2-0.4-0.2c0,0-0.2,0.2,0,0.2c0,0.2,0,0.2,0.2,0.2
		C806.9,144.4,807.3,144.4,807.3,144.2z M807.6,142.5c0.2-1.7,0.2-2.5,0-2.5s-0.4,1.1-0.6,2.7c0,0.4,0,0.6,0.2,0.6
		C807.3,143.3,807.6,142.9,807.6,142.5z M808.6,119.8c-0.2-1.1,0-2.1,0.6-2.1c0.2-0.2,0.2,0,0.2,0.6c0,0.2-0.2,0.6,0,1.1
		c0,0.4-0.2,0.6-0.4,0.6C808.6,120,808.6,119.8,808.6,119.8z M809,116.4c-0.4-0.2,0-0.2,0.2-0.4c0.2,0,0.2,0.2,0.4,0.4
		c0,0.2-0.2,0.2-0.4,0.2C809,116.8,809,116.6,809,116.4z M812.6,138.3c0-0.2-0.2-0.4-0.2-0.4c-0.2,0.2-0.2,0.4-0.2,0.6
		c0,0.4,0,0.6,0.2,0.4C812.6,138.9,812.6,138.5,812.6,138.3z M813.2,134.5c0,0,0.2-0.4,0.2-0.8c0.2-1.1,0.4-1.3,0.8-1.3
		c0.6,0.2,0.6,0.6,1.3-5.3c0.2-2.7,0.4-5.7,0.6-6.5c0.2-1.7,0.2-2.9,0.2-5c0-1.7,0-1.9-0.2-1.7c-0.2,0-0.6-0.2-0.8-0.4
		c-0.4-0.4-0.6-0.4-0.6-0.2c-0.6,0.2-1.1,4.6-1.3,8.4l-1.1,11.6c-0.2,1.7,0,2.9,0.4,1.9C812.8,134.9,813,134.7,813.2,134.5z
		 M814.5,136c0,0,0-0.2-0.2-0.2s-0.4,0.4-0.2,0.6S814.5,136.4,814.5,136z M819.3,152.6c0,0-0.2-0.2-0.4,0v0.2c0,0,0,0.2,0.2,0.2
		C819.1,152.8,819.3,152.8,819.3,152.6z M822.1,161.6c0.6-1.7,2.1-4.6,2.5-5.9l0.8-2.1c0-0.2,0.4-1.1,0.8-1.9
		c0.6-0.6,0.8-1.7,0.8-1.9c0-0.2,0.2-0.6,0.4-1.1c0.4-0.8,0.4-0.8,0-0.8c-1.3,0-7.8,15.4-7.8,17.7c0,0.2,0.2,0.2,0.4,0.2
		C820.4,165.6,821.4,164,822.1,161.6z M822.3,142.1c0-0.8,0-0.8-0.4-0.2c-0.2,0.2-0.2,0.4-0.2,0.6
		C822.1,142.9,822.3,142.7,822.3,142.1z M824.4,145c0.4-0.8,0.2-1.3-0.2-0.6s-0.4,1.1-0.2,1.1C824.2,145.4,824.4,145.2,824.4,145z
		 M825,142.9c0.2-0.4,0.2-0.6,0.2-0.6c-0.2,0.2-0.8,0.8-0.6,1.1C824.6,143.8,824.8,143.3,825,142.9z M828,133.2
		c0.4-0.6,0.6-0.8,0.4-0.8c0-0.2-0.4,0.2-0.6,0.8C827.5,133.7,827.5,133.7,828,133.2z M832.2,126.1c4.2-4.4,4.8-5.5,4.2-5.5
		c-0.4,0-7.4,7.8-8.4,10.1C826.9,132.2,828.4,130.7,832.2,126.1z M830.3,132.4l0.4-1.1c-0.2-0.2-1.9,2.1-1.9,2.3
		C828.8,134.1,829.9,133.7,830.3,132.4z M833.9,140.2c0.8-1.3,4-5.9,7.6-10.1c3.2-4.4,3.8-5,3.2-5.3c-0.2-0.2-6.9,7.2-7.4,8.6
		c-0.2,0.4-1.3,2.1-2.5,4c-0.8,1.7-1.7,2.9-1.7,3.4C833,141.2,833.2,140.8,833.9,140.2z M837.4,124.4c1.3-1.5,2.1-2.5,1.9-2.5
		s-1.3,0.6-1.9,1.5c-0.8,1.1-1.9,2.1-2.5,2.5c-0.6,0.8-0.8,1.3,0,1.3C835.1,127.1,836.2,126.1,837.4,124.4z M847.3,169.8
		c-0.4-1.5-0.4-2.1-0.6-1.9c-0.4,0-0.4,0.6-0.2,2.1c0.2,1.7,0.2,2.1,0.4,2.1C847.3,171.9,847.3,171.3,847.3,169.8z M849.2,180.6
		c-1.1-4.6-0.8-4.8-1.1-4.8c-0.4-0.2-0.6,0-0.4,1.9c0.4,2.9,1.1,6.5,1.7,6.5v-0.8C849.4,183.1,849.2,181.6,849.2,180.6z M849,159.7
		c-0.2,0-0.4,0.2-0.4,0.4c0.2,0,0,0.4,0,0.6c0,0.2,0,0.2,0.2,0.2l0.4-0.4C849.4,159.7,849.4,159.7,849,159.7z M850.5,154.3
		c0-0.4,0.2-2.5,0.6-4.6s0.8-4.2,0.8-4.8l0.6-2.3c0.4-0.6,0.6-1.7,0.6-2.3c0-0.4,0.2-1.1,0.4-1.7c0.2-1.1,1.3-6.7,1.5-9
		c0.2-0.8,0.4-2.1,0.4-3.4c0.4-1.5,0.2-4.4-0.2-6.3l-0.2-0.8c0-0.2-0.2-0.2-0.4-0.2c-0.6,0-0.6,0.4-0.8,1.7l-0.2,4.4v4.2
		c0,1.5,0,3.8-0.4,5.5L853,137c-0.4,0.8-0.6,2.7-0.8,4l-1.9,10.1c-0.8,4.6-0.8,4.4-0.4,4.2C850.3,154.9,850.3,154.5,850.5,154.3z
		 M851.1,166.7c0.2-1.1,0-2.1-0.2-2.1s-0.4,1.5-0.4,2.1C850.5,167.5,851.1,167.5,851.1,166.7z M851.3,160.4v-0.8
		c-0.2,0-0.4,0.6-0.4,1.1C850.9,161.4,851.3,161.2,851.3,160.4z M852.4,177l-0.2-2.9c0-0.4,0-0.6-0.2-0.6c-0.4,0.2-0.6,0.4-0.4,1.7
		c0.2,2.1,0.6,4.8,0.8,5.5c0.2,0.4,0.2,0.8,0.4,0.8C853,181.4,853.4,181,852.4,177z M852.4,157.2c0-0.4-0.2-0.4-0.2-0.4
		c-0.4,0-0.6,0.4-0.4,0.8C851.9,158.3,852.4,157.9,852.4,157.2z M853.4,170.7c-0.2-1.7,0.2-7.2,0.4-9.3l1.9-9.7
		c1.5-5.7,2.5-12.6,2.5-15.1c0.2-1.1,0-1.3-0.2-1.5c-0.6-0.2-1.1-0.2-1.1,0s0,0.4-0.2,0.6c0,0.4,0.2,0.4,0.4,0.4
		c0.6,0,0.6,0.2,0.4,1.3c-0.6,2.7-0.8,3.8-1.1,4c-0.4,0.2-1.3,2.1-1.3,2.7c0,0.8-0.4,3.4-0.8,4.6c-0.2,0.4-0.2,1.1-0.2,1.7
		c0.2,0.6,0.2,1.1,0,1.1c-0.4,0.2-0.4,0.2,0,0.4c0.2,0,0.2,0.2-0.2,0.2c-0.4,0.2-0.8,0.4-0.8,1.1c-0.6,1.3-0.6,1.5,0.2,1.3
		c0.4-0.2,0.4-0.2,0.4,1.1l-0.4,2.5c-1.1,4-1.5,10.5-1.1,12.6C852.8,172.4,853.4,172.4,853.4,170.7z M857,182.2
		c0.2,0,0.2-0.4,0.2-1.5c-1.3-5.5-1.3-6.9-1.5-11.4c0-4.2-0.2-5-0.4-5c-0.2,0-0.2,1.1-0.2,7.2c0.2,7.8,0.2,9,0.8,9.3
		c0,0.2,0,0.2-0.2,0.4c-0.4,0.2-0.2,1.3,1.5,1.9C856.8,182.9,856.8,182.7,857,182.2z M855.7,164l0.4-2.5c0.2-1.9,0-2.1-0.4-2.3
		c-0.2,0-0.2,0.2-0.2,0.4c0,0-0.2,1.1-0.2,2.3c-0.2,1.9-0.2,2.5,0.2,2.5C855.5,164.4,855.7,164.2,855.7,164z M856.1,157.4v-0.6
		c0.4-0.4,0.4-0.4,0-0.6c0,0-0.2,0-0.4,0.2c0,0.2,0,0.6-0.2,0.8c0,0.4,0,0.6,0.2,0.6S856.1,157.6,856.1,157.4z M857,137
		c0-0.2-0.2-0.2-0.2-0.2c-0.2,0-0.2,0-0.2,0.2s0,0.4,0.2,0.2C856.8,137.4,857,137.4,857,137z M857,136.2V136c0,0-0.2,0.2-0.2,0.4
		C857.2,136.4,857,136.6,857,136.2z M857,166.3c0,0-0.2,0.4-0.2,0.8c0,1.3,0.6,1.3,0.6,0.2C857.4,166.7,857.2,166.1,857,166.3z
		 M857.6,170.9c0-0.2-0.2-0.2-0.2-0.2c-0.2,0-0.4,0.2-0.4,0.6c0,0,0.2,0.2,0.4,0.2S857.6,171.3,857.6,170.9z M858,133.7
		c0-0.4,0-1.1,0.2-1.5c0-0.6,0-0.6-0.2,0c-0.2,0.2-0.4,1.1-0.4,1.3c0.2,0.4,0,0.6-0.2,0.6c-0.2,0.2-0.2,0.2,0,0.2
		C857.8,134.3,858,134.1,858,133.7z M857.6,164.6c0.2-0.2,0.4-1.1,0.4-1.9c0-0.8,0.2-1.5,0.4-1.5v-0.8c0.6-0.4,5.5-24.2,5.5-27.8
		v-1.7c0.2-0.4,0-0.6-0.2-0.6c-0.2,0.2-0.2,1.3-0.6,4.2l-1.1,6.3c-1.1,3.4-3.4,14.5-3.8,17.2l-0.8,6.9
		C857.4,165.4,857.4,165.4,857.6,164.6z M859.5,122.1c0-1.7-0.2-2.7-0.8-3.4c-0.2-0.4-0.4-0.4-0.4-0.4c-0.2,0.4,0.4,4.6,0.8,4.6
		C859.3,122.9,859.5,122.5,859.5,122.1z M859.3,126.1c0,0-0.2-0.2-0.6-0.2c-0.2,0-0.2,0.2-0.2,0.4c0,0.2,0.2,0.2,0.2,0.2
		C859.1,126.5,859.3,126.3,859.3,126.1z M859.5,169.2c0-0.8,0-1.3-0.2-1.1c-0.4,0-0.4,0.4-0.4,1.3c0,1.1,0,1.3,0.4,1.1
		C859.5,170.5,859.5,170.3,859.5,169.2z M859.5,172.2c0-0.6,0.2-0.8,0-0.8c-0.6,0.2-0.6,0.4-0.6,1.1s0,1.1,0.4,0.8
		C859.5,173.2,859.5,172.8,859.5,172.2z M861.6,160.2l1.7-9.3c2.3-11.6,3.4-20,3.2-20.2c-0.4-0.2-0.6,0.2-0.6,1.5l-2.1,12.2
		l-1.1,6.7c-0.2,1.1-0.6,2.9-0.6,4c-0.6,2.5-1.1,5.5-1.1,5.9C861,161.4,861.4,161.2,861.6,160.2z M862.9,120.2v-2.3
		c-0.2-0.2-0.2-0.6,0-0.8V116c-0.4-1.5-0.6-1.9-1.3-1.9c-0.2,0-0.2,3.4,0.4,6.3C862.5,122.3,862.9,122.3,862.9,120.2z M865.4,120
		c0-0.6-0.2-1.3-0.2-1.7c-0.6-1.7-1.1,0-0.6,1.7C864.6,121.5,865.6,121.5,865.4,120z M868.1,126.5c0-0.2-0.2-0.4-0.6-0.6
		c0-0.2,0-0.6,0.4-0.8c0.2-0.6,0.2-1.5,0-5c-0.6-3.6-0.6-4.2-1.1-4.6c-0.2-0.2-0.4-0.8-0.6-0.8c0,0,0,2.1,0.2,4.6l0.4,6.5
		c0,2.1,0,2.1,0.4,1.7C867.9,127.1,868.1,126.7,868.1,126.5z"/>
</g>
</svg>
