<?xml version="1.0" encoding="UTF-8"?>
<svg width="120" height="40" viewBox="0 0 120 40" fill="none" xmlns="http://www.w3.org/2000/svg" role="img" aria-label="Limoon">
  <!-- Modern book icon -->
  <g transform="translate(0, 2)">
    <!-- Book cover (left) -->
    <path d="M8 2h14c2.21 0 4 1.79 4 4v24c0 2.21-1.79 4-4 4H8c-2.21 0-4-1.79-4-4V6c0-2.21 1.79-4 4-4z" fill="#7B3FE4" opacity="0.9"/>
    
    <!-- Book spine -->
    <path d="M22 2v32c0 2.21-1.79 4-4 4s-4-1.79-4-4V2" fill="#6A2FD1"/>
    
    <!-- Book cover (right) -->
    <path d="M22 2h14c2.21 0 4 1.79 4 4v24c0 2.21-1.79 4-4 4H22c-2.21 0-4-1.79-4-4V6c0-2.21 1.79-4 4-4z" fill="#42D9C8" opacity="0.9"/>
    
    <!-- Book pages -->
    <rect x="26" y="6" width="10" height="24" fill="#F8F9FA" rx="1"/>
    <rect x="24" y="8" width="1" height="20" fill="#E9ECEF"/>
    
    <!-- Decorative star -->
    <path d="M18 8l1.2 2.8 3 .4-2.2 2.1.6 3.1-2.6-1.3-2.6 1.3.6-3.1-2.2-2.1 3-.4L18 8z" fill="#FFD700" opacity="0.8"/>
  </g>
  
  <!-- Limoon text -->
  <g transform="translate(45, 8)">
    <text x="0" y="24" font-family="system-ui, -apple-system, BlinkMacSystemFont, 'Segoe UI', sans-serif" font-size="20" font-weight="700" fill="#1A1A1A">
      <tspan fill="#7B3FE4">L</tspan><tspan>imoon</tspan>
    </text>
  </g>
  
  <!-- Infinity symbol accent -->
  <g transform="translate(100, 12) scale(0.6)">
    <circle cx="6" cy="8" r="4" fill="none" stroke="#7B3FE4" stroke-width="2"/>
    <circle cx="14" cy="8" r="4" fill="none" stroke="#42D9C8" stroke-width="2"/>
    <rect x="6" y="6" width="8" height="4" fill="#7B3FE4"/>
  </g>
</svg>
